<?xml version="1.0"?>
<svg xmlns="http://www.w3.org/2000/svg" id="Layer_1" enable-background="new 0 0 512 512" height="512px" viewBox="0 0 512 512" width="512px"><g><g><g><path d="m511.96 413.726c-1.033-27.311-22.157-49.295-48.888-51.76 16.623-32.396 25.423-68.505 25.423-105.966 0-45.381-13.081-89.353-37.829-127.164-24.112-36.84-57.958-65.987-97.879-84.29-3.763-1.727-8.216-.074-9.943 3.691-1.727 3.766-.074 8.217 3.691 9.943 3.157 1.447 6.268 2.966 9.332 4.553v17.703c0 .844.143 1.681.421 2.478.802 2.292 2.091 4.748 3.456 7.348 1.41 2.687 4.007 7.634 4.046 9.529 0 .001 0 .003-.001.004-1.913 6.106-6.102 21.135-3.683 28.808 2.014 6.39 3.513 12.319 4.283 20.487.884 9.386 5.716 15.304 15.207 18.622.233.082.47.152.71.21.673.163 1.388.244 2.146.244 5.105 0 12.121-3.695 20.903-11.019 5.528-4.609 15.429-13.964 19.713-24.883.746-1.696 3.089-5.502 5.737-8.185 28.387 37.25 44.69 83.414 44.69 131.921 0 119.93-97.569 217.5-217.498 217.5-100.433 0-187.292-68.022-211.224-165.418-.988-4.022-5.049-6.483-9.073-5.494-4.022.988-6.482 5.05-5.494 9.073 12.19 49.611 41.06 94.533 81.291 126.49 41.466 32.938 91.433 50.349 144.5 50.349 29.36 0 57.889-5.406 84.452-15.747 9.22 3.715 18.975 5.597 29.047 5.597 20.068 0 39.063-7.572 53.632-21.344 9.748 8.325 22.103 12.894 34.947 12.894 2.32 0 4.654-.149 6.938-.444 4.108-.53 7.009-4.29 6.479-8.398s-4.293-7.013-8.398-6.479c-1.65.213-3.338.321-5.019.321-9.595 0-18.813-3.536-25.943-9.946-5.271-4.76-13.4-4.591-18.519.392-11.88 11.61-27.547 18.004-44.117 18.004-2.448 0-4.871-.137-7.266-.411 21.206-10.916 40.816-25.187 58.167-42.538 13.281-13.281 24.758-27.887 34.307-43.518 1.308-.115 2.63-.164 3.952-.144 20.355.299 37.543 17.146 38.315 37.553.394 10.444-3.268 20.406-10.309 28.052-2.806 3.047-2.61 7.792.437 10.598 1.441 1.327 3.262 1.983 5.079 1.983 2.023 0 4.041-.814 5.519-2.419 9.741-10.579 14.807-24.351 14.263-38.78zm-102.839-286.979c-4.487 11.498-20.524 23.87-26.186 26.176-3.104-1.373-3.373-2.722-3.61-5.24-.946-10.042-2.919-17.271-4.894-23.534-.574-2.389 1.158-11.779 3.638-19.751 2.391-6.945-1.555-14.465-5.041-21.106-.799-1.522-1.618-3.083-2.159-4.295v-7.719c18.232 11.371 34.495 25.286 48.405 41.146-6.564 6.008-10.11 14.211-10.153 14.323z" data-original="#000000" class="active-path" data-old_color="#000000" fill="#380B4C"/><path d="m325.48 363.592c-.115-2.985-.265-6.856-.446-11.898-.195-5.442-2.554-7.107-11.328-13.303-2.082-1.47-4.701-3.319-8.061-5.725-3.609-2.599-5.476-2.29-15.834-.578-1.611.266-3.508.58-5.745.944-1.195-2.307-3.046-5.694-6.15-10.29-2.418-3.581-7.666-8.227-26.945-12.398-8.41-1.82-16.179-2.828-18.29-3.086-9.37-2.553-16.621-.142-21.062 2.338-5.327 2.974-5.536 7.433-5.882 14.819-.064 1.371-.14 2.983-.243 4.886-.558.798-1.463 2.054-2.575 3.596-1.024 1.421-2.32 3.217-3.959 5.506-2.417 3.376-2.261 4.949-1.244 15.183.25 2.519.571 5.745.964 9.903.135 2.19.159 2.234 4.904 10.835 1.237 2.242 2.86 5.186 4.993 9.067 2.33 4.241 7.013 5.679 11.542 7.069 1.017.312 2.502.769 3.565 1.179l6.059 38.077c-.243.848-.763 2.292-1.13 3.313-1.403 3.898-2.544 7.067-2.175 10.125.044 1.379.208 5.141.743 9.021.581 4.22 1.942 14.104 9.814 15.64 2.175.424 4.239.616 6.197.615 17.629-.001 26.485-15.529 26.893-16.262.086-.156.167-.315.243-.477 3.29-7.067 10.058-12.719 13.806-14.794 10.447-5.787 13.092-20.368 15.024-31.015.146-.8.286-1.574.425-2.316.984-.452 2.321-1.039 3.771-1.676 1.712-.752 3.818-1.677 6.472-2.867 3.095-1.37 3.544-2.123 9.044-11.333 1.359-2.276 5.413-9.038 5.413-9.038 1.674-2.725 1.656-3.188 1.197-15.06zm-19.487 16.408c-1.622 2.716-2.845 4.764-3.554 5.896-2.016.899-3.703 1.64-5.116 2.261-7.681 3.374-10.861 4.77-12.018 10.287-.299 1.426-.592 3.037-.905 4.761-1.156 6.371-3.308 18.231-7.533 20.571-6.689 3.705-15.417 11.693-19.982 21.259-.707 1.159-5.554 8.521-14.266 8.359-.603-2.596-1.116-7.111-1.197-11.079-.001-.086-.005-.172-.009-.259.227-.922.896-2.782 1.315-3.947 1.372-3.812 2.456-6.822 1.985-9.783l-6.562-41.235c-1.136-7.136-8.356-9.353-13.628-10.971-1.064-.327-2.549-.783-3.454-1.146-1.819-3.309-3.24-5.884-4.35-7.896-1.554-2.818-2.643-4.791-3.181-5.802-.361-3.805-.659-6.802-.895-9.176-.27-2.715-.487-4.904-.587-6.221 1.212-1.689 2.209-3.073 3.032-4.213 4.462-6.189 5.147-7.14 5.315-10.308.144-2.5.239-4.552.319-6.244.056-1.199.111-2.365.168-3.303 3.628-1.256 6.786-.379 7.939-.059.518.144.896.229 1.108.268.161.029.325.054.488.072 15.962 1.833 32.322 6.085 35.11 9.116 3.174 4.708 4.756 7.818 5.806 9.88 1.509 2.967 4.32 8.489 11.454 7.341 3.931-.632 7.021-1.142 9.461-1.546 2.623-.433 4.761-.787 6.113-.982 2.685 1.916 4.884 3.469 6.684 4.74 2.095 1.479 3.902 2.755 5.063 3.617.149 4.086.274 7.328.374 9.91.142 3.675.248 6.415.272 7.86-1.978 3.297-3.534 5.903-4.769 7.972z" data-original="#000000" class="active-path" data-old_color="#000000" fill="#380B4C"/><path d="m32.77 285.336c4.123-.398 7.143-4.063 6.745-8.186-.442-4.584-.74-9.228-.893-13.875 4.897 1.442 10.034 2.188 15.295 2.188 12.846 0 25.201-4.57 34.946-12.896 10.735 10.147 23.869 16.927 38.066 19.793 3.971 7.411 8.838 16.534 10.725 20.074 2.601 4.867 5.26 5.32 16.455 7.225 2.395.407 5.352.911 9.017 1.555.631.299 1.858.901 3.519 1.715 2.804 1.375 7.364 3.612 14.894 7.266 1.519.739 3.174 1.11 4.831 1.11 1.395 0 2.792-.264 4.11-.793 2.876-1.156 5.142-3.486 6.208-6.373.714-1.917 1.342-3.477 1.896-4.853 4.179-10.385 2.944-13.377-4.152-21.66-2.024-2.362-4.759-5.555-8.329-10.192-.241-.763-.71-2.383-1.584-5.776 4.111-2.634 8.002-5.671 11.619-9.09 9.746 8.327 22.1 12.896 34.946 12.896 14.756 0 28.529-5.864 38.783-16.512 10.295-10.691 15.656-24.776 15.094-39.662-.5-13.24-5.72-25.227-14.01-34.346 7.613-2.408 11.905-4.181 12.939-10.458.25-1.096.414-2.407.622-4.074.523-4.192.405-6.496-.434-8.49l-9.797-23.396c-1.675-3.975-3.785-4.969-10.774-8.264-1.509-.711-3.369-1.587-5.669-2.688-5.78-2.764-9.611-.188-15.41 3.711-1.102.741-2.401 1.614-3.921 2.615-1.854 1.056-2.027 1.312-10.007 13.074-2.009 2.961-4.58 6.75-7.888 11.617-1.358-.17-3.218-.445-5.142-.729-1.702-.252-3.696-.547-6.071-.883-.898-1.522-2.328-4.14-4.01-7.219-1.536-2.81-3.479-6.367-5.979-10.875-.064-1.007-.146-2.858-.25-5.191-.072-1.607-.16-3.585-.273-6.016 2.035-1.746 6.234-5.074 12.263-9.853 4.754-3.768 10.983-8.705 19.141-15.226 5.886-4.701 4.383-9.832 1.656-19.147-.602-2.055-1.331-4.546-2.186-7.581-1.38-4.917-4.976-7.724-10.125-7.902-2.794-.091-6.23.524-12.464 1.65-2.689.486-5.919 1.069-9.837 1.728-2.576.419-3.442 1.063-8.249 4.633-1.69 1.255-4.063 3.018-7.438 5.495-3.882-1.431-11.729-4.661-23.395-9.753 29.759-14.98 63.11-23.222 97.745-23.222 20.99 0 41.74 2.983 61.673 8.867 3.975 1.172 8.144-1.098 9.316-5.07 1.172-3.973-1.098-8.144-5.07-9.316-21.312-6.291-43.491-9.48-65.919-9.48-90.514-.001-172.828 52.657-210.908 134.521-24.888 4.104-44.069 25.271-45.05 51.269-.562 14.885 4.799 28.971 15.094 39.662 2.579 2.679 5.382 5.054 8.366 7.11.002 7.515.367 15.094 1.084 22.528.374 3.878 3.639 6.78 7.457 6.78.241 0 .484-.012.729-.035zm141.226-9.036c3.914 5.099 6.867 8.546 9.042 11.085 1.066 1.245 2.159 2.521 2.78 3.339-.273.779-.732 1.919-1.152 2.963-.143.354-.294.731-.454 1.131-5.253-2.555-8.689-4.24-10.964-5.356-5.268-2.583-5.474-2.685-6.997-2.928-3.943-.696-7.097-1.232-9.628-1.663-2.77-.471-5.144-.875-6.628-1.17-1.295-2.428-3.202-6.002-5.244-9.823 9.041-.256 17.836-2.05 26.075-5.257 1.374 5.071 2.064 6.55 3.17 7.679zm66.914-130.904c3.421-5.042 5.458-8.043 6.343-9.297 1.366-.902 2.533-1.688 3.542-2.365.892-.6 1.799-1.209 2.537-1.688 1.456.692 2.704 1.28 3.777 1.786 1.563.737 2.986 1.407 3.912 1.869l8.791 20.993c-.044.747-.18 1.884-.335 2.965-1.262.429-3.025.979-4.85 1.549-2.08.649-4.741 1.479-7.988 2.532-7.134-3.852-15.231-6.139-23.831-6.41 3.407-5.013 6.049-8.907 8.102-11.934zm-99.061-74.51c7.503 3.338 17.18 7.585 25.26 10.941 12.959 5.382 16.444 6.829 20.495 3.878 5.015-3.665 8.268-6.081 10.423-7.681 1.151-.855 2.141-1.59 2.774-2.048 3.538-.601 6.519-1.139 9.036-1.594 2.377-.43 4.68-.845 6.432-1.116.476 1.654.903 3.112 1.281 4.402.523 1.785 1.029 3.513 1.377 4.81-7.167 5.723-12.749 10.147-17.095 13.592-8.017 6.354-11.675 9.253-13.767 11.161-2.719 2.479-4.484 4.957-4.264 8.988l.007.144c.16 3.38.276 5.982.366 7.998.091 2.035.16 3.597.234 4.833-12.335-7.854-26.832-12.285-41.908-12.285-15.03 0-29.485 4.403-41.796 12.213-.504-3.659-1.291-5.235-3.164-6.92-.501-.677-1.388-1.881-2.545-3.452-1.026-1.394-2.26-3.069-3.625-4.919 14.596-16.874 31.649-31.336 50.479-42.945zm-60.204 55.035c.452.613.877 1.191 1.272 1.727 1.582 2.148 2.467 3.35 3.031 4.079.162 1.551.358 4.563.608 8.404l.027.42c-5.687 5.805-10.515 12.529-14.214 20.005-3.425-1.252-6.948-2.145-10.539-2.675 5.724-11.315 12.368-21.994 19.815-31.96zm-66.616 83.935c.77-20.409 17.954-37.254 38.306-37.551 5.119-.066 10.115.833 14.83 2.697 6.586 2.604 14.132-.396 17.181-6.83 10.436-22.028 32.87-36.262 57.153-36.262s46.717 14.234 57.153 36.262c3.047 6.434 10.595 9.435 17.181 6.83 4.714-1.864 9.711-2.764 14.829-2.697 20.353.297 37.537 17.142 38.307 37.551.406 10.774-3.468 20.964-10.91 28.691-7.4 7.685-17.336 11.917-27.978 11.917-9.596 0-18.813-3.537-25.954-9.959-5.285-4.753-13.416-4.573-18.512.408-11.874 11.606-27.542 17.998-44.117 17.998-16.576 0-32.244-6.392-44.117-17.998-2.625-2.565-6.055-3.857-9.487-3.857-3.23 0-6.463 1.145-9.026 3.45-7.14 6.422-16.356 9.959-25.953 9.959-6.684 0-13.089-1.67-18.762-4.815-.263-.173-.537-.329-.821-.468-3.045-1.788-5.868-4.009-8.395-6.633-7.44-7.729-11.314-17.919-10.908-28.693z" data-original="#000000" class="active-path" data-old_color="#000000" fill="#380B4C"/></g></g></g> </svg>
