<?xml version="1.0"?>
<svg xmlns="http://www.w3.org/2000/svg" xmlns:xlink="http://www.w3.org/1999/xlink" version="1.1" id="Layer_1" x="0px" y="0px" viewBox="0 0 512 512" style="enable-background:new 0 0 512 512;" xml:space="preserve" width="512px" height="512px"><g><g>
	<g>
		<path d="M256,74.323c-100.177,0-181.677,81.5-181.677,181.677S155.823,437.677,256,437.677S437.677,356.177,437.677,256    S356.177,74.323,256,74.323z M256,421.161c-88.27,0-160.587-69.604-164.951-156.811c78.644,1.692,118.46,26.966,160.526,53.674    c33.662,21.373,68.391,43.402,123.542,52.266C345.04,401.625,302.76,421.161,256,421.161z M260.427,304.082    c-42.223-26.808-85.839-54.498-169.385-56.251c1.671-34.149,13.766-65.602,33.158-91.247    c57.715,7.122,91.586,28.61,127.381,51.332c30.749,19.52,62.544,39.703,109.947,49.749c0.577,0.122,1.153,0.182,1.72,0.182    c3.817,0,7.247-2.664,8.071-6.548c0.946-4.462-1.905-8.845-6.366-9.791c-44.488-9.429-73.648-27.939-104.518-47.536    c-33.665-21.371-68.398-43.398-123.549-52.261C166.96,110.375,209.24,90.839,256,90.839c88.269,0,160.585,69.602,164.951,156.806    c-8.153-0.183-16.136-0.629-23.822-1.337c-4.538-0.416-8.562,2.924-8.98,7.465c-0.418,4.542,2.923,8.562,7.465,8.98    c8.182,0.754,16.676,1.225,25.343,1.412c-1.671,34.151-13.766,65.605-33.158,91.252    C330.086,348.297,296.218,326.806,260.427,304.082z" data-original="#000000" class="active-path" data-old_color="#000000" fill="#380B4C"/>
	</g>
</g><g>
	<g>
		<circle cx="133.924" cy="205.439" r="8.258" data-original="#000000" class="active-path" data-old_color="#000000" fill="#380B4C"/>
	</g>
</g><g>
	<g>
		<circle cx="256" cy="388.129" r="8.258" data-original="#000000" class="active-path" data-old_color="#000000" fill="#380B4C"/>
	</g>
</g><g>
	<g>
		<circle cx="222.968" cy="355.097" r="8.258" data-original="#000000" class="active-path" data-old_color="#000000" fill="#380B4C"/>
	</g>
</g><g>
	<g>
		<path d="M382.911,33.63C344.441,11.63,300.556,0,256,0c-54.297,0-105.862,16.675-149.609,48.278    c-7.155-5.946-16.341-9.528-26.35-9.528c-22.768,0-41.29,18.522-41.29,41.29c0,22.768,18.522,41.291,41.29,41.291    c22.768,0,41.29-18.522,41.29-41.29c0-6.797-1.66-13.208-4.583-18.869C157.519,31.938,205.495,16.516,256,16.516    c41.685,0,82.734,10.875,118.711,31.451c3.958,2.264,9.005,0.891,11.268-3.069C388.245,40.939,386.87,35.894,382.911,33.63z     M80.042,104.816c-13.661,0-24.774-11.113-24.774-24.774s11.113-24.774,24.774-24.774s24.774,11.113,24.774,24.774    S93.703,104.816,80.042,104.816z" data-original="#000000" class="active-path" data-old_color="#000000" fill="#380B4C"/>
	</g>
</g><g>
	<g>
		<path d="M463.722,106.391c5.946-7.155,9.528-16.341,9.528-26.35c0-22.768-18.522-41.29-41.29-41.29    c-22.768,0-41.29,18.522-41.29,41.29c0,22.768,18.522,41.29,41.29,41.29c6.797,0,13.208-1.662,18.869-4.583    c29.234,40.77,44.655,88.746,44.655,139.251c0,41.685-10.875,82.735-31.451,118.711c-2.265,3.96-0.891,9.005,3.069,11.268    c1.294,0.74,2.702,1.091,4.093,1.091c2.866,0,5.652-1.494,7.176-4.16C500.37,344.442,512,300.556,512,256    C512,201.704,495.325,150.138,463.722,106.391z M431.958,104.816c-13.661,0-24.774-11.113-24.774-24.774    s11.113-24.774,24.774-24.774s24.774,11.113,24.774,24.774S445.62,104.816,431.958,104.816z" data-original="#000000" class="active-path" data-old_color="#000000" fill="#380B4C"/>
	</g>
</g><g>
	<g>
		<path d="M431.958,390.668c-22.768,0-41.29,18.522-41.29,41.29c0,6.797,1.66,13.208,4.583,18.869    c-40.77,29.235-88.746,44.656-139.251,44.656C123.948,495.484,16.516,388.052,16.516,256c0-41.685,10.875-82.735,31.451-118.711    c2.265-3.959,0.891-9.005-3.069-11.268c-3.962-2.265-9.005-0.891-11.268,3.069C11.63,167.558,0,211.444,0,256    c0,68.38,26.628,132.667,74.981,181.019C123.334,485.37,187.62,512,256,512c54.297,0,105.862-16.675,149.609-48.278    c7.155,5.946,16.341,9.528,26.35,9.528c22.768,0,41.29-18.522,41.29-41.29C473.249,409.192,454.727,390.668,431.958,390.668z     M431.958,456.733c-13.661,0-24.774-11.113-24.774-24.774s11.113-24.774,24.774-24.774s24.774,11.113,24.774,24.774    S445.62,456.733,431.958,456.733z" data-original="#000000" class="active-path" data-old_color="#000000" fill="#380B4C"/>
	</g>
</g></g> </svg>
