<?xml version="1.0"?>
<svg xmlns="http://www.w3.org/2000/svg" height="512px" viewBox="0 0 64 64" width="512px" class=""><g transform="matrix(1 -2.44929e-16 2.44929e-16 1 -1.42109e-14 0)"><g id="outline"><path d="m5.081 8.547a5.994 5.994 0 0 0 9.338 4.417 8.688 8.688 0 0 0 2.611.539 2.378 2.378 0 0 0 .938-.166 1.7 1.7 0 0 0 1.011-.958c.656-1.6-.489-2.827-1.949-3.9.012-.157.024-.314.024-.474a5.991 5.991 0 0 0 -10.374-4.099c-2.773-.549-4.12-.339-4.552.716-.582 1.423.649 2.593 2.953 3.925zm11.379 2.037c.424.375.67.683.687.9a3.848 3.848 0 0 1 -1.115-.141 5.9 5.9 0 0 0 .428-.759zm-5.406 1.416a3.989 3.989 0 0 1 -3.523-2.146c.492.25 1.006.507 1.544.775l.531.266c.815.407 1.526.736 2.188 1.03a4.019 4.019 0 0 1 -.74.075zm0-8a3.984 3.984 0 0 1 2.946 6.685c-.909-.353-2.055-.859-3.5-1.58l-.533-.266c-.9-.447-1.911-.956-2.852-1.458a4 4 0 0 1 3.939-3.381zm-5.554 1.726a6.089 6.089 0 0 0 -.212.614 7.059 7.059 0 0 1 -1.002-.74 9.525 9.525 0 0 1 1.214.126z" data-original="#000000" class="active-path" data-old_color="#000000" fill="#380B4C"/><path d="m44 54a8 8 0 1 0 8-8 8.009 8.009 0 0 0 -8 8zm8 6a6 6 0 0 1 -1.251-.133l1.747-1a1 1 0 0 0 .453-.552l.635-1.906.969.485a.99.99 0 0 0 .261.087l2.134.405a6 6 0 0 1 -4.948 2.614zm5.9-7.049a5.741 5.741 0 0 1 -.1 2.562l-2.476-.47-1.876-.938a1 1 0 0 0 -1.4.579l-.879 2.637-2.683 1.534a6.027 6.027 0 0 1 -2-2.487l2.652-.378a1 1 0 0 0 .808-.674l.842-2.525 2.061-.687 2.593 1.728a1 1 0 0 0 1.1.005zm-5.9-4.951a6 6 0 0 1 5.2 3.021l-1.2.781-2.45-1.634a1 1 0 0 0 -.871-.117l-3 1a1 1 0 0 0 -.633.633l-.8 2.413-2.226.318c-.009-.138-.02-.275-.02-.415a6.006 6.006 0 0 1 6-6z" data-original="#000000" class="active-path" data-old_color="#000000" fill="#380B4C"/><path d="m12 31c0 .517.039 1.024.078 1.531-5.454 5.948-9.678 13.762-6.917 18.013 1.222 1.886 3.539 2.836 6.839 2.836a28.426 28.426 0 0 0 7.068-1.06 56.591 56.591 0 0 0 6.774-2.3 19.96 19.96 0 0 0 26.077-17.413c6.843-7.393 9.307-14.469 6.92-18.151-2.439-3.756-9.339-2.545-16.547-.572a19.958 19.958 0 0 0 -30.292 17.116zm6.558 19.385c-6.037 1.585-10.308 1.246-11.719-.929-1.675-2.584.717-8.545 5.6-14.309a20.054 20.054 0 0 0 10.731 13.771c-1.59.582-3.138 1.082-4.612 1.467zm-4.529-18.817c6.455-1.657 10.291-2.568 17.971-2.568a4.887 4.887 0 0 0 4.564-2.508 7.3 7.3 0 0 1 2.883-2.6 14.992 14.992 0 0 1 4.745-1.328 11.794 11.794 0 0 0 3.228-.8 17.848 17.848 0 0 1 1.741 3.814 19.867 19.867 0 0 1 -4.161.422c-3.7 0-4.862 1.6-5.89 3.012-1.118 1.537-2.174 2.988-7.11 2.988a67.292 67.292 0 0 0 -17.572 2.862 17.949 17.949 0 0 1 -.399-3.294zm11.781 16.312a18.065 18.065 0 0 1 -9.129-7.48 7.469 7.469 0 0 1 4.416.073 17.331 17.331 0 0 0 3.903.527 4.142 4.142 0 0 0 3.13-1.384c.859-.794 1.747-1.616 4.87-1.616.938 0 1.73.035 2.426.065 3.359.143 4.856.068 8.281-3.358a8.285 8.285 0 0 1 5.456-2.179 65.829 65.829 0 0 1 -10.707 8.633 81.564 81.564 0 0 1 -12.646 6.719zm6.19 1.12a18.029 18.029 0 0 1 -3.12-.289 85.013 85.013 0 0 0 10.664-5.872 68.463 68.463 0 0 0 9.986-7.812 18.021 18.021 0 0 1 -17.53 13.973zm10.293-15.707c-2.941 2.94-3.834 2.9-6.78 2.774-.721-.031-1.542-.067-2.513-.067-3.906 0-5.249 1.242-6.229 2.148a2.21 2.21 0 0 1 -1.771.852 15.47 15.47 0 0 1 -3.473-.476 9.211 9.211 0 0 0 -5.81.1 17.729 17.729 0 0 1 -.745-1.837 65.281 65.281 0 0 1 17.028-2.787c5.954 0 7.491-2.113 8.727-3.811.925-1.271 1.593-2.189 4.273-2.189a21.9 21.9 0 0 0 4.655-.485 18.048 18.048 0 0 1 .32 2.99 10.668 10.668 0 0 0 -7.682 2.788zm14.868-17.749c1.89 2.915-.4 8.321-5.235 13.993a19.963 19.963 0 0 0 -7.471-14.158c5.155-1.312 11.104-2.304 12.706.165zm-14.094 1.29a18.146 18.146 0 0 1 3.2 3.231 12.144 12.144 0 0 1 -2.374.525 16.915 16.915 0 0 0 -5.338 1.515 9.229 9.229 0 0 0 -3.6 3.208c-.826 1.123-1.238 1.687-2.955 1.687a61.982 61.982 0 0 0 -17.924 2.491 17.949 17.949 0 0 1 .273-2 27.268 27.268 0 0 0 3.114-.89 25.087 25.087 0 0 1 8.537-1.601c2.412 0 3.459-1.509 4.3-2.721.885-1.273 1.584-2.279 3.7-2.279 3.427 0 6.953-1.834 9.067-3.166zm-11.067-3.834a17.861 17.861 0 0 1 9.176 2.543c.015.023.021.053.038.074a15.384 15.384 0 0 1 -7.214 2.383c-3.163 0-4.371 1.74-5.342 3.138-.849 1.224-1.353 1.862-2.658 1.862a27.135 27.135 0 0 0 -9.164 1.7c-.673.222-1.3.426-1.895.593a18.021 18.021 0 0 1 17.059-12.293z" data-original="#000000" class="active-path" data-old_color="#000000" fill="#380B4C"/><path d="m22 19h2v2h-2z" data-original="#000000" class="active-path" data-old_color="#000000" fill="#380B4C"/><path d="m26 16h2v2h-2z" data-original="#000000" class="active-path" data-old_color="#000000" fill="#380B4C"/><path d="m61 39a3 3 0 0 1 -3-3 1 1 0 0 0 -2 0 3 3 0 0 1 -3 3 1 1 0 0 0 0 2 3 3 0 0 1 3 3 1 1 0 0 0 2 0 3 3 0 0 1 3-3 1 1 0 0 0 0-2zm-4 2.031a4.988 4.988 0 0 0 -1.031-1.031 4.988 4.988 0 0 0 1.031-1.031 4.988 4.988 0 0 0 1.031 1.031 4.988 4.988 0 0 0 -1.031 1.031z" data-original="#000000" class="active-path" data-old_color="#000000" fill="#380B4C"/><path d="m11 20a3 3 0 0 1 -3-3 1 1 0 0 0 -2 0 3 3 0 0 1 -3 3 1 1 0 0 0 0 2 3 3 0 0 1 3 3 1 1 0 0 0 2 0 3 3 0 0 1 3-3 1 1 0 0 0 0-2zm-4 2.031a4.988 4.988 0 0 0 -1.031-1.031 4.988 4.988 0 0 0 1.031-1.031 4.988 4.988 0 0 0 1.031 1.031 4.988 4.988 0 0 0 -1.031 1.031z" data-original="#000000" class="active-path" data-old_color="#000000" fill="#380B4C"/><path d="m24 43h2v2h-2z" data-original="#000000" class="active-path" data-old_color="#000000" fill="#380B4C"/><path d="m29 41h2v2h-2z" data-original="#000000" class="active-path" data-old_color="#000000" fill="#380B4C"/><path d="m31 3h2v2h-2z" data-original="#000000" class="active-path" data-old_color="#000000" fill="#380B4C"/><path d="m31 7h2v2h-2z" data-original="#000000" class="active-path" data-old_color="#000000" fill="#380B4C"/><path d="m29 5h2v2h-2z" data-original="#000000" class="active-path" data-old_color="#000000" fill="#380B4C"/><path d="m33 5h2v2h-2z" data-original="#000000" class="active-path" data-old_color="#000000" fill="#380B4C"/><path d="m29 53h2v2h-2z" data-original="#000000" class="active-path" data-old_color="#000000" fill="#380B4C"/><path d="m29 57h2v2h-2z" data-original="#000000" class="active-path" data-old_color="#000000" fill="#380B4C"/><path d="m27 55h2v2h-2z" data-original="#000000" class="active-path" data-old_color="#000000" fill="#380B4C"/><path d="m31 55h2v2h-2z" data-original="#000000" class="active-path" data-old_color="#000000" fill="#380B4C"/><path d="m22 6h2v2h-2z" data-original="#000000" class="active-path" data-old_color="#000000" fill="#380B4C"/><path d="m41 9h2v2h-2z" data-original="#000000" class="active-path" data-old_color="#000000" fill="#380B4C"/><path d="m19 55h2v2h-2z" data-original="#000000" class="active-path" data-old_color="#000000" fill="#380B4C"/><path d="m37 58h2v2h-2z" data-original="#000000" class="active-path" data-old_color="#000000" fill="#380B4C"/></g></g> </svg>
