<?xml version="1.0"?>
<svg xmlns="http://www.w3.org/2000/svg" height="512px" viewBox="0 0 480.35065 480" width="512px"><g><path d="m270.269531 2.089844c-131.496093-16.714844-251.640625 76.332031-268.355469 207.824218-16.710937 131.492188 76.332032 251.640626 207.824219 268.351563 10.203125 1.296875 20.476563 1.949219 30.761719 1.953125 126.699219-.078125 231.515625-98.632812 239.386719-225.085938 7.875-126.457031-83.90625-237.246093-209.617188-253.042968zm-30.425781 14.089844c26.484375 0 52.757812 4.703124 77.601562 13.886718l-7.824218 5.496094c-30.386719 21.320312-68.054688 29.570312-104.570313 22.90625-19.222656-3.5625-38.953125-3.390625-58.109375.503906l-12.601562 2.476563c-10.652344 2.113281-21.519532 2.949219-32.367188 2.488281 39.320313-30.890625 87.867188-47.707031 137.871094-47.757812zm223.816406 235.199218-23.082031 11.542969-17.039063-11.359375c-2.367187-16.609375-17.1875-28.550781-33.921874-27.335938-16.730469 1.214844-29.671876 15.175782-29.613282 31.953126 0 .800781.175782 1.597656.238282 2.398437l-57.167969 21.441406-118.015625-15.769531c-4.320313-.476562-8.234375 2.585938-8.808594 6.894531-.574219 4.3125 2.402344 8.292969 6.699219 8.960938l120 16c.347656.050781.703125.074219 1.054687.074219.957032 0 1.910156-.167969 2.808594-.503907l58.488281-21.898437c3.519531 5.355468 8.558594 9.53125 14.472657 12l-28.683594 51.640625c-2.285156-.769531-4.675782-1.1875-7.085938-1.238281-11.035156-.046876-20.691406 7.414062-23.425781 18.109374-2.734375 10.691407 2.152344 21.871094 11.859375 27.128907 9.703125 5.253906 21.738281 3.238281 29.199219-4.894531 7.460937-8.128907 8.4375-20.296876 2.367187-29.511719l32.953125-59.335938c10.648438-1.6875 19.734375-8.621093 24.167969-18.449219l14.398438 9.601563c2.382812 1.585937 5.4375 1.78125 8 .503906l18.398437-9.191406c-13.242187 98.152344-89.359375 175.964844-187.199219 191.367187 20.066406-12.902343 37.589844-29.378906 51.695313-48.617187 2.609375-3.570313 1.828125-8.578125-1.742188-11.183594-3.570312-2.605469-8.578125-1.824219-11.183593 1.742188-15.15625 20.707031-34.601563 37.898437-57.007813 50.402343l-8.480469 4.726563v-26.398437c0-4.417969-3.582031-8-8-8-4.417968 0-8 3.582031-8 8v26.398437l-8.519531-4.734375c-22.410156-12.503906-41.859375-29.695312-57.015625-50.402344-2.609375-3.566406-7.613281-4.347656-11.183594-1.742187-3.570312 2.605469-4.351562 7.613281-1.746094 11.183593 14.058594 19.160157 31.5 35.585938 51.472657 48.464844-91.082031-14.414062-164.050781-83.121094-183.921875-173.167968h58.914062c.332032 0 .664063-.023438.992188-.066407l64-8c2.886718-.289062 5.390625-2.125 6.542968-4.789062 1.148438-2.667969.761719-5.746094-1.007812-8.046875-1.769531-2.300782-4.648438-3.460938-7.519531-3.035156l-63.503907 7.9375h-61.238281c-10.28125-71.558594 14.609375-143.675782 66.832031-193.664063 7.289063 1.066406 14.644532 1.621094 22.015626 1.664063 10.207031.007812 20.390624-1.007813 30.398437-3.03125l12.601563-2.480469c17.167968-3.507813 34.855468-3.664063 52.085937-.464844 9.15625 1.683594 18.449219 2.535156 27.761719 2.535156 31.8125.03125 62.859375-9.78125 88.878906-28.085937l16.113281-11.328125c82.300781 38.691406 133.125 123.21875 128.703125 214.054687zm-55.65625 4.800782c0 8.835937-7.164062 16-16 16-8.835937 0-16-7.164063-16-16 0-8.835938 7.164063-16 16-16 8.835938 0 16 7.164062 16 16zm-56 104c0 4.417968-3.582031 8-8 8-4.417968 0-8-3.582032-8-8 0-4.417969 3.582032-8 8-8 4.417969 0 8 3.582031 8 8zm0 0" data-original="#000000" class="active-path" data-old_color="#000000" fill="#380B4C"/><path d="m188.074219 112.476562-.070313-.074218c-.144531-.085938-.304687-.152344-.449218-.238282-1.800782-1.132812-3.671876-2.152343-5.597657-3.058593-.257812-.109375-.496093-.246094-.753906-.359375-2.078125-.941406-4.214844-1.742188-6.398437-2.398438-.25-.074218-.503907-.128906-.753907-.191406-1.886719-.527344-3.804687-.945312-5.742187-1.257812-.535156-.078126-1.066406-.175782-1.601563-.238282-2.222656-.308594-4.460937-.46875-6.703125-.480468-28.703125.035156-51.964844 23.296874-52 52 .007813 1.960937.125 3.921874.351563 5.871093v.097657c2.734375 24.042968 21.695312 43.019531 45.738281 45.78125 24.039062 2.761718 46.804688-11.429688 54.917969-34.226563 8.113281-22.800781-.570313-48.179687-20.953125-61.226563zm-64.070313 43.703126c.023438-19.875 16.125-35.980469 36-36 2.1875.023437 4.371094.242187 6.519532.65625.375.070312.761718.121093 1.128906.199218 1.910156.425782 3.785156 1.011719 5.597656 1.742188.515625.210937 1.019531.425781 1.523438.65625.503906.234375.796874.457031 1.222656.664062v.082032c-.007813 12.453124-6.449219 24.019531-17.035156 30.582031-10.585938 6.558593-23.808594 7.183593-34.964844 1.648437.007812-.078125.007812-.152344.007812-.230468zm36 36c-12.492187-.03125-24.070312-6.554688-30.566406-17.222657 14.046875 3.152344 28.773438.15625 40.46875-8.242187 10.15625-7.136719 17.425781-17.667969 20.496094-29.695313 3.65625 5.722657 5.597656 12.371094 5.601562 19.160157-.023437 19.871093-16.128906 35.976562-36 36zm0 0" data-original="#000000" class="active-path" data-old_color="#000000" fill="#380B4C"/><path d="m336.003906 104.179688c-11.890625-.023438-22.808594 6.5625-28.339844 17.089843-5.527343 10.523438-4.753906 23.25 2.011719 33.03125l-19.921875 24.878907c-2.757812 3.449218-2.199218 8.484374 1.25 11.246093 3.449219 2.761719 8.488282 2.203125 11.246094-1.246093l19.578125-24.457032c7.894531 4.097656 17.175781 4.574219 25.449219 1.304688l21.78125 38.152344c1.433594 2.480468 4.082031 4.003906 6.945312 4 1.402344.007812 2.785156-.355469 4-1.054688 3.832032-2.195312 5.164063-7.078125 2.976563-10.914062l-22.585938-39.519532c4.335938-5.125 6.929688-11.496094 7.410157-18.191406l39.09375 5.597656c4.375.628906 8.429687-2.410156 9.058593-6.78125.625-4.375-2.410156-8.429687-6.785156-9.058594l-44.671875-6.398437c-5.390625-10.808594-16.417969-17.648437-28.496094-17.679687zm0 48c-8.835937 0-16-7.164063-16-16 0-8.835938 7.164063-16 16-16 8.835938 0 16 7.164062 16 16 0 8.835937-7.164062 16-16 16zm0 0" data-original="#000000" class="active-path" data-old_color="#000000" fill="#380B4C"/><path d="m233.21875 387.066406c4.1875 3.304688 9.363281 5.105469 14.695312 5.113282 1.019532-.003907 2.03125-.0625 3.042969-.183594 12.171875-1.441406 21.238281-11.929688 20.902344-24.183594 11.40625-1.550781 20.710937-9.902344 23.480469-21.074219 2.765625-11.167969-1.5625-22.898437-10.925782-29.59375-9.363281-6.695312-21.859374-6.996093-31.535156-.765625-9.679687 6.234375-14.570312 17.738282-12.347656 29.03125-8.40625 2.765625-14.609375 9.933594-16.136719 18.652344-1.527343 8.714844 1.863281 17.566406 8.824219 23.027344zm34.785156-58.886718c6.628906 0 12 5.371093 12 12 0 6.625-5.371094 12-12 12s-12-5.375-12-12c0-6.628907 5.371094-12 12-12zm-26.289062 35.070312c1.308594-1.675781 3.238281-2.75 5.351562-2.984375.3125-.050781.625-.078125.9375-.085937.191406 0 .382813.078124.574219.09375 1.980469 1.871093 4.21875 3.445312 6.648437 4.671874.335938.703126.554688 1.453126.65625 2.226563.28125 2.105469-.292968 4.238281-1.597656 5.917969-1.292968 1.664062-3.203125 2.738281-5.296875 2.976562-2.097656.277344-4.222656-.296875-5.894531-1.59375-1.671875-1.300781-2.753906-3.214844-3.003906-5.316406-.269532-2.105469.316406-4.234375 1.625-5.90625zm0 0" data-original="#000000" class="active-path" data-old_color="#000000" fill="#380B4C"/><path d="m56.003906 240.179688h16v16h-16zm0 0" data-original="#000000" class="active-path" data-old_color="#000000" fill="#380B4C"/><path d="m88.003906 224.179688h16v16h-16zm0 0" data-original="#000000" class="active-path" data-old_color="#000000" fill="#380B4C"/><path d="m64.003906 200.179688h16v16h-16zm0 0" data-original="#000000" class="active-path" data-old_color="#000000" fill="#380B4C"/><path d="m40.003906 168.179688h16v16h-16zm0 0" data-original="#000000" class="active-path" data-old_color="#000000" fill="#380B4C"/><path d="m72.003906 160.179688h16v16h-16zm0 0" data-original="#000000" class="active-path" data-old_color="#000000" fill="#380B4C"/><path d="m56.003906 128.179688h16v16h-16zm0 0" data-original="#000000" class="active-path" data-old_color="#000000" fill="#380B4C"/><path d="m416.003906 456.179688h16v16h-16zm0 0" data-original="#000000" class="active-path" data-old_color="#000000" fill="#380B4C"/><path d="m24.003906 464.179688h16v16h-16zm0 0" data-original="#000000" class="active-path" data-old_color="#000000" fill="#380B4C"/><path d="m24.003906 416.179688h16v16h-16zm0 0" data-original="#000000" class="active-path" data-old_color="#000000" fill="#380B4C"/><path d="m48.003906 440.179688h16v16h-16zm0 0" data-original="#000000" class="active-path" data-old_color="#000000" fill="#380B4C"/><path d="m.00390625 440.179688h15.99999975v16h-15.99999975zm0 0" data-original="#000000" class="active-path" data-old_color="#000000" fill="#380B4C"/><path d="m456.003906 448.179688h16v16h-16zm0 0" data-original="#000000" class="active-path" data-old_color="#000000" fill="#380B4C"/><path d="m432.003906 416.179688h16v16h-16zm0 0" data-original="#000000" class="active-path" data-old_color="#000000" fill="#380B4C"/><path d="m464.003906.179688h16v16h-16zm0 0" data-original="#000000" class="active-path" data-old_color="#000000" fill="#380B4C"/><path d="m464.003906 40.179688h16v16h-16zm0 0" data-original="#000000" class="active-path" data-old_color="#000000" fill="#380B4C"/><path d="m416.003906 24.179688h16v16h-16zm0 0" data-original="#000000" class="active-path" data-old_color="#000000" fill="#380B4C"/><path d="m8.003906 8.179688h16v16h-16zm0 0" data-original="#000000" class="active-path" data-old_color="#000000" fill="#380B4C"/><path d="m56.003906 24.179688h16v16h-16zm0 0" data-original="#000000" class="active-path" data-old_color="#000000" fill="#380B4C"/><path d="m32.003906 208.179688h16v16h-16zm0 0" data-original="#000000" class="active-path" data-old_color="#000000" fill="#380B4C"/><path d="m48.003906 304.179688h16v16h-16zm0 0" data-original="#000000" class="active-path" data-old_color="#000000" fill="#380B4C"/><path d="m72.003906 328.179688h16v16h-16zm0 0" data-original="#000000" class="active-path" data-old_color="#000000" fill="#380B4C"/><path d="m272.003906 120.179688h16v16h-16zm0 0" data-original="#000000" class="active-path" data-old_color="#000000" fill="#380B4C"/><path d="m248.003906 88.179688h16v16h-16zm0 0" data-original="#000000" class="active-path" data-old_color="#000000" fill="#380B4C"/><path d="m288.003906 88.179688h16v16h-16zm0 0" data-original="#000000" class="active-path" data-old_color="#000000" fill="#380B4C"/><path d="m320.003906 72.179688h16v16h-16zm0 0" data-original="#000000" class="active-path" data-old_color="#000000" fill="#380B4C"/><path d="m147.738281 347.378906c-4.445312-2.5625-9.605469-3.613281-14.703125-2.992187l-13.832031-27.785157c-1.972656-3.953124-6.78125-5.558593-10.734375-3.582031-3.957031 1.972657-5.558594 6.78125-3.585938 10.734375l13.945313 27.875c-3.144531 3.265625-5.296875 7.363282-6.199219 11.804688l-26.058594 4.890625c-4.035156.773437-6.828124 4.480469-6.457031 8.574219.371094 4.09375 3.78125 7.242187 7.890625 7.28125.496094 0 .992188-.050782 1.480469-.144532l25.3125-4.742187c1.566406 3.042969 3.773437 5.710937 6.472656 7.820312 1.371094 1.046875 2.851563 1.9375 4.414063 2.664063l-5.265625 15.890625c-1.382813 4.191406.886719 8.710937 5.074219 10.101562.808593.269531 1.65625.40625 2.511718.410157 3.449219-.003907 6.507813-2.214844 7.59375-5.488282l6.398438-19.382812c4.273437-1.105469 8.152344-3.382813 11.199218-6.578125l28.800782 7.199219c.65625.167968 1.332031.25 2.007812.25 4.039063-.003907 7.4375-3.019532 7.929688-7.023438.492187-4.007812-2.078125-7.753906-5.992188-8.738281l-26.007812-6.496094c.109375-1.566406.070312-3.140625-.121094-4.703125-.273438-1.980469-.796875-3.917969-1.554688-5.769531l22.546876-16.871094c3.535156-2.648437 4.25-7.664063 1.597656-11.199219-2.648438-3.535156-7.664063-4.25-11.199219-1.601562zm-5.421875 25.746094c-2.332031 3.023438-6.476562 3.976562-9.894531 2.277344-3.417969-1.695313-5.164063-5.574219-4.164063-9.257813 1-3.6875 4.464844-6.152343 8.273438-5.886719 3.808594.261719 6.902344 3.183594 7.382812 6.96875.261719 2.089844-.3125 4.195313-1.597656 5.863282zm0 0" data-original="#000000" class="active-path" data-old_color="#000000" fill="#380B4C"/></g> </svg>
