<?xml version="1.0"?>
<svg xmlns="http://www.w3.org/2000/svg" xmlns:xlink="http://www.w3.org/1999/xlink" version="1.1" id="Capa_1" x="0px" y="0px" viewBox="0 0 512 512" style="enable-background:new 0 0 512 512;" xml:space="preserve" width="512px" height="512px"><g><g>
	<g>
		<path d="M203.895,352.71c-15.186,0-27.541,12.354-27.541,27.54c0,15.186,12.355,27.54,27.541,27.54    c15.186,0,27.54-12.354,27.54-27.54C231.435,365.064,219.081,352.71,203.895,352.71z M203.895,392.79    c-6.915,0-12.541-5.625-12.541-12.54c0-6.915,5.626-12.54,12.541-12.54s12.54,5.625,12.54,12.54    C216.435,387.165,210.81,392.79,203.895,392.79z" data-original="#000000" class="active-path" data-old_color="#000000" fill="#380B4C"/>
	</g>
</g><g>
	<g>
		<path d="M304.097,120.242c-12.976,0-23.532,10.557-23.532,23.533c0,12.976,10.557,23.532,23.532,23.532    c12.976,0,23.532-10.557,23.532-23.532C327.629,130.798,317.073,120.242,304.097,120.242z M304.097,152.307    c-4.705,0-8.532-3.828-8.532-8.532c0-4.705,3.828-8.533,8.532-8.533c4.705,0,8.532,3.828,8.532,8.533    C312.629,148.479,308.802,152.307,304.097,152.307z" data-original="#000000" class="active-path" data-old_color="#000000" fill="#380B4C"/>
	</g>
</g><g>
	<g>
		<path d="M407.533,325.882c-1.072-4.001-5.186-6.377-9.186-5.302c-4.001,1.073-6.374,5.187-5.301,9.188    c2.271,8.468-0.163,17.573-6.354,23.764c-4.64,4.64-10.808,7.194-17.37,7.194c-6.561,0-12.73-2.555-17.37-7.195    c-4.64-4.639-7.195-10.808-7.195-17.369s2.555-12.73,7.195-17.369c6.182-6.184,15.277-8.62,23.736-6.361    c4.004,1.066,8.113-1.31,9.181-5.312s-1.309-8.112-5.311-9.181c-13.614-3.636-28.256,0.291-38.213,10.246    c-7.473,7.473-11.588,17.408-11.588,27.977c0,10.569,4.115,20.504,11.588,27.976c7.473,7.474,17.408,11.589,27.977,11.589    c10.569,0,20.504-4.115,27.976-11.588C407.267,354.17,411.189,339.512,407.533,325.882z" data-original="#000000" class="active-path" data-old_color="#000000" fill="#380B4C"/>
	</g>
</g><g>
	<g>
		<path d="M437.019,74.98C388.667,26.629,324.38,0,256,0S123.333,26.629,74.981,74.98C26.629,123.333,0,187.62,0,256    s26.629,132.668,74.981,181.02C123.333,485.372,187.62,512,256,512s132.667-26.629,181.019-74.98S512,324.38,512,256    S485.371,123.333,437.019,74.98z M426.413,426.413C380.894,471.932,320.374,497,256,497s-124.894-25.068-170.413-70.587    C40.068,380.894,15,320.374,15,256S40.068,131.106,85.587,85.587C131.106,40.068,191.626,15,256,15s124.894,25.068,170.413,70.587    C471.932,131.106,497,191.626,497,256S471.932,380.894,426.413,426.413z" data-original="#000000" class="active-path" data-old_color="#000000" fill="#380B4C"/>
	</g>
</g><g>
	<g>
		<path d="M223.936,256.517h-8.532v-8.533c0-4.142-3.358-7.5-7.5-7.5c-4.142,0-7.5,3.358-7.5,7.5v8.533h-8.532    c-4.142,0-7.5,3.357-7.5,7.5s3.358,7.5,7.5,7.5h8.532v8.532c0,4.143,3.358,7.5,7.5,7.5c4.142,0,7.5-3.357,7.5-7.5v-8.532h8.532    c4.142,0,7.5-3.357,7.5-7.5S228.078,256.517,223.936,256.517z" data-original="#000000" class="active-path" data-old_color="#000000" fill="#380B4C"/>
	</g>
</g><g>
	<g>
		<path d="M429.642,226.649l-2.713-2.713l2.713-2.713c2.929-2.929,2.929-7.678,0-10.606c-2.929-2.929-7.678-2.929-10.606,0    l-2.713,2.713l-2.713-2.713c-2.929-2.929-7.678-2.929-10.606,0c-2.929,2.929-2.929,7.678,0,10.606l2.713,2.713l-2.713,2.713    c-2.929,2.929-2.929,7.678,0,10.606c1.464,1.464,3.384,2.197,5.303,2.197s3.839-0.732,5.303-2.197l2.713-2.713l2.713,2.713    c1.464,1.464,3.384,2.197,5.303,2.197s3.839-0.732,5.303-2.197C432.571,234.326,432.571,229.577,429.642,226.649z" data-original="#000000" class="active-path" data-old_color="#000000" fill="#380B4C"/>
	</g>
</g><g>
	<g>
		<path d="M95.677,256.517c-12.976,0-23.532,10.557-23.532,23.532c0,12.975,10.557,23.532,23.532,23.532    s23.532-10.557,23.532-23.532C119.209,267.074,108.653,256.517,95.677,256.517z M95.677,288.581c-4.705,0-8.532-3.827-8.532-8.532    s3.828-8.532,8.532-8.532s8.532,3.827,8.532,8.532S100.382,288.581,95.677,288.581z" data-original="#000000" class="active-path" data-old_color="#000000" fill="#380B4C"/>
	</g>
</g><g>
	<g>
		<path d="M197.881,136.46c-1.073-4.001-5.186-6.375-9.187-5.301c-4.001,1.073-6.374,5.186-5.301,9.187    c2.641,9.849-0.19,20.44-7.39,27.64c-11.141,11.141-29.268,11.14-40.408,0c-11.14-11.141-11.14-29.268,0-40.408    c7.191-7.19,17.77-10.025,27.608-7.398c4.003,1.07,8.112-1.31,9.181-5.311c1.069-4.002-1.309-8.113-5.311-9.181    c-14.995-4.005-31.12,0.319-42.084,11.284c-16.989,16.989-16.989,44.632,0,61.621c8.494,8.494,19.652,12.742,30.81,12.742    s22.316-4.248,30.811-12.742C197.587,167.614,201.906,151.47,197.881,136.46z" data-original="#000000" class="active-path" data-old_color="#000000" fill="#380B4C"/>
	</g>
</g></g> </svg>
