<?xml version="1.0"?>
<svg xmlns="http://www.w3.org/2000/svg" height="512px" viewBox="0 0 64 64" width="512px"><g><g id="outline"><path d="m59.5 46.669a5.3 5.3 0 0 0 2.5-4.669 7.11 7.11 0 0 0 -2.341-5.626 28.323 28.323 0 0 0 .341-4.374 27.79 27.79 0 0 0 -4.655-15.452 2.934 2.934 0 0 0 .685-2.887 8.3 8.3 0 0 0 -2.323-3.368c-.609-.609-6.016-5.88-8.4-3.5a2.49 2.49 0 0 0 -.324.4 28 28 0 0 0 -12.983-3.193 28.617 28.617 0 0 0 -20.966 9.434 3.188 3.188 0 0 0 -1.689-.653 5.99 5.99 0 0 0 -5.177 2.664c-1.774 2.662.5 5.943 1.722 7.7a30.348 30.348 0 0 0 -1.879 7.6c-1.011 2.155-2.011 4.555-2.011 6.255 0 1.939.572 4.324 2.177 5.2a2.786 2.786 0 0 0 2.275.166 27.5 27.5 0 0 0 36.772 15.291c.551.578 1.554 1.018 3.351.406a16.054 16.054 0 0 0 4.011-2.253 15.492 15.492 0 0 0 3.344-3.075c1.249-1.687.924-2.852.431-3.532a2.19 2.19 0 0 0 -.155-.191c.408-.573.825-1.208 1.192-1.78a5.159 5.159 0 0 0 4.102-.563zm-5.342-1.208-.137.214a33.934 33.934 0 0 1 -2.031 2.948 1 1 0 0 0 .446 1.586.627.627 0 0 1 .306.168c.2.281-.27.966-.42 1.169a13.8 13.8 0 0 1 -2.908 2.644 14.44 14.44 0 0 1 -3.484 1.98c-.652.225-1.158.25-1.287.073a.614.614 0 0 1 -.049-.139 1 1 0 0 0 -1.4-.635 25.761 25.761 0 0 1 -11.194 2.531c-10.814 0-20.258-6.806-24.06-17.34a1 1 0 0 0 -.94-.66 1.012 1.012 0 0 0 -.539.157c-.568.364-1.013.461-1.324.292-.648-.355-1.137-1.838-1.137-3.449 0-1.38 1.087-3.842 1.9-5.573a1 1 0 0 0 .1-.384 28.343 28.343 0 0 1 1.812-7.325l.135-.394a1 1 0 0 0 -.117-.884l-.3-.429c-.951-1.372-2.721-3.926-1.7-5.456a3.993 3.993 0 0 1 3.321-1.784.981.981 0 0 1 .924.614 1 1 0 0 0 1.693.253 26.616 26.616 0 0 1 20.232-9.638 25.974 25.974 0 0 1 13.024 3.5 1 1 0 0 0 1.5-.772.835.835 0 0 1 .2-.519c.456-.27 2.923.844 5.576 3.5a6.8 6.8 0 0 1 1.812 2.5.966.966 0 0 1 -.314 1.076.575.575 0 0 1 -.193.125 1 1 0 0 0 -.432 1.505 25.815 25.815 0 0 1 4.827 15.085 26.3 26.3 0 0 1 -.409 4.614 1 1 0 0 0 .4.989 5.076 5.076 0 0 1 2.009 4.397 3.27 3.27 0 0 1 -1.538 2.959 3.122 3.122 0 0 1 -3 .154 1 1 0 0 0 -1.304.348z" data-original="#000000" class="active-path" fill="#000000"/><path d="m10.707 20.293c-1.335-1.335-1.376-2.01-1.357-2.186a.307.307 0 0 1 .134-.232l-.484-.875-.447-.895a2.3 2.3 0 0 0 -1.174 1.66c-.188 1.158.456 2.484 1.914 3.942z" data-original="#000000" class="active-path" fill="#000000"/><path d="m56.293 42.293 1.414 1.414a2.446 2.446 0 0 0 .746-2.085c-.207-1.683-2.084-3.223-3.207-4a15.627 15.627 0 0 0 .754-4.622h-2a12.442 12.442 0 0 1 -.9 4.554 1 1 0 0 0 .38 1.3c1.138.683 2.872 2.111 2.983 3.009a.46.46 0 0 1 -.17.43z" data-original="#000000" class="active-path" fill="#000000"/><path d="m23 33a9 9 0 1 0 -9-9 9.01 9.01 0 0 0 9 9zm0-16a7 7 0 1 1 -7 7 7.008 7.008 0 0 1 7-7z" data-original="#000000" class="active-path" fill="#000000"/><path d="m12.713 39.713c-1.174 1.174-.87 3.318.693 4.881a4.463 4.463 0 0 0 3.057 1.406 2.52 2.52 0 0 0 1.824-.713c1.174-1.174.87-3.318-.693-4.881s-3.708-1.867-4.881-.693zm4.16 4.16c-.271.271-1.227.131-2.053-.693s-.964-1.783-.693-2.053a.574.574 0 0 1 .407-.127 2.532 2.532 0 0 1 1.646.818c.825.828.964 1.782.693 2.055z" data-original="#000000" class="active-path" fill="#000000"/><path d="m34 47a5 5 0 1 0 -5 5 5.006 5.006 0 0 0 5-5zm-8 0a3 3 0 1 1 3 3 3 3 0 0 1 -3-3z" data-original="#000000" class="active-path" fill="#000000"/><path d="m44.406 45.406c-1.563 1.563-1.867 3.707-.693 4.881a2.521 2.521 0 0 0 1.824.713 4.463 4.463 0 0 0 3.057-1.406c1.563-1.563 1.867-3.707.693-4.881s-3.317-.87-4.881.693zm2.774 2.774c-.825.825-1.782.965-2.053.693s-.127-1.227.693-2.053a2.534 2.534 0 0 1 1.646-.82.574.574 0 0 1 .407.125c.271.275.132 1.229-.693 2.055z" data-original="#000000" class="active-path" fill="#000000"/><path d="m48.889 23a3.1 3.1 0 0 0 2.248-.858c1.55-1.551.947-4.582-1.372-6.9s-5.352-2.922-6.9-1.372-.947 4.582 1.372 6.9a6.938 6.938 0 0 0 4.652 2.23zm-4.612-7.718a1.163 1.163 0 0 1 .838-.282 5.087 5.087 0 0 1 3.236 1.651c1.558 1.558 2.009 3.435 1.372 4.074s-2.516.185-4.074-1.372-2.009-3.438-1.372-4.076z" data-original="#000000" class="active-path" fill="#000000"/><path d="m38.7 11.037.608-1.9a24.328 24.328 0 0 0 -18.783 1.785l.958 1.756a22.307 22.307 0 0 1 17.217-1.641z" data-original="#000000" class="active-path" fill="#000000"/><path d="m9.132 24.7a24.145 24.145 0 0 0 -.307 13.56l1.931-.52a22.151 22.151 0 0 1 .281-12.44z" data-original="#000000" class="active-path" fill="#000000"/><path d="m26.26 53.244-.52 1.932a24.09 24.09 0 0 0 17.739-2.094l-.958-1.756a22.292 22.292 0 0 1 -16.261 1.918z" data-original="#000000" class="active-path" fill="#000000"/><path d="m16.882 12.5h2.236v2h-2.236z" transform="matrix(.894 -.447 .447 .894 -4.137 9.475)" data-original="#000000" class="active-path" fill="#000000"/><path d="m21 51.382h2v2.236h-2z" transform="matrix(.447 -.894 .894 .447 -34.796 48.699)" data-original="#000000" class="active-path" fill="#000000"/><path d="m54 29h2v2h-2z" data-original="#000000" class="active-path" fill="#000000"/><path d="m52 41h2v2h-2z" data-original="#000000" class="active-path" fill="#000000"/><path d="m29.36 32.231 1.28 1.538a12.9 12.9 0 0 0 4.321-13.043l-1.923.546a10.9 10.9 0 0 1 -3.678 10.959z" data-original="#000000" class="active-path" fill="#000000"/><path d="m32.5 41.868.992-1.736c-4.059-2.32-7.231-1.262-9.176.036a11.016 11.016 0 0 0 -3.184 3.332l1.735.994c.145-.244 3.608-6.069 9.633-2.626z" data-original="#000000" class="active-path" fill="#000000"/><path d="m52.375 23.219c-4.238 3.388-9.449-1.708-9.669-1.927l-1.413 1.415c1.571 1.57 4.658 3.653 7.9 3.653a6.943 6.943 0 0 0 4.437-1.579z" data-original="#000000" class="active-path" fill="#000000"/><path d="m40.1 45.553 1.79.894a6.438 6.438 0 0 1 7.793-3.5l.628-1.9a8.385 8.385 0 0 0 -10.211 4.506z" data-original="#000000" class="active-path" fill="#000000"/><path d="m40.379 30.5h4.243v2h-4.243z" transform="matrix(.707 -.707 .707 .707 -9.826 39.278)" data-original="#000000" class="active-path" fill="#000000"/><path d="m41.379 34.5h4.243v2h-4.243z" transform="matrix(.707 -.707 .707 .707 -12.361 41.157)" data-original="#000000" class="active-path" fill="#000000"/><path d="m13 32.586h2v2.828h-2z" transform="matrix(.707 -.707 .707 .707 -19.941 19.858)" data-original="#000000" class="active-path" fill="#000000"/><path d="m32.586 13h2.828v2h-2.828z" transform="matrix(.707 -.707 .707 .707 .059 28.142)" data-original="#000000" class="active-path" fill="#000000"/><path d="m35.586 14h2.828v2h-2.828z" transform="matrix(.707 -.707 .707 .707 .23 30.556)" data-original="#000000" class="active-path" fill="#000000"/></g></g> </svg>
