<?xml version="1.0"?>
<svg xmlns="http://www.w3.org/2000/svg" xmlns:xlink="http://www.w3.org/1999/xlink" version="1.1" id="Capa_1" x="0px" y="0px" viewBox="0 0 512.057 512.057" style="enable-background:new 0 0 512.057 512.057;" xml:space="preserve" width="512px" height="512px"><g><g>
	<path d="M465.979,318.337c0-20.032-16.297-36.329-36.328-36.329c-20.032,0-36.329,16.297-36.329,36.329   c0,20.031,16.297,36.328,36.329,36.328C449.682,354.665,465.979,338.368,465.979,318.337z M408.322,318.337   c0-11.761,9.568-21.329,21.329-21.329s21.328,9.568,21.328,21.329s-9.567,21.328-21.328,21.328S408.322,330.098,408.322,318.337z" data-original="#000000" class="active-path" data-old_color="#000000" fill="#380B4C"/>
	<path d="M295.616,257.753c25.964,0,47.087-21.123,47.087-47.087s-21.123-47.087-47.087-47.087s-47.087,21.123-47.087,47.087   S269.653,257.753,295.616,257.753z M295.616,178.579c17.692,0,32.087,14.395,32.087,32.087s-14.395,32.087-32.087,32.087   s-32.087-14.395-32.087-32.087S277.924,178.579,295.616,178.579z" data-original="#000000" class="active-path" data-old_color="#000000" fill="#380B4C"/>
	<path d="M162.47,143.062c23.707,0,42.994-19.287,42.994-42.994s-19.287-42.994-42.994-42.994s-42.994,19.287-42.994,42.994   S138.763,143.062,162.47,143.062z M162.47,72.073c15.436,0,27.994,12.559,27.994,27.994s-12.559,27.994-27.994,27.994   s-27.994-12.559-27.994-27.994S147.034,72.073,162.47,72.073z" data-original="#000000" class="active-path" data-old_color="#000000" fill="#380B4C"/>
	<path d="M174.91,419.591c29.57,0,56.162-16.452,69.398-42.936c1.852-3.705,0.35-8.21-3.356-10.062   c-3.703-1.852-8.21-0.35-10.062,3.356c-10.679,21.367-32.13,34.641-55.98,34.641c-34.493,0-62.555-28.063-62.555-62.556   s28.062-62.556,62.555-62.556c34.008,0,62.06,27.666,62.532,61.672c0.057,4.106,3.403,7.396,7.497,7.396   c4.185,0,7.559-3.422,7.501-7.604c-0.588-42.379-35.058-76.463-77.53-76.463c-42.764,0-77.555,34.791-77.555,77.556   S132.147,419.591,174.91,419.591z" data-original="#000000" class="active-path" data-old_color="#000000" fill="#380B4C"/>
	<path d="M256.03,0C171.925,0,93.132,41.38,45.26,110.69c-2.354,3.408-1.5,8.08,1.908,10.434c3.411,2.354,8.08,1.499,10.434-1.908   c65.836-95.32,189.148-129.59,293.431-84.684c-42.545,37.691-15.909,108.529,41.143,108.529c23.574,0,44.639-13.262,55.118-33.504   c31.174,40.619,49.736,91.4,49.736,146.443c0,132.888-108.112,241-241,241C73.151,497-41.011,301.361,43.077,143.093   c1.943-3.657,0.554-8.198-3.104-10.142s-8.198-0.553-10.142,3.104C-20.555,230.889-8.061,353.947,75.01,437.02   c100.046,100.044,261.981,100.056,362.039,0c48.352-48.353,74.98-112.64,74.98-181.02C512.03,114.488,397.287,0,256.03,0z    M392.176,128.062c-25.953,0-47.067-21.114-47.067-47.067c0-15.887,8.007-30.601,21.133-39.278   c26.752,13.815,50.593,32.5,70.361,54.866C430.058,115.302,412.322,128.062,392.176,128.062z" data-original="#000000" class="active-path" data-old_color="#000000" fill="#380B4C"/>
</g></g> </svg>
