<?xml version="1.0"?>
<svg xmlns="http://www.w3.org/2000/svg" height="512px" viewBox="0 0 64 64" width="512px" class=""><g><g id="outline"><path d="m32 26a7 7 0 1 0 7 7 7.008 7.008 0 0 0 -7-7zm0 12a5 5 0 0 1 -4.9-6h2.9a1 1 0 0 1 1 1 3 3 0 0 0 3 3h1.974a4.977 4.977 0 0 1 -3.974 2zm4.9-4h-2.9a1 1 0 0 1 -1-1 3 3 0 0 0 -3-3h-1.974a4.989 4.989 0 0 1 8.874 4z" data-original="#000000" class="active-path" data-old_color="#000000" fill="#380B4C"/><path d="m32 18c-13.233 0-24 6.729-24 15a9.782 9.782 0 0 0 .24 2.117 3.986 3.986 0 0 0 4.2 6.6c4.46 3.902 11.777 6.283 19.56 6.283 13.233 0 24-6.729 24-15s-10.767-15-24-15zm-21 22a2 2 0 1 1 2-2 2 2 0 0 1 -2 2zm21 6c-7.124 0-13.783-2.078-17.9-5.5a3.963 3.963 0 0 0 .9-2.5 4 4 0 0 0 -4-4 3.949 3.949 0 0 0 -.909.114 7.747 7.747 0 0 1 -.091-1.114c0-7.168 9.869-13 22-13s22 5.832 22 13-9.869 13-22 13z" data-original="#000000" class="active-path" data-old_color="#000000" fill="#380B4C"/><path d="m32 14c-1.007 0-2.013.042-3.011.105 0-.036.011-.069.011-.105a4 4 0 0 0 -8 0 3.942 3.942 0 0 0 .225 1.267c-11.561 2.797-19.225 9.787-19.225 17.733 0 10.477 13.458 19 30 19a41.144 41.144 0 0 0 19.725-4.715 3.989 3.989 0 1 0 6.275-4.906 13.787 13.787 0 0 0 4-9.379c0-10.477-13.458-19-30-19zm-7-2a2 2 0 1 1 -2 2 2 2 0 0 1 2-2zm30 35a2 2 0 1 1 2-2 2 2 0 0 1 -2 2zm1.333-5.754a3.936 3.936 0 0 0 -1.333-.246 4 4 0 0 0 -4 4 3.754 3.754 0 0 0 .039.384 38.941 38.941 0 0 1 -19.039 4.616c-15.439 0-28-7.626-28-17 0-7.16 7.379-13.5 18.431-15.96a3.954 3.954 0 0 0 5.932-.892c1.197-.095 2.418-.148 3.637-.148 15.439 0 28 7.626 28 17a11.978 11.978 0 0 1 -3.667 8.246z" data-original="#000000" class="active-path" data-old_color="#000000" fill="#380B4C"/><path d="m48 28a2.981 2.981 0 0 0 -4.067-2.8l.031-.048a22.5 22.5 0 0 0 -11.964-3.152c-9.374 0-17 4.935-17 11s7.626 11 17 11 17-4.935 17-11a7.732 7.732 0 0 0 -1.178-4.019 2.961 2.961 0 0 0 .178-.981zm-3-1a1 1 0 1 1 -1 1 1 1 0 0 1 1-1zm-13 15c-8.271 0-15-4.037-15-9s6.729-9 15-9a20.83 20.83 0 0 1 10.388 2.554 2.958 2.958 0 0 0 -.388 1.446 3 3 0 0 0 3 3 2.961 2.961 0 0 0 1.441-.385 5.591 5.591 0 0 1 .559 2.385c0 4.963-6.729 9-15 9z" data-original="#000000" class="active-path" data-old_color="#000000" fill="#380B4C"/><path d="m57.374 4.906a5.991 5.991 0 0 0 -10.374 4.094c0 .16.012.317.024.473-1.46 1.078-2.6 2.3-1.949 3.906a1.7 1.7 0 0 0 1.01.958 2.406 2.406 0 0 0 .938.166 8.682 8.682 0 0 0 2.611-.539 5.994 5.994 0 0 0 9.338-4.417c2.306-1.332 3.536-2.5 2.954-3.926-.433-1.054-1.779-1.266-4.552-.715zm-10.468 7.579c.018-.218.264-.526.687-.9a6.108 6.108 0 0 0 .429.762 3.748 3.748 0 0 1 -1.116.138zm6.094.515a4.01 4.01 0 0 1 -.74-.075c.662-.294 1.372-.623 2.187-1.03l.531-.265c.538-.269 1.052-.526 1.545-.776a3.989 3.989 0 0 1 -3.523 2.146zm1.084-3.16-.531.265c-1.442.721-2.588 1.226-3.5 1.581a3.989 3.989 0 1 1 6.881-3.3c-.934.498-1.953 1.006-2.85 1.454zm4.677-2.5a5.85 5.85 0 0 0 -.212-.614 9.193 9.193 0 0 1 1.219-.126 6.943 6.943 0 0 1 -1.007.74z" data-original="#000000" class="active-path" data-old_color="#000000" fill="#380B4C"/><path d="m25 54h2v2h-2z" data-original="#000000" class="active-path" data-old_color="#000000" fill="#380B4C"/><path d="m25 58h2v2h-2z" data-original="#000000" class="active-path" data-old_color="#000000" fill="#380B4C"/><path d="m23 56h2v2h-2z" data-original="#000000" class="active-path" data-old_color="#000000" fill="#380B4C"/><path d="m27 56h2v2h-2z" data-original="#000000" class="active-path" data-old_color="#000000" fill="#380B4C"/><path d="m37 6h2v2h-2z" data-original="#000000" class="active-path" data-old_color="#000000" fill="#380B4C"/><path d="m37 10h2v2h-2z" data-original="#000000" class="active-path" data-old_color="#000000" fill="#380B4C"/><path d="m35 8h2v2h-2z" data-original="#000000" class="active-path" data-old_color="#000000" fill="#380B4C"/><path d="m39 8h2v2h-2z" data-original="#000000" class="active-path" data-old_color="#000000" fill="#380B4C"/><path d="m10 15a1 1 0 0 0 2 0 3 3 0 0 1 3-3 1 1 0 0 0 0-2 3 3 0 0 1 -3-3 1 1 0 0 0 -2 0 3 3 0 0 1 -3 3 1 1 0 0 0 0 2 3 3 0 0 1 3 3zm1-5.031a4.988 4.988 0 0 0 1.031 1.031 4.988 4.988 0 0 0 -1.031 1.031 4.988 4.988 0 0 0 -1.031-1.031 4.988 4.988 0 0 0 1.031-1.031z" data-original="#000000" class="active-path" data-old_color="#000000" fill="#380B4C"/><path d="m57 54a3 3 0 0 1 -3-3 1 1 0 0 0 -2 0 3 3 0 0 1 -3 3 1 1 0 0 0 0 2 3 3 0 0 1 3 3 1 1 0 0 0 2 0 3 3 0 0 1 3-3 1 1 0 0 0 0-2zm-4 2.031a4.988 4.988 0 0 0 -1.031-1.031 4.988 4.988 0 0 0 1.031-1.031 4.988 4.988 0 0 0 1.031 1.031 4.988 4.988 0 0 0 -1.031 1.031z" data-original="#000000" class="active-path" data-old_color="#000000" fill="#380B4C"/><path d="m7 48a5 5 0 1 0 5 5 5.006 5.006 0 0 0 -5-5zm0 8a3 3 0 1 1 3-3 3 3 0 0 1 -3 3z" data-original="#000000" class="active-path" data-old_color="#000000" fill="#380B4C"/><path d="m19 31h2v2h-2z" data-original="#000000" class="active-path" data-old_color="#000000" fill="#380B4C"/><path d="m41 34h2v2h-2z" data-original="#000000" class="active-path" data-old_color="#000000" fill="#380B4C"/><path d="m50 29h2v2h-2z" data-original="#000000" class="active-path" data-old_color="#000000" fill="#380B4C"/><path d="m14 26h2v2h-2z" data-original="#000000" class="active-path" data-old_color="#000000" fill="#380B4C"/><path d="m22 36h2v2h-2z" data-original="#000000" class="active-path" data-old_color="#000000" fill="#380B4C"/><path d="m5 17h2v2h-2z" data-original="#000000" class="active-path" data-old_color="#000000" fill="#380B4C"/><path d="m19 7h2v2h-2z" data-original="#000000" class="active-path" data-old_color="#000000" fill="#380B4C"/><path d="m57 17h2v2h-2z" data-original="#000000" class="active-path" data-old_color="#000000" fill="#380B4C"/><path d="m42 53h2v2h-2z" data-original="#000000" class="active-path" data-old_color="#000000" fill="#380B4C"/><path d="m16 52h2v2h-2z" data-original="#000000" class="active-path" data-old_color="#000000" fill="#380B4C"/></g></g> </svg>
