<?xml version="1.0" encoding="iso-8859-1"?>
<!-- Generator: Adobe Illustrator 19.0.0, SVG Export Plug-In . SVG Version: 6.00 Build 0)  -->
<svg version="1.1" id="Capa_1" xmlns="http://www.w3.org/2000/svg" xmlns:xlink="http://www.w3.org/1999/xlink" x="0px" y="0px"
	 viewBox="0 0 490 490" style="enable-background:new 0 0 490 490;" xml:space="preserve">
<g>
	<path d="M398.08,115.327h-84.256c1.323-5.403,2.04-11.042,2.04-16.847c0-39.074-31.789-70.864-70.864-70.864
		c-39.075,0-70.869,31.789-70.869,70.864c0,5.805,0.717,11.444,2.04,16.847H91.919L0,462.384h490L398.08,115.327z M245,47.782
		c27.953,0,50.698,22.745,50.698,50.698c0,27.954-22.745,50.699-50.698,50.699c-27.959,0-50.704-22.745-50.704-50.699
		C194.296,70.527,217.041,47.782,245,47.782z M107.437,135.492h77.157c12.48,20.291,34.887,33.852,60.405,33.852
		c25.518,0,47.923-13.562,60.401-33.852h77.161L463.8,442.219H26.201L107.437,135.492z"/>
	<polygon points="235.331,237.559 213.033,237.559 165.462,288.258 165.462,237.559 147.919,237.559 147.919,341.479 
		165.462,341.479 165.462,312.341 180.622,295.989 215.114,341.479 235.924,341.479 193.555,283.056 	"/>
	<path d="M324.534,319.478c-6.642,4.259-14.894,6.395-24.754,6.395c-9.861,0-18.257-3.346-25.189-10.036
		c-6.945-6.69-10.416-15.558-10.416-26.61c0-11.053,3.568-19.975,10.707-26.762c7.139-6.788,15.958-10.187,26.46-10.187
		c5.456,0,10.235,0.672,14.349,2.007c4.114,1.337,8.203,3.745,12.268,7.211l9.365-13.381c-9.909-8.717-22.346-13.079-37.312-13.079
		s-27.73,5.154-38.28,15.456c-10.563,10.313-15.837,23.192-15.837,38.655c0,15.462,5.177,28.249,15.534,38.358
		c10.356,10.108,23.217,15.165,38.582,15.165c18.232,0,32.254-5.402,42.067-16.206v-35.533h-17.543V319.478z"/>
</g>
<g>
</g>
<g>
</g>
<g>
</g>
<g>
</g>
<g>
</g>
<g>
</g>
<g>
</g>
<g>
</g>
<g>
</g>
<g>
</g>
<g>
</g>
<g>
</g>
<g>
</g>
<g>
</g>
<g>
</g>
</svg>
