<?xml version="1.0"?>
<svg xmlns="http://www.w3.org/2000/svg" height="512px" viewBox="0 0 480 480.00048" width="512px"><g><path d="m472 32c-13.25-.015625-23.984375-10.75-24-24 0-4.417969-3.582031-8-8-8s-8 3.582031-8 8c-.015625 13.25-10.75 23.984375-24 24-4.417969 0-8 3.582031-8 8s3.582031 8 8 8c13.25.015625 23.984375 10.75 24 24 0 4.417969 3.582031 8 8 8s8-3.582031 8-8c.015625-13.25 10.75-23.984375 24-24 4.417969 0 8-3.582031 8-8s-3.582031-8-8-8zm-32 16.246094c-2.332031-3.132813-5.113281-5.914063-8.246094-8.246094 3.132813-2.332031 5.914063-5.113281 8.246094-8.246094 2.332031 3.132813 5.113281 5.914063 8.246094 8.246094-3.132813 2.332031-5.914063 5.113281-8.246094 8.246094zm0 0" data-original="#000000" class="active-path" data-old_color="#000000" fill="#380B4C"/><path d="m200 144c13.25.015625 23.984375 10.75 24 24 0 4.417969 3.582031 8 8 8s8-3.582031 8-8c.015625-13.25 10.75-23.984375 24-24 4.417969 0 8-3.582031 8-8s-3.582031-8-8-8c-13.25-.015625-23.984375-10.75-24-24 0-4.417969-3.582031-8-8-8s-8 3.582031-8 8c-.015625 13.25-10.75 23.984375-24 24-4.417969 0-8 3.582031-8 8s3.582031 8 8 8zm32-16.246094c2.332031 3.132813 5.113281 5.914063 8.246094 8.246094-3.132813 2.332031-5.914063 5.113281-8.246094 8.246094-2.332031-3.132813-5.113281-5.914063-8.246094-8.246094 3.132813-2.332031 5.914063-5.113281 8.246094-8.246094zm0 0" data-original="#000000" class="active-path" data-old_color="#000000" fill="#380B4C"/><path d="m387.429688 287.4375c-20.566407-57.5625-75.265626-95.835938-136.390626-95.433594-61.121093.402344-115.3125 39.390625-135.121093 97.21875-39.316407 8.507813-83.917969 24.039063-83.917969 50.777344 0 27.386719 46.535156 43.039062 87.367188 51.519531 22.523437 53.375 74.699218 88.183594 132.632812 88.480469 57.398438.148438 109.332031-34.003906 131.941406-86.761719 37.746094-7.089843 96.058594-22.9375 96.058594-53.238281 0-28.304688-49.285156-44.117188-92.570312-52.5625zm-262.914063 38.546875c.6875-9.339844 2.402344-18.570313 5.109375-27.535156v-.007813c17.867188-58.621094 74.800781-96.335937 135.75-89.921875 60.945312 6.414063 108.78125 55.152344 114.050781 116.210938v.011719c.328125 3.714843.574219 7.457031.574219 11.257812-.015625 4.351562-.277344 8.695312-.785156 13.019531-1.238282.167969-2.457032.339844-3.730469.503907-2.023437.257812-4.066406.511718-6.171875.757812-2.40625.28125-4.886719.546875-7.398438.808594-2.160156.222656-4.324218.449218-6.554687.660156-2.609375.246094-5.300781.472656-8.003906.699219-2.28125.191406-4.554688.386719-6.898438.5625-2.84375.214843-5.769531.40625-8.691406.597656-2.335937.152344-4.644531.3125-7.027344.453125-3.074219.179688-6.222656.332031-9.371093.488281-2.363282.117188-4.695313.242188-7.097657.34375-3.324219.144531-6.71875.253907-10.105469.371094-2.308593.078125-4.585937.171875-6.917968.234375-3.847656.109375-7.757813.179688-11.667969.253906-1.929687.035156-3.832031.089844-5.773437.117188-5.890626.082031-11.828126.125-17.804688.128906-6.566406 0-13.0625-.050781-19.488281-.148438-2.082031-.03125-4.105469-.09375-6.167969-.136718-4.304688-.085938-8.609375-.167969-12.828125-.296875-2.425781-.074219-4.777344-.179688-7.171875-.269531-3.753906-.136719-7.523438-.269532-11.1875-.441407-2.507812-.117187-4.925781-.261719-7.386719-.394531-3.425781-.183594-6.859375-.367188-10.191406-.582031-2.480469-.15625-4.867187-.339844-7.289063-.515625-3.167968-.230469-6.335937-.460938-9.398437-.714844-2.378906-.199219-4.671875-.417969-6.984375-.632812-2.929688-.273438-5.839844-.550782-8.652344-.847657-2.25-.238281-4.414062-.496093-6.582031-.75-2.671875-.3125-5.3125-.632812-7.855469-.96875-2.085937-.277343-4.097656-.566406-6.089844-.855469-1.394531-.207031-2.722656-.421874-4.070312-.632812-.425781-3.925781-.644531-7.867188-.65625-11.8125 0-3.378906.257812-6.699219.515625-10.015625zm127.484375 138.015625c-47.625-.226562-91.234375-26.722656-113.386719-68.882812 4.675781.777343 9.460938 1.496093 14.3125 2.175781 1.453125.203125 2.945313.375 4.414063.570312 3.503906.464844 7.027344.914063 10.609375 1.328125 1.886719.214844 3.800781.40625 5.707031.609375 3.253906.34375 6.519531.675781 9.832031.980469 2.050781.1875 4.117188.359375 6.1875.53125 3.269531.273438 6.5625.523438 9.875.75 2.105469.148438 4.210938.289062 6.335938.417969 3.402343.207031 6.832031.390625 10.285156.550781 2.058594.097656 4.109375.203125 6.183594.285156 3.757812.148438 7.542969.257813 11.34375.359375 1.796875.046875 3.578125.113281 5.382812.148438 5.601563.109375 11.242188.167969 16.917969.175781 8.761719 0 17.4375-.171875 26.039062-.4375 1.316407-.042969 2.640626-.070312 3.953126-.117188 8.183593-.292968 16.253906-.707031 24.21875-1.246093 1.496093-.097657 2.980468-.203125 4.46875-.3125 7.972656-.574219 15.828124-1.25 23.503906-2.0625 1.03125-.109375 2.03125-.234375 3.058594-.347657 7.636718-.84375 15.121093-1.789062 22.382812-2.859374.363281-.050782.757812-.085938 1.117188-.140626-22.144532 41.679688-65.546876 67.671876-112.742188 67.523438zm124.925781-85.726562c-39.953125 6.714843-80.410156 9.96875-120.925781 9.726562-17.707031 0-35.0625-.550781-51.816406-1.628906-26.035156-1.550782-51.941406-4.789063-77.554688-9.6875-54.316406-10.753906-78.628906-26.171875-78.628906-36.683594 0-9.359375 19.617188-22.832031 63.050781-33.273438-.082031.410157-.121093.839844-.199219 1.25-.21875 1.140626-.359374 2.316407-.550781 3.46875-.398437 2.378907-.851562 4.734376-1.140625 7.164063-26.296875 5.207031-37.160156 11.542969-37.160156 21.390625 0 10.660156 12.769531 17.226562 44.078125 22.671875 46.324219 6.789063 93.109375 9.90625 139.921875 9.328125 43.976562.382812 87.925781-2.277344 131.535156-7.964844 46.109375-6.921875 52.464844-15.640625 52.464844-24.035156 0-10.714844-13.226562-17.472656-45.3125-22.890625-.300781-2.300781-.78125-4.554687-1.191406-6.828125-.234375-1.3125-.414063-2.636719-.6875-3.941406-.105469-.503906-.15625-1.027344-.265625-1.53125 48.992187 10.621094 71.457031 25.335937 71.457031 35.191406 0 10.945312-27.25 27.59375-87.074219 38.273438zm-268.574219-33.402344c-5.726562-1.125-11.34375-2.753906-16.78125-4.871094 5.339844-2.082031 10.851563-3.6875 16.46875-4.804688 0 .273438-.039062.53125-.039062.804688 0 2.863281.128906 5.800781.351562 8.871094zm287.585938-11.277344c8.367188 1.292969 16.582031 3.441406 24.511719 6.410156-8.058594 3.011719-16.410157 5.183594-24.914063 6.480469.304688-3.632813.464844-7.097656.464844-10.484375 0-.769531-.046875-1.613281-.0625-2.40625zm0 0" data-original="#000000" class="active-path" data-old_color="#000000" fill="#380B4C"/><path d="m400 104c0-22.089844-17.910156-40-40-40s-40 17.910156-40 40 17.910156 40 40 40c22.082031-.027344 39.972656-17.917969 40-40zm-64 0c0-13.253906 10.746094-24 24-24s24 10.746094 24 24-10.746094 24-24 24c-13.25-.015625-23.984375-10.75-24-24zm0 0" data-original="#000000" class="active-path" data-old_color="#000000" fill="#380B4C"/><path d="m464 216c0-13.253906-10.746094-24-24-24s-24 10.746094-24 24 10.746094 24 24 24c13.25-.015625 23.984375-10.75 24-24zm-32 0c0-4.417969 3.582031-8 8-8s8 3.582031 8 8-3.582031 8-8 8c-4.414062-.003906-7.992188-3.585938-8-8zm0 0" data-original="#000000" class="active-path" data-old_color="#000000" fill="#380B4C"/><path d="m191.824219 92.265625-.003907-.035156c-.402343-11.269531-2.796874-22.382813-7.078124-32.816407l-.003907-.007812c-15.609375-37.710938-53.359375-61.429688-94.105469-59.136719-40.75 2.296875-75.59375 30.105469-86.871093 69.332031l-.003907.007813c-4.285156 14.8125-4.917968 30.441406-1.835937 45.546875v.003906c7.089844 34.875 32.898437 62.964844 67.054687 72.96875 34.152344 10.007813 71.039063.285156 95.828126-25.253906l.007812-.007812c17.464844-17.871094 27.226562-41.878907 27.1875-66.867188 0-.878906-.050781-1.742188-.109375-2.605469zm-81.476563-74.929687c-.1875.144531-.390625.28125-.578125.425781-1.296875.984375-2.652343 1.945312-4.070312 2.875-.46875.308593-.945313.613281-1.425781.914062-1.503907.941407-3.070313 1.847657-4.707032 2.707031-.261718.136719-.503906.285157-.765625.417969-1.9375.988281-3.976562 1.902344-6.097656 2.75-.40625.160157-.832031.304688-1.242187.460938-1.8125.683593-3.691407 1.308593-5.640626 1.871093-.488281.144532-.96875.289063-1.464843.421876-5.082031 1.34375-10.28125 2.195312-15.523438 2.542968-.589843.042969-1.191406.066406-1.789062.09375-2.390625.117188-4.855469.140625-7.398438.070313-.539062-.015625-1.0625-.007813-1.609375-.035157-3.019531-.132812-6.152344-.414062-9.390625-.835937-.132812-.015625-.277343-.046875-.410156-.066406 17.78125-13.273438 40.277344-18.566407 62.113281-14.613281zm-76.375 28.296874c.671875.152344 1.300782.238282 1.960938.378907 1.59375.335937 3.160156.632812 4.714844.90625 1.316406.230469 2.625.453125 3.914062.644531 1.585938.230469 3.136719.421875 4.679688.589844 1.207031.132812 2.410156.261718 3.589843.355468 1.546875.125 3.058594.207032 4.558594.269532 1.109375.046875 2.21875.097656 3.308594.109375.511719.007812 1.058593.054687 1.566406.054687.464844 0 .871094-.074218 1.328125-.082031 3.765625-.027344 7.523438-.253906 11.261719-.679687.453125-.054688.871093-.136719 1.320312-.199219 3.355469-.441407 6.683594-1.0625 9.972657-1.851563.355468-.085937.730468-.152344 1.082031-.242187 3.117187-.804688 6.191406-1.773438 9.207031-2.902344.539062-.199219 1.082031-.386719 1.609375-.59375 2.789063-1.09375 5.425781-2.285156 7.925781-3.554687.492188-.25.964844-.503907 1.449219-.757813 2.46875-1.3125 4.820313-2.679687 7-4.101563.300781-.199218.578125-.398437.875-.597656 2.203125-1.476562 4.28125-2.984375 6.1875-4.503906l.195313-.148438c1.960937-1.578124 3.730468-3.152343 5.382812-4.707031.207031-.195312.421875-.386719.625-.582031.1875-.179688.402344-.367188.585938-.546875 16.761718 7.40625 30.484374 20.324219 38.890624 36.609375-.28125.171875-.550781.363281-.835937.535156-1.007813.601563-2.03125 1.152344-3.050781 1.71875-1.335938.746094-2.667969 1.480469-4.007813 2.164063-1.070312.542969-2.136719 1.042969-3.203125 1.546875-1.292968.605468-2.578125 1.195312-3.851562 1.742187-1.074219.457031-2.132813.886719-3.183594 1.300781-1.242188.488282-2.464844.941407-3.667969 1.363282-1.011719.351562-2.015625.695312-2.992187 1-1.179688.371094-2.3125.6875-3.433594.984375-.898438.238281-1.804688.484375-2.65625.675781-1.109375.246094-2.125.414062-3.136719.578125-.734375.117187-1.5.261719-2.171875.332031-.945312.089844-1.894531.125-2.839844.109375-.484374-.003906-1.039062.050781-1.472656.011719-1.0625-.046875-2.109375-.292969-3.082031-.71875-1.542969-.769531-3.132813-1.4375-4.761719-2.003906-.519531-.183594-1.042968-.300782-1.5625-.457032-1.0625-.328124-2.132812-.644531-3.199218-.878906-.621094-.132812-1.246094-.21875-1.871094-.324218-.976563-.167969-1.953125-.328126-2.941406-.429688-.664063-.070312-1.335938-.109375-2.007813-.152344-.964844-.0625-1.941406-.113281-2.921875-.125-.277344-.003906-.546875-.035156-.824219-.035156-.261719 0-.546875.039062-.808593.042969-2.453126.027343-4.960938.15625-7.554688.386719-.402344.035156-.835938.082031-1.242188.121093-2.664062.257813-5.390624.5625-8.261718.902344-9.820313 1.316406-19.714844 2.023437-29.621094 2.109375-2.738281 0-5.480469-.167969-8.199219-.402344-.617187-.050781-1.230469-.101562-1.839843-.164062-2.625-.269532-5.234376-.609375-7.777344-1.039063-.355469-.058593-.699219-.132812-1.058594-.195312-2.3125-.410157-4.566406-.875-6.761719-1.371094-.515625-.117187-1.042969-.230469-1.550781-.351563-2.351562-.5625-4.625-1.152343-6.769531-1.765624l-.375-.109376c3.015625-7.570312 7.164062-14.640624 12.304687-20.96875zm-16.84375 60.398438-.503906-.03125c-.414062-3.316406-.625-6.65625-.625-10 .003906-4.691406.429688-9.375 1.273438-13.992188.78125.226563 1.53125.378907 2.304687.589844 1.429687.390625 2.839844.742188 4.25 1.089844 2.433594.601562 4.835937 1.140625 7.210937 1.613281 1.355469.269531 2.710938.539063 4.046876.765625 2.492187.425782 4.929687.753906 7.351562 1.03125 1.121094.132813 2.261719.300782 3.367188.402344 3.472656.308594 6.882812.5 10.195312.5 10.535156-.089844 21.054688-.832031 31.496094-2.21875 12.75-1.507812 21.171875-2.507812 28.925781 1.375 1.804687.878906 3.722656 1.511719 5.699219 1.875.632812.125 1.347656.105469 2.003906.183594 1.386719.21875 2.78125.347656 4.183594.386718.09375 0 .199218-.019531.292968-.023437.785157-.003906 1.625-.132813 2.429688-.183594 1.503906-.09375 3-.167969 4.5625-.40625.964844-.144531 1.953125-.390625 2.933594-.585937 1.46875-.292969 2.925781-.566406 4.417968-.957032 1.058594-.277343 2.121094-.625 3.183594-.949218 1.445313-.433594 2.878906-.859375 4.324219-1.367188 1.105469-.386718 2.1875-.824218 3.289063-1.246094 1.394531-.542968 2.78125-1.074218 4.15625-1.664062 1.113281-.476562 2.1875-.972656 3.28125-1.476562 1.324218-.609376 2.628906-1.214844 3.914062-1.855469 1.078125-.535157 2.101562-1.074219 3.144531-1.625 1.226563-.648438 2.429688-1.289063 3.597657-1.953125.398437-.222656.835937-.4375 1.226562-.664063 1.152344 4.246094 1.957031 8.582031 2.398438 12.960938-.941407.433593-1.867188.878906-2.828126 1.296875-1.394531.597656-2.792968 1.1875-4.226562 1.746094-1.878906.738281-3.796875 1.433593-5.738281 2.105468-1.457031.507813-2.90625 1.015625-4.394531 1.488282-2.042969.648437-4.128907 1.246093-6.222657 1.835937-1.46875.410156-2.925781.839844-4.417969 1.222656-2.261718.582031-4.566406 1.105469-6.875 1.625-1.386718.3125-2.753906.648438-4.152343.9375-2.707031.5625-5.453125 1.054688-8.203125 1.539063-1.042969.183594-2.070313.398437-3.121094.570312-3.824219.628906-7.667969 1.195313-11.539062 1.691406-.65625.085938-1.316407.144532-1.972657.222657-3.226562.398437-6.460937.769531-9.691406 1.082031-1.25.121094-2.492187.210938-3.742187.320312-2.632813.230469-5.269532.457032-7.886719.640626-1.378907.09375-2.746094.167968-4.121094.25-2.476563.152343-4.953125.296874-7.398437.40625-1.375.0625-2.730469.109374-4.089844.160156-2.410156.089844-4.808594.167968-7.171875.226562-1.328125.03125-2.640625.054688-3.949219.074219-2.351562.039063-4.679688.066406-6.964844.078125-1.230468.003906-2.449218.007812-3.65625.003906-2.328125-.003906-4.613281-.019531-6.851562-.050781-1.070313-.015625-2.140625-.027344-3.1875-.046875-2.304688-.042969-4.535156-.097656-6.722656-.160156-.910157-.027344-1.839844-.050782-2.726563-.078125-2.234375-.078125-4.367187-.164063-6.453125-.253907-.738281-.03125-1.519531-.058593-2.238281-.09375-2.214844-.105468-4.300781-.21875-6.3125-.332031-.480469-.027343-1.007813-.054687-1.476563-.082031zm78.871094 69.96875c-11.648438-.011719-23.148438-2.578125-33.695312-7.523438 3.730468.4375 7.46875.789063 11.1875 1.078126.476562.039062.945312.082031 1.421874.117187 4.828126.347656 9.59375.554687 14.214844.5625.144532.003906.296875.019531.4375.019531l.257813-.003906c.273437-.003906.539062-.015625.8125-.019531 1.933593-.011719 3.847656-.046875 5.714843-.132813l.398438-.027344c1.984375-.097656 3.9375-.226562 5.828125-.417968.207031-.019532.394531-.054688.601563-.078125 1.804687-.191407 3.582031-.40625 5.285156-.691407 1.894531-.3125 3.726562-.683593 5.476562-1.121093 3.792969-.933594 7.632813-1.65625 11.503906-2.167969.167969-.019531.34375-.054688.511719-.078125 3.65625-.476563 7.230469-.75 10.695313-.902344.175781-.007812.359375-.019531.535156-.027343-12.425781 7.503906-26.671875 11.453124-41.1875 11.414062zm59.882812-27.023438-.316406-.015624c-2.648437-.203126-5.527344-.339844-8.550781-.417969-.601563-.019531-1.171875-.035157-1.785156-.042969-3.058594-.046875-6.246094.003906-9.574219.152344-.644531.03125-1.277344.070312-1.929688.109375-3.4375.203125-6.957031.515625-10.5625 1.003906-.492187.066406-.980468.15625-1.476562.230469-3.839844.5625-7.722656 1.265625-11.628906 2.242187-2.722656.65625-5.488282 1.132813-8.277344 1.421875-1.230469.132813-2.589844.160156-3.878906.246094-1.800782.125-3.5625.285156-5.453125.320312-1.5625.03125-3.207031-.027343-4.816407-.050781-1.738281-.023437-3.453124-.011719-5.238281-.089843-1.714843-.074219-3.457031-.214844-5.195312-.335938-1.738281-.117188-3.464844-.214844-5.207031-.371094-1.761719-.160156-3.507813-.363281-5.257813-.558594-1.730469-.1875-3.46875-.363281-5.175781-.582031-1.679688-.210937-3.308594-.449219-4.953125-.679687-1.734375-.246094-3.484375-.488282-5.167969-.746094-1.5-.234375-2.925781-.476562-4.367188-.714844-1.722656-.289062-3.453124-.574218-5.074218-.863281-1.246094-.222656-2.410156-.441406-3.589844-.664063-1.0625-.199218-2.089844-.394531-3.085938-.589843-6.523437-7.578125-11.574218-16.304688-14.894531-25.738281 2.40625.125 4.949219.242187 7.597657.351562.941406.035156 1.949218.0625 2.917968.097656 2.335938.085938 4.730469.160156 7.214844.21875 1.480469.039063 2.953125.070313 4.480469.097656 2.65625.046876 5.386719.074219 8.179687.085938.96875.003906 1.863282.03125 2.847656.03125.523438 0 1.097657-.023438 1.625-.023438 3.914063-.011718 7.949219-.070312 12.058594-.167968 1.339844-.03125 2.648438-.058594 4.003906-.097656 4.589844-.140626 9.257813-.347657 14.003907-.617188 1.210937-.070312 2.421875-.15625 3.640625-.234375 5.003906-.324219 10.046875-.703125 15.128906-1.207031.355469-.035156.707031-.078125 1.058594-.113282 4.996094-.507812 10-1.136718 14.992187-1.839843 1.070313-.152344 2.132813-.292969 3.199219-.453125 5.050781-.761719 10.054688-1.636719 15.015625-2.632813 1.007813-.203125 2.003906-.421875 3.007813-.636719 5.140624-1.089843 10.222656-2.277343 15.160156-3.660156.175781-.046875.339844-.105468.515625-.15625 4.796875-1.351562 9.433593-2.894531 13.957031-4.554687.851562-.3125 1.714844-.609375 2.558594-.933594.621094-.238281 1.277344-.445313 1.894531-.691406-1.847656 16.296875-8.695313 31.621093-19.601563 43.871093zm0 0" data-original="#000000" class="active-path" data-old_color="#000000" fill="#380B4C"/><path d="m346.871094 321.222656c.605468 3.894532 3.953125 6.769532 7.894531 6.777344.414063 0 .824219-.03125 1.234375-.09375 4.367188-.675781 7.359375-4.761719 6.683594-9.128906-.710938-4.601563-1.710938-9.152344-2.988282-13.628906-1.210937-4.246094-5.636718-6.707032-9.886718-5.496094-4.246094 1.210937-6.707032 5.640625-5.496094 9.886718 1.09375 3.839844 1.949219 7.738282 2.558594 11.683594zm0 0" data-original="#000000" class="active-path" data-old_color="#000000" fill="#380B4C"/><path d="m252 240c30.640625.0625 59.421875 14.683594 77.542969 39.390625 2.621093 3.53125 7.597656 4.285156 11.148437 1.691406 3.550782-2.597656 4.335938-7.570312 1.765625-11.136719-21.136719-28.820312-54.714843-45.875-90.457031-45.945312-4.417969 0-8 3.582031-8 8s3.582031 8 8 8zm0 0" data-original="#000000" class="active-path" data-old_color="#000000" fill="#380B4C"/></g> </svg>
