<?xml version="1.0"?>
<svg xmlns="http://www.w3.org/2000/svg" xmlns:xlink="http://www.w3.org/1999/xlink" version="1.1" id="Layer_1" x="0px" y="0px" viewBox="0 0 512 512" style="enable-background:new 0 0 512 512;" xml:space="preserve" width="512px" height="512px"><g><g>
	<g>
		<path d="M326.555,270.261l-3.096-1.006c0.841-4.291,1.293-8.72,1.293-13.254c0-4.534-0.452-8.963-1.293-13.254l3.096-1.006    c4.335-1.409,6.71-6.067,5.299-10.404c-1.409-4.337-6.068-6.708-10.404-5.301l-3.108,1.011    c-3.785-8.122-9.104-15.385-15.591-21.417l1.938-2.666c2.681-3.689,1.863-8.853-1.826-11.532    c-3.687-2.678-8.851-1.864-11.532,1.826l-1.925,2.651c-7.628-4.264-16.144-7.109-25.198-8.198v-3.265    c0-4.56-3.696-8.256-8.256-8.256c-4.56,0-8.256,3.697-8.256,8.256v3.265c-9.053,1.089-17.569,3.934-25.197,8.198l-1.925-2.65    c-2.681-3.689-7.842-4.507-11.532-1.826c-3.689,2.681-4.507,7.844-1.827,11.532l1.938,2.666    c-6.486,6.032-11.807,13.295-15.59,21.416l-3.109-1.011c-4.339-1.41-8.995,0.964-10.404,5.301    c-1.409,4.336,0.963,8.994,5.301,10.403l3.096,1.006c-0.841,4.291-1.293,8.72-1.293,13.254c0,4.534,0.452,8.963,1.293,13.254    l-3.096,1.006c-4.336,1.409-6.71,6.067-5.301,10.403c1.134,3.49,4.37,5.707,7.85,5.707c0.845,0,1.705-0.131,2.553-0.406    l3.109-1.011c3.786,8.123,9.106,15.387,15.592,21.418l-1.938,2.666c-2.681,3.689-1.862,8.853,1.827,11.532    c1.465,1.065,3.164,1.578,4.846,1.578c2.553,0,5.07-1.18,6.687-3.404l1.925-2.65c7.628,4.264,16.144,7.109,25.197,8.198v3.265    c0,4.56,3.697,8.256,8.256,8.256c4.561,0,8.256-3.697,8.256-8.256v-3.265c9.053-1.089,17.569-3.934,25.198-8.198l1.925,2.651    c1.616,2.224,4.133,3.404,6.685,3.404c1.682,0,3.381-0.513,4.846-1.578c3.69-2.681,4.507-7.844,1.826-11.532l-1.938-2.666    c6.487-6.032,11.807-13.295,15.591-21.417l3.108,1.011c0.849,0.275,1.709,0.406,2.554,0.406c3.48,0,6.716-2.218,7.85-5.707    C333.264,276.328,330.89,271.67,326.555,270.261z M255.951,308.29c-28.832,0-52.29-23.457-52.29-52.29    c0-28.833,23.458-52.29,52.29-52.29c28.832,0,52.29,23.457,52.29,52.29S284.784,308.29,255.951,308.29z" data-original="#000000" class="active-path" data-old_color="#000000" fill="#380B4C"/>
	</g>
</g><g>
	<g>
		<circle cx="404.89" cy="107.057" r="8.256" data-original="#000000" class="active-path" data-old_color="#000000" fill="#380B4C"/>
	</g>
</g><g>
	<g>
		<circle cx="437.915" cy="74.032" r="8.256" data-original="#000000" class="active-path" data-old_color="#000000" fill="#380B4C"/>
	</g>
</g><g>
	<g>
		<path d="M497.741,334.365c-8.884-25.641-21.56-52.037-37.472-78.365c15.912-26.328,28.588-52.724,37.472-78.365    c22.746-65.651,18.067-119.011-13.173-150.251c-29.162-29.162-78.359-35.19-138.532-16.977    c-28.999,8.778-59.505,22.845-90.038,41.303c-26.343-15.925-52.755-28.61-78.411-37.499C111.936-8.535,58.576-3.856,27.336,27.385    C-1.475,56.196-7.713,104.696,9.773,163.949c8.725,29.565,23.041,60.801,41.953,92.077C30.638,290.94,15.277,325.77,7.046,357.953    c-13.97,54.627-6.765,99.611,20.289,126.664c18.2,18.2,43.904,27.385,75.175,27.383c22.407,0,47.672-4.716,75.076-14.211    c25.641-8.884,52.037-21.56,78.365-37.472c55.791,33.794,109.422,51.59,153.211,51.59c30.956,0,57.005-8.892,75.406-27.292    C515.808,453.376,520.486,400.016,497.741,334.365z M350.82,26.212c54.067-16.365,97.422-11.803,122.071,12.848    c26.526,26.525,29.81,73.819,9.247,133.169c-7.714,22.262-18.436,45.148-31.753,68.075    c-22.051-33.719-49.248-67.057-80.465-98.273c-31.203-31.203-64.527-58.391-98.233-80.439    C298.608,45.944,325.35,33.922,350.82,26.212z M206.28,405.4c-3.565-2.843-8.759-2.259-11.603,1.306    c-2.844,3.565-2.259,8.759,1.306,11.603c14.767,11.78,29.572,22.49,44.278,32.125c-22.929,13.317-45.817,24.04-68.079,31.754    c-59.352,20.563-106.644,17.279-133.169-9.246C1.466,435.395,12.017,356.758,61.567,271.663    c14.231,21.77,30.61,43.428,48.833,64.421c-5.876,7.82-9.364,17.534-9.364,28.047c0,25.798,20.988,46.786,46.786,46.786    s46.786-20.988,46.786-46.786c0-25.798-20.988-46.786-46.786-46.786c-9.329,0-18.021,2.755-25.326,7.479    c-19.454-22.452-36.73-45.635-51.402-68.839c11.318-17.878,24.294-35.943,38.873-53.883c2.875-3.539,2.338-8.739-1.201-11.615    c-3.539-2.875-8.738-2.338-11.614,1.201c-12.977,15.97-24.871,32.271-35.558,48.639c-16.066-27.623-28.306-55.044-35.982-81.053    C9.915,106.091,14.674,63.398,39.011,39.06c26.525-26.525,73.818-29.81,133.169-9.246c22.277,7.718,45.177,18.449,68.12,31.778    c-23.245,15.197-46.36,32.848-68.685,52.575c-6.731-4.767-14.938-7.579-23.795-7.579c-22.763,0-41.282,18.519-41.282,41.282    s18.518,41.282,41.282,41.282s41.282-18.519,41.282-41.282c0-7.944-2.26-15.366-6.164-21.669    c23.767-20.968,48.401-39.493,73.063-55.086c34.984,22.121,69.755,50.105,102.243,82.593C390.749,186.211,418.743,221,440.87,256    c-22.127,35-50.121,69.789-82.625,102.293c-32.484,32.484-67.251,60.464-102.23,82.585    C239.501,430.452,222.838,418.609,206.28,405.4z M117.548,364.131c0-16.693,13.581-30.273,30.273-30.273    c16.693,0,30.273,13.58,30.273,30.273c0,16.693-13.58,30.273-30.273,30.273S117.548,380.824,117.548,364.131z M172.59,147.87    c0,13.657-11.111,24.769-24.769,24.769s-24.769-11.112-24.769-24.769c0-13.657,11.111-24.769,24.769-24.769    S172.59,134.213,172.59,147.87z M472.891,472.94c-37.3,37.303-116.151,26.799-201.179-22.549    c33.697-22.044,67.013-49.227,98.21-80.423c31.215-31.217,58.413-64.555,80.465-98.273c13.317,22.927,24.039,45.814,31.753,68.075    C502.701,399.121,499.416,446.415,472.891,472.94z" data-original="#000000" class="active-path" data-old_color="#000000" fill="#380B4C"/>
	</g>
</g><g>
	<g>
		<circle cx="73.987" cy="437.971" r="8.256" data-original="#000000" class="active-path" data-old_color="#000000" fill="#380B4C"/>
	</g>
</g><g>
	<g>
		<circle cx="404.89" cy="404.945" r="8.256" data-original="#000000" class="active-path" data-old_color="#000000" fill="#380B4C"/>
	</g>
</g><g>
	<g>
		<circle cx="437.915" cy="437.971" r="8.256" data-original="#000000" class="active-path" data-old_color="#000000" fill="#380B4C"/>
	</g>
</g><g>
	<g>
		<circle cx="73.987" cy="74.032" r="8.256" data-original="#000000" class="active-path" data-old_color="#000000" fill="#380B4C"/>
	</g>
</g></g> </svg>
