<?xml version="1.0"?>
<svg xmlns="http://www.w3.org/2000/svg" xmlns:xlink="http://www.w3.org/1999/xlink" version="1.1" id="Layer_1" x="0px" y="0px" viewBox="0 0 512 512" style="enable-background:new 0 0 512 512;" xml:space="preserve" width="512px" height="512px" class=""><g><g>
	<g>
		<path d="M256,77.075c-41.406,0-81.78,14.475-113.687,40.757c-3.52,2.9-4.023,8.104-1.124,11.625    c2.901,3.521,8.106,4.023,11.625,1.123c28.956-23.854,65.602-36.99,103.186-36.99c89.553,0,162.409,72.856,162.409,162.409    S345.553,418.409,256,418.409S93.591,345.553,93.591,256c0-37.584,13.137-74.23,36.99-103.186c2.9-3.52,2.397-8.725-1.124-11.625    c-3.518-2.898-8.723-2.397-11.625,1.124C91.55,174.219,77.075,214.594,77.075,256c0,98.66,80.265,178.925,178.925,178.925    S434.925,354.66,434.925,256S354.66,77.075,256,77.075z" data-original="#000000" class="active-path" data-old_color="#000000" fill="#380B4C"/>
	</g>
</g><g>
	<g>
		<path d="M256,44.043C139.126,44.043,44.043,139.126,44.043,256S139.126,467.957,256,467.957S467.957,372.874,467.957,256    S372.874,44.043,256,44.043z M256,451.441c-107.767,0-195.441-87.674-195.441-195.441S148.233,60.559,256,60.559    S451.441,148.233,451.441,256S363.767,451.441,256,451.441z" data-original="#000000" class="active-path" data-old_color="#000000" fill="#380B4C"/>
	</g>
</g><g>
	<g>
		<path d="M256,0c-4.562,0-8.258,3.697-8.258,8.258v11.011c0,4.561,3.696,8.258,8.258,8.258s8.258-3.697,8.258-8.258V8.258    C264.258,3.697,260.562,0,256,0z" data-original="#000000" class="active-path" data-old_color="#000000" fill="#380B4C"/>
	</g>
</g><g>
	<g>
		<path d="M214.857,22.724l-2.289-10.77c-0.948-4.46-5.336-7.308-9.795-6.36c-4.462,0.948-7.309,5.334-6.36,9.795l2.29,10.77    c0.825,3.882,4.252,6.543,8.069,6.543c0.569,0,1.147-0.06,1.725-0.183C212.959,31.571,215.806,27.186,214.857,22.724z" data-original="#000000" class="active-path" data-old_color="#000000" fill="#380B4C"/>
	</g>
</g><g>
	<g>
		<path d="M167.257,36.377l-4.478-10.059c-1.855-4.166-6.737-6.04-10.903-4.185c-4.167,1.855-6.039,6.736-4.185,10.903l4.478,10.058    c1.369,3.075,4.386,4.902,7.548,4.902c1.123,0,2.264-0.23,3.355-0.716C167.238,45.425,169.111,40.544,167.257,36.377z" data-original="#000000" class="active-path" data-old_color="#000000" fill="#380B4C"/>
	</g>
</g><g>
	<g>
		<path d="M123.533,59.627l-6.472-8.908c-2.681-3.69-7.844-4.507-11.535-1.828c-3.691,2.681-4.508,7.845-1.827,11.535l6.473,8.909    c1.616,2.224,4.133,3.405,6.687,3.405c1.682,0,3.381-0.513,4.847-1.578C125.397,68.48,126.214,63.316,123.533,59.627z" data-original="#000000" class="active-path" data-old_color="#000000" fill="#380B4C"/>
	</g>
</g><g>
	<g>
		<path d="M85.6,91.459l-8.183-7.367c-3.388-3.05-8.608-2.779-11.664,0.612c-3.051,3.389-2.777,8.61,0.612,11.663l8.183,7.367    c1.579,1.422,3.554,2.121,5.524,2.121c2.258,0,4.509-0.922,6.14-2.733C89.263,99.732,88.989,94.511,85.6,91.459z" data-original="#000000" class="active-path" data-old_color="#000000" fill="#380B4C"/>
	</g>
</g><g>
	<g>
		<path d="M55.114,130.483l-9.535-5.505c-3.953-2.281-9.002-0.928-11.281,3.022c-2.281,3.95-0.927,9,3.022,11.281l9.535,5.505    c1.301,0.751,2.721,1.108,4.121,1.108c2.854,0,5.63-1.481,7.159-4.13C60.417,137.814,59.064,132.763,55.114,130.483z" data-original="#000000" class="active-path" data-old_color="#000000" fill="#380B4C"/>
	</g>
</g><g>
	<g>
		<path d="M33.408,174.992l-10.471-3.402c-4.336-1.409-8.996,0.963-10.406,5.302c-1.409,4.338,0.965,8.997,5.301,10.406    l10.471,3.402c0.849,0.275,1.709,0.406,2.554,0.406c3.481,0,6.718-2.219,7.852-5.708    C40.118,181.061,37.744,176.402,33.408,174.992z" data-original="#000000" class="active-path" data-old_color="#000000" fill="#380B4C"/>
	</g>
</g><g>
	<g>
		<path d="M21.428,223.043l-10.95-1.151c-4.538-0.471-8.599,2.814-9.076,7.35c-0.476,4.534,2.814,8.598,7.35,9.075l10.95,1.151    c0.294,0.031,0.585,0.046,0.873,0.046c4.173,0,7.757-3.152,8.203-7.395C29.254,227.582,25.963,223.519,21.428,223.043z" data-original="#000000" class="active-path" data-old_color="#000000" fill="#380B4C"/>
	</g>
</g><g>
	<g>
		<path d="M28.779,279.881c-0.478-4.535-4.529-7.824-9.076-7.35l-10.95,1.151c-4.535,0.477-7.825,4.541-7.35,9.076    c0.446,4.242,4.029,7.395,8.203,7.395c0.289,0,0.579-0.015,0.873-0.046l10.95-1.151C25.964,288.482,29.254,284.418,28.779,279.881    z" data-original="#000000" class="active-path" data-old_color="#000000" fill="#380B4C"/>
	</g>
</g><g>
	<g>
		<path d="M38.708,326.602c-1.409-4.338-6.067-6.709-10.406-5.302l-10.471,3.402c-4.336,1.409-6.711,6.068-5.301,10.406    c1.134,3.489,4.371,5.708,7.852,5.708c0.847,0,1.707-0.131,2.555-0.406l10.471-3.402    C37.744,335.598,40.119,330.939,38.708,326.602z" data-original="#000000" class="active-path" data-old_color="#000000" fill="#380B4C"/>
	</g>
</g><g>
	<g>
		<path d="M58.137,370.237c-2.281-3.951-7.332-5.304-11.281-3.022l-9.535,5.505c-3.95,2.28-5.303,7.331-3.022,11.281    c1.53,2.649,4.305,4.13,7.159,4.13c1.401,0,2.822-0.357,4.121-1.108l9.535-5.505C59.064,379.237,60.417,374.186,58.137,370.237z" data-original="#000000" class="active-path" data-old_color="#000000" fill="#380B4C"/>
	</g>
</g><g>
	<g>
		<path d="M86.212,408.88c-3.054-3.391-8.275-3.664-11.664-0.612l-8.183,7.367c-3.389,3.051-3.663,8.273-0.612,11.663    c1.631,1.811,3.88,2.733,6.14,2.733c1.969,0,3.945-0.7,5.524-2.121l8.183-7.367C88.989,417.491,89.263,412.269,86.212,408.88z" data-original="#000000" class="active-path" data-old_color="#000000" fill="#380B4C"/>
	</g>
</g><g>
	<g>
		<path d="M121.706,440.839c-3.686-2.678-8.854-1.863-11.535,1.828l-6.472,8.908c-2.681,3.69-1.863,8.854,1.827,11.535    c1.466,1.065,3.163,1.578,4.847,1.578c2.552,0,5.072-1.18,6.687-3.405l6.472-8.908    C126.214,448.684,125.397,443.52,121.706,440.839z" data-original="#000000" class="active-path" data-old_color="#000000" fill="#380B4C"/>
	</g>
</g><g>
	<g>
		<path d="M163.073,464.721c-4.165-1.856-9.049,0.019-10.903,4.185l-4.478,10.059c-1.855,4.167,0.019,9.048,4.185,10.903    c1.091,0.486,2.232,0.716,3.355,0.716c3.161,0,6.179-1.827,7.548-4.902l4.478-10.059    C169.112,471.457,167.239,466.575,163.073,464.721z" data-original="#000000" class="active-path" data-old_color="#000000" fill="#380B4C"/>
	</g>
</g><g>
	<g>
		<path d="M208.497,479.481c-4.465-0.948-8.847,1.899-9.795,6.36l-2.289,10.77c-0.948,4.462,1.899,8.847,6.36,9.795    c0.579,0.123,1.157,0.183,1.725,0.183c3.815,0,7.244-2.66,8.069-6.543l2.289-10.77    C215.806,484.814,212.959,480.429,208.497,479.481z" data-original="#000000" class="active-path" data-old_color="#000000" fill="#380B4C"/>
	</g>
</g><g>
	<g>
		<path d="M256,484.473c-4.562,0-8.258,3.697-8.258,8.258v11.011c0,4.561,3.696,8.258,8.258,8.258s8.258-3.697,8.258-8.258v-11.011    C264.258,488.171,260.562,484.473,256,484.473z" data-original="#000000" class="active-path" data-old_color="#000000" fill="#380B4C"/>
	</g>
</g><g>
	<g>
		<path d="M315.585,496.61l-2.288-10.77c-0.947-4.461-5.335-7.309-9.795-6.36c-4.462,0.948-7.309,5.334-6.36,9.795l2.289,10.77    c0.825,3.882,4.252,6.543,8.069,6.543c0.569,0,1.147-0.059,1.725-0.183C313.686,505.457,316.534,501.072,315.585,496.61z" data-original="#000000" class="active-path" data-old_color="#000000" fill="#380B4C"/>
	</g>
</g><g>
	<g>
		<path d="M364.309,478.967l-4.478-10.06c-1.855-4.168-6.736-6.042-10.903-4.185c-4.166,1.855-6.039,6.736-4.185,10.903    l4.478,10.059c1.369,3.075,4.386,4.902,7.548,4.902c1.123,0,2.264-0.23,3.355-0.716    C364.291,488.014,366.164,483.133,364.309,478.967z" data-original="#000000" class="active-path" data-old_color="#000000" fill="#380B4C"/>
	</g>
</g><g>
	<g>
		<path d="M408.299,451.572l-6.471-8.907c-2.681-3.69-7.843-4.507-11.535-1.828c-3.691,2.681-4.508,7.845-1.827,11.535l6.472,8.908    c1.616,2.224,4.133,3.405,6.687,3.405c1.682,0,3.381-0.513,4.847-1.578C410.163,460.426,410.98,455.262,408.299,451.572z" data-original="#000000" class="active-path" data-old_color="#000000" fill="#380B4C"/>
	</g>
</g><g>
	<g>
		<path d="M445.635,415.634l-8.183-7.367c-3.387-3.049-8.608-2.779-11.664,0.612c-3.051,3.389-2.777,8.61,0.612,11.663l8.183,7.367    c1.579,1.422,3.554,2.121,5.524,2.121c2.258,0,4.509-0.922,6.14-2.733C449.298,423.907,449.024,418.686,445.635,415.634z" data-original="#000000" class="active-path" data-old_color="#000000" fill="#380B4C"/>
	</g>
</g><g>
	<g>
		<path d="M474.679,372.719l-9.535-5.505c-3.953-2.281-9.001-0.928-11.281,3.022c-2.28,3.95-0.927,9,3.022,11.281l9.535,5.505    c1.301,0.751,2.721,1.108,4.121,1.108c2.854,0,5.63-1.481,7.159-4.13C479.983,380.05,478.629,375,474.679,372.719z" data-original="#000000" class="active-path" data-old_color="#000000" fill="#380B4C"/>
	</g>
</g><g>
	<g>
		<path d="M494.169,324.703l-10.471-3.402c-4.337-1.41-8.996,0.963-10.406,5.302c-1.409,4.337,0.965,8.996,5.301,10.406    l10.471,3.402c0.849,0.275,1.709,0.406,2.555,0.406c3.48,0,6.718-2.219,7.852-5.708    C500.879,330.771,498.505,326.112,494.169,324.703z" data-original="#000000" class="active-path" data-old_color="#000000" fill="#380B4C"/>
	</g>
</g><g>
	<g>
		<path d="M503.249,273.683l-10.95-1.151c-4.538-0.473-8.599,2.814-9.076,7.35c-0.477,4.536,2.814,8.599,7.35,9.076l10.95,1.151    c0.294,0.031,0.585,0.046,0.873,0.046c4.173,0,7.757-3.152,8.203-7.395C511.074,278.224,507.784,274.16,503.249,273.683z" data-original="#000000" class="active-path" data-old_color="#000000" fill="#380B4C"/>
	</g>
</g><g>
	<g>
		<path d="M510.597,229.241c-0.478-4.535-4.53-7.826-9.076-7.35l-10.95,1.151c-4.535,0.477-7.825,4.541-7.35,9.077    c0.446,4.242,4.029,7.395,8.203,7.395c0.288,0,0.579-0.015,0.873-0.046l10.95-1.151    C507.783,237.84,511.073,233.776,510.597,229.241z" data-original="#000000" class="active-path" data-old_color="#000000" fill="#380B4C"/>
	</g>
</g><g>
	<g>
		<path d="M499.47,176.891c-1.409-4.338-6.068-6.708-10.406-5.302l-10.471,3.402c-4.336,1.41-6.711,6.069-5.301,10.406    c1.134,3.489,4.371,5.708,7.852,5.708c0.847,0,1.707-0.131,2.555-0.406l10.471-3.402    C498.505,185.888,500.88,181.229,499.47,176.891z" data-original="#000000" class="active-path" data-old_color="#000000" fill="#380B4C"/>
	</g>
</g><g>
	<g>
		<path d="M477.702,128c-2.281-3.95-7.332-5.303-11.281-3.022l-9.535,5.505c-3.95,2.28-5.303,7.331-3.022,11.281    c1.531,2.649,4.305,4.13,7.159,4.13c1.401,0,2.822-0.357,4.121-1.108l9.535-5.505C478.629,137,479.982,131.95,477.702,128z" data-original="#000000" class="active-path" data-old_color="#000000" fill="#380B4C"/>
	</g>
</g><g>
	<g>
		<path d="M446.247,84.703c-3.053-3.39-8.275-3.664-11.664-0.612l-8.183,7.367c-3.389,3.051-3.663,8.273-0.612,11.663    c1.632,1.811,3.881,2.733,6.14,2.733c1.969,0,3.945-0.7,5.524-2.121l8.183-7.367C449.024,93.315,449.298,88.093,446.247,84.703z" data-original="#000000" class="active-path" data-old_color="#000000" fill="#380B4C"/>
	</g>
</g><g>
	<g>
		<path d="M406.473,48.892c-3.686-2.678-8.854-1.863-11.535,1.828l-6.472,8.908c-2.68,3.689-1.863,8.853,1.828,11.534    c1.466,1.065,3.163,1.578,4.847,1.578c2.552,0,5.072-1.18,6.687-3.405l6.472-8.908C410.981,56.737,410.163,51.573,406.473,48.892z    " data-original="#000000" class="active-path" data-old_color="#000000" fill="#380B4C"/>
	</g>
</g><g>
	<g>
		<path d="M360.123,22.13c-4.164-1.854-9.049,0.019-10.903,4.185l-4.478,10.059c-1.854,4.168,0.019,9.05,4.185,10.904    c1.091,0.486,2.232,0.716,3.355,0.716c3.161,0,6.179-1.827,7.548-4.902l4.478-10.059C366.164,28.867,364.29,23.986,360.123,22.13z    " data-original="#000000" class="active-path" data-old_color="#000000" fill="#380B4C"/>
	</g>
</g><g>
	<g>
		<path d="M309.226,5.595c-4.467-0.947-8.846,1.899-9.795,6.36l-2.289,10.77c-0.948,4.462,1.899,8.847,6.361,9.795    c0.579,0.123,1.157,0.183,1.725,0.183c3.815,0,7.244-2.66,8.069-6.543l2.289-10.77C316.534,10.928,313.686,6.543,309.226,5.595z" data-original="#000000" class="active-path" data-old_color="#000000" fill="#380B4C"/>
	</g>
</g><g>
	<g>
		<circle cx="256" cy="256" r="8.258" data-original="#000000" class="active-path" data-old_color="#000000" fill="#380B4C"/>
	</g>
</g><g>
	<g>
		<circle cx="256" cy="385.376" r="8.258" data-original="#000000" class="active-path" data-old_color="#000000" fill="#380B4C"/>
	</g>
</g><g>
	<g>
		<circle cx="289.032" cy="352.344" r="8.258" data-original="#000000" class="active-path" data-old_color="#000000" fill="#380B4C"/>
	</g>
</g><g>
	<g>
		<circle cx="347.477" cy="347.477" r="8.258" data-original="#000000" class="active-path" data-old_color="#000000" fill="#380B4C"/>
	</g>
</g><g>
	<g>
		<circle cx="347.477" cy="164.512" r="8.258" data-original="#000000" class="active-path" data-old_color="#000000" fill="#380B4C"/>
	</g>
</g><g>
	<g>
		<circle cx="126.624" cy="256" r="8.258" data-original="#000000" class="active-path" data-old_color="#000000" fill="#380B4C"/>
	</g>
</g><g>
	<g>
		<circle cx="164.512" cy="347.477" r="8.258" data-original="#000000" class="active-path" data-old_color="#000000" fill="#380B4C"/>
	</g>
</g></g> </svg>
