<?xml version="1.0"?>
<svg xmlns="http://www.w3.org/2000/svg" height="512px" viewBox="0 0 512.00036 512" width="512px"><g><path d="m391.660156 313.332031c-3.742187 1.78125-5.332031 6.253907-3.554687 9.996094 3.109375 6.535156 4.683593 13.550781 4.683593 20.851563 0 26.804687-21.808593 48.613281-48.613281 48.613281-26.804687 0-48.613281-21.808594-48.613281-48.613281 0-26.804688 21.808594-48.613282 48.613281-48.613282 8.863281 0 17.535157 2.40625 25.078125 6.957032 3.546875 2.140624 8.15625 1 10.296875-2.546876 2.140625-3.546874 1-8.15625-2.546875-10.296874-9.878906-5.960938-21.230468-9.113282-32.828125-9.113282-35.074219 0-63.613281 28.535156-63.613281 63.613282 0 35.078124 28.539062 63.613281 63.613281 63.613281 35.078125 0 63.613281-28.539063 63.613281-63.613281 0-9.546876-2.0625-18.730469-6.136718-27.292969-1.777344-3.742188-6.25-5.332031-9.992188-3.554688zm0 0" data-original="#000000" class="active-path" data-old_color="#000000" fill="#380B4C"/><path d="m114.234375 167.308594c26.234375 0 47.578125-21.347656 47.578125-47.582032 0-6.621093-1.335938-13.03125-3.96875-19.054687-1.660156-3.796875-6.085938-5.527344-9.878906-3.867187-3.792969 1.660156-5.523438 6.082031-3.863282 9.878906 1.800782 4.113281 2.710938 8.503906 2.710938 13.042968 0 17.964844-14.613281 32.578126-32.578125 32.578126s-32.582031-14.613282-32.582031-32.578126c0-17.964843 14.617187-32.582031 32.582031-32.582031 3.769531 0 7.457031.636719 10.964844 1.886719 3.902343 1.394531 8.191406-.636719 9.585937-4.535156 1.394532-3.902344-.636718-8.195313-4.539062-9.589844-5.132813-1.832031-10.519532-2.761719-16.015625-2.761719-26.234375 0-47.578125 21.34375-47.578125 47.582031 0 26.234376 21.34375 47.582032 47.582031 47.582032zm0 0" data-original="#000000" class="active-path" data-old_color="#000000" fill="#380B4C"/><path d="m504.5 336.675781h-38.609375l-26.734375-10.914062c-2.492188-1.015625-4.324219-3.089844-5.019531-5.691407-.699219-2.597656-.148438-5.308593 1.5-7.433593l17.695312-22.820313 19.554688-11.289062c3.585937-2.070313 4.816406-6.65625 2.746093-10.246094-2.074218-3.585938-6.660156-4.816406-10.246093-2.742188l-19.550781 11.285157-28.613282 3.917969c-2.664062.363281-5.289062-.515626-7.191406-2.421876-1.902344-1.902343-2.785156-4.523437-2.417969-7.1875l3.917969-28.613281 11.285156-19.550781c2.074219-3.585938.84375-8.175781-2.742187-10.246094-3.585938-2.070312-8.175781-.84375-10.246094 2.746094l-11.289063 19.550781-22.820312 17.699219c-2.125 1.648438-4.835938 2.195312-7.4375 1.5-2.597656-.695312-4.671875-2.527344-5.691406-5.015625l-10.914063-26.738281v-38.609375c0-4.140625-3.355469-7.5-7.5-7.5-4.140625 0-7.5 3.359375-7.5 7.5v38.609375l-10.910156 26.734375c-1.019531 2.492187-3.09375 4.320312-5.691406 5.019531-2.597657.695312-5.3125.148438-7.4375-1.5l-22.820313-17.699219-11.289062-19.550781c-2.070313-3.589844-6.65625-4.820312-10.246094-2.746094-3.585938 2.070313-4.816406 6.65625-2.742188 10.246094l11.289063 19.550781 3.914063 28.613281c.367187 2.664063-.515626 5.285157-2.417969 7.1875-1.902344 1.902344-4.523438 2.785157-7.191407 2.421876l-28.613281-3.917969-19.550781-11.289063c-3.585938-2.070312-8.171875-.84375-10.246094 2.746094-2.070312 3.585938-.839844 8.171875 2.746094 10.242188l19.550781 11.289062 17.699219 22.820312c1.652344 2.128907 2.195312 4.839844 1.5 7.4375-.695312 2.601563-2.523438 4.675782-5.015625 5.691407l-26.738281 10.914062h-38.609375c-4.140625 0-7.5 3.359375-7.5 7.5s3.359375 7.5 7.5 7.5h38.609375l26.738281 10.914063c2.492187 1.015625 4.320313 3.089844 5.015625 5.691406.699219 2.601562.152344 5.3125-1.5 7.4375l-17.699219 22.820312-19.550781 11.289063c-3.585938 2.070313-4.816406 6.65625-2.746094 10.242187 1.390625 2.40625 3.910156 3.753907 6.503906 3.753907 1.273438 0 2.5625-.324219 3.742188-1.007813l19.550781-11.289062 28.613281-3.917969c2.667969-.363281 5.289063.519531 7.191407 2.421875 1.902343 1.902344 2.785156 4.523438 2.417969 7.191406l-3.914063 28.609375-11.289063 19.554688c-2.074218 3.585937-.84375 8.171875 2.742188 10.242187 1.183594.683594 2.472656 1.007813 3.742188 1.007813 2.59375 0 5.113281-1.34375 6.503906-3.75l11.289062-19.554688 22.820313-17.695312c2.125-1.652344 4.835937-2.199219 7.4375-1.5 2.597656.695312 4.671875 2.523437 5.6875 5.015625l10.914062 26.738281v38.609375c0 4.140625 3.359375 7.5 7.5 7.5 4.144531 0 7.5-3.359375 7.5-7.5v-38.609375l10.914063-26.738281c1.019531-2.488282 3.09375-4.320313 5.691406-5.015625 2.601562-.695313 5.3125-.148438 7.4375 1.5l22.820312 17.695312 11.289063 19.554688c1.390625 2.40625 3.910156 3.75 6.503906 3.75 1.269531 0 2.558594-.324219 3.742188-1.003907 3.585937-2.074218 4.816406-6.660156 2.742187-10.246093l-11.285156-19.550781-3.917969-28.613282c-.367187-2.667968.515625-5.289062 2.417969-7.191406s4.527344-2.785156 7.191406-2.417969l28.613282 3.914063 19.550781 11.289062c1.179687.683594 2.46875 1.007813 3.742187 1.007813 2.59375 0 5.113282-1.347657 6.503906-3.75 2.070313-3.589844.839844-8.175781-2.746093-10.246094l-19.554688-11.289063-17.695312-22.820312c-1.648438-2.125-2.195313-4.835938-1.5-7.4375.695312-2.597656 2.523437-4.671875 5.019531-5.691406l26.734375-10.914063h38.609375c4.140625 0 7.5-3.355469 7.5-7.5 0-4.140625-3.359375-7.5-7.5-7.5zm-71.011719 12.027344c-6.875 2.804687-11.917969 8.527344-13.839843 15.695313-1.921876 7.171874-.414063 14.648437 4.136718 20.515624l7.339844 9.460938-11.867188-1.625c-7.355468-1.007812-14.582031 1.425781-19.832031 6.675781s-7.679687 12.476563-6.675781 19.832031l1.625 11.863282-9.460938-7.339844c-5.867187-4.546875-13.339843-6.054688-20.511718-4.132812-7.171875 1.921874-12.894532 6.964843-15.699219 13.835937l-4.523437 11.089844-4.527344-11.089844c-2.804688-6.871094-8.527344-11.914063-15.695313-13.835937-2.042969-.546876-4.109375-.816407-6.15625-.816407-5.140625 0-10.164062 1.699219-14.355469 4.953125l-9.464843 7.339844 1.625-11.867188c1.007812-7.355468-1.425781-14.582031-6.675781-19.832031-5.246094-5.25-12.476563-7.679687-19.832032-6.675781l-11.863281 1.625 7.339844-9.460938c4.546875-5.867187 6.054687-13.34375 4.132812-20.515624-1.917969-7.167969-6.960937-12.890626-13.835937-15.695313l-11.085938-4.523437 11.085938-4.527344c6.875-2.804688 11.917968-8.527344 13.835937-15.695313 1.921875-7.171875.414063-14.648437-4.132812-20.511719l-7.339844-9.464843 11.863281 1.625c7.355469 1.007812 14.582032-1.425781 19.832032-6.675781s7.683593-12.476563 6.675781-19.832032l-1.625-11.867187 9.464843 7.339843c5.863282 4.550782 13.339844 6.058594 20.511719 4.136719 7.167969-1.921875 12.890625-6.964843 15.695313-13.835937l4.527344-11.089844 4.523437 11.089844c2.804687 6.871094 8.527344 11.914062 15.695313 13.835937 7.171874 1.921875 14.648437.414063 20.515624-4.136719l9.460938-7.335937-1.625 11.863281c-1.003906 7.355469 1.425781 14.582032 6.675781 19.832032s12.476563 7.683593 19.832031 6.675781l11.867188-1.625-7.339844 9.460937c-4.550781 5.867188-6.058594 13.34375-4.136718 20.515625 1.921874 7.167969 6.964843 12.890625 13.835937 15.695313l11.089844 4.527344zm0 0" data-original="#000000" class="active-path" data-old_color="#000000" fill="#380B4C"/><path d="m47.988281 167.855469c.214844.296875.441407.78125.320313 1.429687l-7.414063 39.863282c-.527343 2.84375.625 5.738281 2.964844 7.4375 2.339844 1.699218 5.449219 1.902343 7.992187.519531l35.621094-19.371094c.578125-.3125 1.109375-.246094 1.457032-.132813.34375.113282.816406.371094 1.101562.964844l17.429688 36.609375c1.246093 2.613281 3.878906 4.273438 6.769531 4.273438 2.894531 0 5.53125-1.664063 6.773437-4.273438l17.433594-36.609375c.28125-.59375.753906-.851562 1.097656-.964844.347656-.113281.878906-.179687 1.457032.132813l35.621093 19.371094c2.542969 1.382812 5.652344 1.179687 7.992188-.519531 2.339843-1.703126 3.492187-4.597657 2.964843-7.441407l-7.414062-39.863281c-.121094-.644531.109375-1.132812.320312-1.425781.214844-.292969.605469-.664063 1.257813-.75l40.203125-5.265625c2.871094-.375 5.265625-2.367188 6.160156-5.117188.894532-2.753906.125-5.773437-1.972656-7.761718l-29.429688-27.894532c-.480468-.453125-.578124-.980468-.578124-1.34375 0-.363281.097656-.890625.578124-1.34375l29.429688-27.890625c2.097656-1.992187 2.867188-5.011719 1.972656-7.761719-.894531-2.75-3.289062-4.742187-6.160156-5.121093l-40.199219-5.265625c-.65625-.082032-1.046875-.453125-1.261719-.746094-.210937-.292969-.441406-.78125-.320312-1.425781l7.414062-39.863281c.53125-2.84375-.625-5.742188-2.964843-7.441407-2.339844-1.699219-5.449219-1.902343-7.988281-.519531l-35.621094 19.371094c-.582032.3125-1.113282.246094-1.457032.132812-.347656-.113281-.816406-.371094-1.101562-.964844l-17.433594-36.609374c-1.242187-2.609376-3.878906-4.273438-6.769531-4.273438-2.894531 0-5.527344 1.664062-6.773437 4.273438l-17.429688 36.609374c-.285156.59375-.757812.855469-1.101562.964844-.347657.113282-.878907.179688-1.457032-.132812l-35.621094-19.371094c-2.542968-1.382812-5.652343-1.179688-7.988281.519531-2.34375 1.703125-3.496093 4.597657-2.96875 7.441407l7.417969 39.863281c.121094.644531-.109375 1.132812-.324219 1.425781-.214843.296875-.605469.664062-1.257812.75l-40.203125 5.265625c-2.867188.375-5.265625 2.367187-6.160156 5.117187-.894532 2.753907-.125 5.773438 1.972656 7.761719l29.429687 27.894531c.480469.453126.578125.980469.578125 1.34375 0 .363282-.097656.890626-.578125 1.34375l-29.429687 27.890626c-2.097656 1.992187-2.867188 5.011718-1.972656 7.761718.894531 2.753906 3.292968 4.746094 6.160156 5.121094l40.203125 5.265625c.652343.085937 1.042969.453125 1.257812.746094zm-5.898437-35.898438c3.34375-3.167969 5.257812-7.625 5.257812-12.230469 0-4.605468-1.914062-9.0625-5.257812-12.230468l-18-17.058594 24.589844-3.222656c4.566406-.597656 8.734374-3.078125 11.441406-6.800782 2.707031-3.726562 3.777344-8.460937 2.933594-12.988281l-4.53125-24.378906 21.78125 11.847656c4.046874 2.199219 8.878906 2.644531 13.261718 1.21875 4.378906-1.421875 8.027344-4.621093 10.007813-8.78125l10.660156-22.386719 10.660156 22.386719c1.980469 4.160157 5.625 7.359375 10.007813 8.785157 4.378906 1.421874 9.210937.976562 13.257812-1.222657l21.785156-11.847656-4.535156 24.378906c-.84375 4.527344.226563 9.261719 2.933594 12.988281 2.707031 3.722657 6.878906 6.203126 11.445312 6.804688l24.585938 3.21875-17.996094 17.058594c-3.34375 3.167968-5.261718 7.625-5.261718 12.230468 0 4.605469 1.917968 9.0625 5.261718 12.230469l17.996094 17.058594-24.585938 3.21875c-4.566406.601563-8.738281 3.082031-11.445312 6.808594-2.707031 3.722656-3.777344 8.457031-2.933594 12.984375l4.535156 24.378906-21.785156-11.847656c-4.046875-2.199219-8.878906-2.644532-13.257812-1.21875-4.382813 1.421875-8.027344 4.621094-10.007813 8.78125l-10.660156 22.386718-10.660156-22.386718c-1.980469-4.160156-5.628907-7.359375-10.007813-8.78125-1.6875-.550782-3.445312-.820313-5.195312-.820313-2.792969 0-5.578125.6875-8.066406 2.042969l-21.78125 11.84375 4.53125-24.378906c.84375-4.527344-.226563-9.261719-2.933594-12.984375-2.707032-3.726563-6.875-6.207031-11.445313-6.804688l-24.585937-3.222656zm0 0" data-original="#000000" class="active-path" data-old_color="#000000" fill="#380B4C"/><path d="m328.144531 87.144531c26.808594 0 48.613281 21.808594 48.613281 48.613281 0 4.140626 3.359376 7.5 7.5 7.5 4.140626 0 7.5-3.359374 7.5-7.5 0-26.804687 21.808594-48.613281 48.613282-48.613281 4.140625 0 7.5-3.355469 7.5-7.5 0-4.140625-3.359375-7.5-7.5-7.5-9.996094 0-19.597656-3.007812-27.765625-8.703125-3.394531-2.367187-8.070313-1.535156-10.441407 1.863282-2.367187 3.398437-1.535156 8.074218 1.863282 10.441406 2.058594 1.4375 4.1875 2.742187 6.375 3.914062-11.082032 5.941406-20.203125 15.070313-26.144532 26.152344-5.941406-11.089844-15.078124-20.222656-26.164062-26.167969 20.019531-10.726562 33.664062-31.855469 33.664062-56.113281 0-4.140625-3.355468-7.5-7.5-7.5-4.140624 0-7.5 3.359375-7.5 7.5 0 26.804688-21.804687 48.613281-48.613281 48.613281-4.140625 0-7.5 3.359375-7.5 7.5 0 4.144531 3.359375 7.5 7.5 7.5zm0 0" data-original="#000000" class="active-path" data-old_color="#000000" fill="#380B4C"/><path d="m143.773438 368.742188c-26.804688 0-48.609376-21.808594-48.609376-48.613282 0-4.140625-3.359374-7.5-7.5-7.5-4.144531 0-7.5 3.359375-7.5 7.5 0 26.804688-21.808593 48.613282-48.613281 48.613282-4.144531 0-7.5 3.359374-7.5 7.5 0 4.140624 3.355469 7.5 7.5 7.5 9.996094 0 19.597657 3.011718 27.761719 8.703124 3.398438 2.371094 8.074219 1.535157 10.445312-1.863281 2.367188-3.398437 1.535157-8.070312-1.863281-10.441406-2.058593-1.433594-4.1875-2.738281-6.375-3.910156 11.078125-5.941407 20.203125-15.074219 26.140625-26.152344 5.941406 11.085937 15.078125 20.222656 26.167969 26.164063-20.019531 10.726562-33.667969 31.855468-33.667969 56.113281 0 4.140625 3.359375 7.5 7.5 7.5 4.144532 0 7.5-3.359375 7.5-7.5 0-26.804688 21.808594-48.613281 48.613282-48.613281 4.144531 0 7.5-3.359376 7.5-7.5 0-4.140626-3.355469-7.5-7.5-7.5zm0 0" data-original="#000000" class="active-path" data-old_color="#000000" fill="#380B4C"/></g> </svg>
