<?xml version="1.0"?>
<svg xmlns="http://www.w3.org/2000/svg" xmlns:xlink="http://www.w3.org/1999/xlink" version="1.1" id="Capa_1" x="0px" y="0px" viewBox="0 0 485.678 485.678" style="enable-background:new 0 0 485.678 485.678;" xml:space="preserve" width="512px" height="512px"><g><g>
	<g>
		<path d="M477.886,92.943c-0.944-2.896-3.448-5.008-6.464-5.448l-78.96-11.48L357.15,4.463c-2.696-5.472-11.656-5.472-14.352,0    l-35.312,71.552l-78.96,11.48c-3.016,0.44-5.52,2.544-6.464,5.448c-0.944,2.888-0.16,6.072,2.024,8.192l57.136,55.696    l-13.488,78.648c-0.512,3,0.72,6.032,3.184,7.824c2.472,1.8,5.728,2.032,8.424,0.608l70.632-37.136l70.624,37.136    c1.168,0.616,2.448,0.92,3.72,0.92c1.656,0,3.312-0.512,4.704-1.528c2.464-1.792,3.696-4.824,3.184-7.824l-13.488-78.648    l57.136-55.696C478.046,99.015,478.83,95.839,477.886,92.943z M404.542,148.311c-1.888,1.832-2.744,4.488-2.304,7.08    l11.464,66.824l-60-31.544c-2.328-1.232-5.12-1.232-7.448,0l-60,31.544l11.464-66.824c0.44-2.592-0.416-5.24-2.304-7.08    l-48.536-47.312l67.08-9.752c2.608-0.376,4.856-2.016,6.024-4.376l30-60.792l30,60.792c1.168,2.36,3.416,4,6.024,4.376    l67.08,9.752L404.542,148.311z" data-original="#000000" class="active-path" data-old_color="#000000" fill="#380B4C"/>
	</g>
</g><g>
	<g>
		<rect x="125.63" y="356.021" transform="matrix(0.7071 -0.7071 0.7071 0.7071 -172.5599 311.4456)" width="328.077" height="16" data-original="#000000" class="active-path" data-old_color="#000000" fill="#380B4C"/>
	</g>
</g><g>
	<g>
		<rect x="66.317" y="348.001" transform="matrix(0.7071 -0.7071 0.7071 0.7071 -180.9442 275.163)" width="350.725" height="16" data-original="#000000" class="active-path" data-old_color="#000000" fill="#380B4C"/>
	</g>
</g><g>
	<g>
		<rect x="15.32" y="359.987" transform="matrix(0.7071 -0.7071 0.7071 0.7071 -209.3277 230.6129)" width="316.781" height="16" data-original="#000000" class="active-path" data-old_color="#000000" fill="#380B4C"/>
	</g>
</g><g>
	<g>
		
			<rect x="-43.994" y="351.996" transform="matrix(0.7071 -0.7071 0.7071 0.7071 -217.7318 194.3409)" width="339.437" height="16" data-original="#000000" class="active-path" data-old_color="#000000" fill="#380B4C"/>
	</g>
</g><g>
	<g>
		
			<rect x="-47.346" y="287.983" transform="matrix(0.7071 -0.7071 0.7071 0.7071 -170.1341 181.2262)" width="362.077" height="16" data-original="#000000" class="active-path" data-old_color="#000000" fill="#380B4C"/>
	</g>
</g><g>
	<g>
		<rect x="-42.389" y="244.033" transform="matrix(0.7071 -0.7071 0.7071 0.7071 -142.5841 159.838)" width="328.077" height="16" data-original="#000000" class="active-path" data-old_color="#000000" fill="#380B4C"/>
	</g>
</g><g>
	<g>
		
			<rect x="-37.382" y="208.003" transform="matrix(0.7071 -0.7071 0.7071 0.7071 -120.6074 140.8332)" width="294.157" height="16" data-original="#000000" class="active-path" data-old_color="#000000" fill="#380B4C"/>
	</g>
</g><g>
	<g>
		<path d="M125.998,48.927c-0.944-2.896-3.448-5.008-6.464-5.448L90.03,39.191L76.838,12.455c-2.696-5.472-11.656-5.472-14.352,0    L49.31,39.199l-29.496,4.296c-3.016,0.432-5.52,2.544-6.464,5.44c-0.944,2.888-0.16,6.072,2.024,8.192l21.344,20.816l-5.04,29.376    c-0.512,3,0.72,6.032,3.184,7.824c2.472,1.808,5.736,2.032,8.424,0.608l26.392-13.872l26.384,13.864    c1.168,0.616,2.448,0.92,3.72,0.92c1.656,0,3.312-0.512,4.704-1.528c2.464-1.792,3.696-4.824,3.184-7.824l-5.04-29.376    l21.344-20.816C126.158,54.991,126.942,51.815,125.998,48.927z M88.454,69.423c-1.888,1.832-2.744,4.488-2.304,7.08l3.008,17.544    l-15.76-8.28c-1.16-0.616-2.44-0.928-3.72-0.928c-1.28,0-2.56,0.304-3.72,0.92l-15.76,8.28l3.008-17.544    c0.44-2.592-0.416-5.24-2.304-7.08L38.15,56.991l17.624-2.56c2.608-0.376,4.856-2.016,6.024-4.376l7.88-15.968l7.88,15.968    c1.168,2.36,3.416,4,6.024,4.376l17.624,2.56L88.454,69.423z" data-original="#000000" class="active-path" data-old_color="#000000" fill="#380B4C"/>
	</g>
</g><g>
	<g>
		<path d="M421.286,399.775c-0.944-2.896-3.448-5.008-6.456-5.448l-27.656-4.024l-12.368-25.056c-2.696-5.472-11.656-5.472-14.344,0    l-12.36,25.056l-27.656,4.024c-3.008,0.44-5.512,2.544-6.456,5.448c-0.944,2.888-0.16,6.072,2.024,8.192l20.008,19.504    l-4.72,27.536c-0.512,3,0.72,6.032,3.184,7.824c1.392,1.016,3.048,1.528,4.704,1.528c1.272,0,2.552-0.304,3.72-0.92l24.728-13    l24.736,13c2.696,1.424,5.96,1.184,8.424-0.608s3.696-4.824,3.184-7.824l-4.728-27.536l20.008-19.504    C421.446,405.839,422.23,402.663,421.286,399.775z M385.07,418.951c-1.88,1.832-2.744,4.488-2.304,7.08l2.696,15.712    l-14.104-7.416c-1.168-0.616-2.448-0.92-3.72-0.92c-1.272,0-2.56,0.304-3.72,0.92l-14.104,7.416l2.696-15.712    c0.44-2.592-0.416-5.24-2.304-7.08l-11.416-11.128l15.776-2.296c2.608-0.376,4.856-2.016,6.024-4.376l7.048-14.288l7.056,14.288    c1.168,2.36,3.416,4,6.016,4.376l15.776,2.296L385.07,418.951z" data-original="#000000" class="active-path" data-old_color="#000000" fill="#380B4C"/>
	</g>
</g><g>
	<g>
		<polygon points="197.678,24.007 197.678,8.007 181.678,8.007 181.678,24.007 165.678,24.007 165.678,40.007 181.678,40.007     181.678,56.007 197.678,56.007 197.678,40.007 213.678,40.007 213.678,24.007   " data-original="#000000" class="active-path" data-old_color="#000000" fill="#380B4C"/>
	</g>
</g><g>
	<g>
		<polygon points="469.678,288.007 469.678,272.007 453.678,272.007 453.678,288.007 437.678,288.007 437.678,304.007     453.678,304.007 453.678,320.007 469.678,320.007 469.678,304.007 485.678,304.007 485.678,288.007   " data-original="#000000" class="active-path" data-old_color="#000000" fill="#380B4C"/>
	</g>
</g><g>
	<g>
		<polygon points="61.678,176.007 61.678,160.007 45.678,160.007 45.678,176.007 29.678,176.007 29.678,192.007 45.678,192.007     45.678,208.007 61.678,208.007 61.678,192.007 77.678,192.007 77.678,176.007   " data-original="#000000" class="active-path" data-old_color="#000000" fill="#380B4C"/>
	</g>
</g><g>
	<g>
		<rect x="469.678" y="0.007" width="16" height="16" data-original="#000000" class="active-path" data-old_color="#000000" fill="#380B4C"/>
	</g>
</g><g>
	<g>
		<rect x="413.678" y="32.007" width="16" height="16" data-original="#000000" class="active-path" data-old_color="#000000" fill="#380B4C"/>
	</g>
</g><g>
	<g>
		<rect x="453.678" y="192.007" width="16" height="16" data-original="#000000" class="active-path" data-old_color="#000000" fill="#380B4C"/>
	</g>
</g><g>
	<g>
		<rect x="453.678" y="416.007" width="16" height="16" data-original="#000000" class="active-path" data-old_color="#000000" fill="#380B4C"/>
	</g>
</g><g>
	<g>
		<rect x="133.678" y="96.007" width="16" height="16" data-original="#000000" class="active-path" data-old_color="#000000" fill="#380B4C"/>
	</g>
</g></g> </svg>
