<?xml version="1.0"?>
<svg xmlns="http://www.w3.org/2000/svg" height="512px" viewBox="0 0 512 512" width="512px"><g><path d="m290.089844 206.148438c-3.851563 0-7.699219-1.191407-10.984375-3.582032-6.585938-4.78125-9.308594-13.195312-6.777344-20.929687l16.871094-51.535157-44.019531-31.835937c-6.589844-4.761719-9.332032-13.160156-6.828126-20.894531 2.503907-7.734375 9.644532-12.933594 17.777344-12.933594h54.347656l16.644532-51.5c2.503906-7.738281 9.648437-12.9375 17.78125-12.9375 8.132812 0 15.28125 5.199219 17.78125 12.9375l5.070312 15.683594c1.699219 5.253906-1.183594 10.890625-6.441406 12.589844-5.253906 1.699218-10.890625-1.183594-12.589844-6.4375l-3.820312-11.816407-15.691406 48.542969c-2.5 7.738281-9.644532 12.9375-17.78125 12.9375h-51.242188l41.507812 30.023438c6.609376 4.777343 9.347657 13.199218 6.808594 20.953124l-15.898437 48.574219 41.28125-30.132812c6.589843-4.808594 15.445312-4.808594 22.035156 0l41.28125 30.132812-15.898437-48.574219c-2.539063-7.753906.199218-16.175781 6.808593-20.957031l41.507813-30.019531h-17.542969c-5.519531 0-10-4.476562-10-10s4.480469-10 10-10h21.601563c8.128906 0 15.273437 5.199219 17.777343 12.933594 2.503907 7.734375-.242187 16.132812-6.828125 20.894531l-44.019531 31.835937 16.867187 51.535157c2.535157 7.734375-.191406 16.144531-6.773437 20.929687-6.585937 4.785156-15.425781 4.773438-22-.023437l-43.800781-31.96875-43.796875 31.96875c-3.292969 2.40625-7.15625 3.605469-11.015625 3.605469zm81.992187-124.410157c-2.617187 0-5.234375-1.019531-7.195312-3.054687-.039063-.039063-.121094-.125-.160157-.164063-3.765624-4.039062-3.546874-10.367187.488282-14.136719 4.027344-3.757812 10.339844-3.546874 14.109375.464844 3.785156 3.976563 3.65625 10.265625-.300781 14.082032-1.9375 1.875-4.441407 2.808593-6.941407 2.808593zm.617188-10.660156-.660157.617187zm0 0" data-original="#000000" class="active-path" data-old_color="#000000" fill="#FFFFFF"/><path d="m389.664062 512c-.648437 0-1.304687-.035156-1.960937-.101562-8.007813-.84375-14.5-6.703126-16.160156-14.585938l-12.496094-59.433594-60.417969-6.21875c-8.011718-.824218-14.515625-6.667968-16.191406-14.546875-1.675781-7.875 1.890625-15.863281 8.875-19.875l52.664062-30.25-12.757812-59.382812c-1.691406-7.875 1.859375-15.867188 8.832031-19.894531 6.976563-4.027344 15.675781-3.101563 21.644531 2.300781l45.046876 40.738281 52.535156-30.484375c6.960937-4.042969 15.664062-3.136719 21.648437 2.25 5.984375 5.390625 7.792969 13.949219 4.503907 21.296875l-24.824219 55.429688 45.222656 40.542968c5.996094 5.375 7.824219 13.929688 4.550781 21.285156-3.277344 7.359376-10.863281 11.722657-18.863281 10.863282l-60.390625-6.480469-24.582031 55.539063c-2.992188 6.761718-9.617188 11.007812-16.878907 11.007812zm-84.324218-99.753906 56.851562 5.851562c8.03125.824219 14.539063 6.6875 16.199219 14.585938l11.761719 55.925781 23.128906-52.257813c3.269531-7.382812 10.851562-11.765624 18.878906-10.902343l56.828125 6.097656-42.558593-38.148437c-6.007813-5.386719-7.828126-13.957032-4.53125-21.320313l23.359374-52.160156-49.429687 28.683593c-6.984375 4.050782-15.695313 3.132813-21.679687-2.277343l-42.390626-38.335938 12.003907 55.875c1.699219 7.894531-1.867188 15.898438-8.867188 19.917969zm0 0" data-original="#000000" class="active-path" data-old_color="#000000" fill="#FFFFFF"/><path d="m100.425781 366.910156c-.625 0-1.257812-.035156-1.894531-.101562-7.734375-.8125-14.011719-6.472656-15.609375-14.085938l-11.464844-54.519531-55.417969-5.703125c-7.738281-.796875-14.023437-6.441406-15.640624-14.050781-1.617188-7.609375 1.828124-15.328125 8.574218-19.203125l48.304688-27.75-11.699219-54.464844c-1.636719-7.605469 1.792969-15.332031 8.53125-19.222656 6.738281-3.886719 15.140625-2.996094 20.910156 2.222656l41.320313 37.367188 48.183594-27.960938c6.730468-3.902344 15.132812-3.027344 20.917968 2.175781 5.78125 5.207031 7.527344 13.476563 4.347656 20.574219l-22.769531 50.84375 41.480469 37.1875c5.792969 5.191406 7.558594 13.457031 4.394531 20.5625-3.164062 7.109375-10.488281 11.328125-18.21875 10.496094l-55.394531-5.945313-22.546875 50.941407c-2.890625 6.53125-9.292969 10.632812-16.308594 10.636718zm-75.738281-93.625 50.371094 5.183594c7.753906.796875 14.042968 6.460938 15.648437 14.089844l10.421875 49.558594 20.492188-46.304688c3.15625-7.132812 10.488281-11.371094 18.242187-10.53125l50.347657 5.402344-37.703126-33.800782c-5.808593-5.203124-7.566406-13.484374-4.378906-20.597656l20.695313-46.21875-43.796875 25.417969c-6.746094 3.914063-15.164063 3.027344-20.945313-2.203125l-37.558593-33.964844 10.636718 49.507813c1.640625 7.625-1.804687 15.355469-8.566406 19.238281zm0 0" data-original="#000000" class="active-path" data-old_color="#000000" fill="#FFFFFF"/><path d="m134.09375 73.8125c-5.523438 0-10-4.476562-10-10v-13.8125c0-5.523438 4.476562-10 10-10s10 4.476562 10 10v13.8125c0 5.523438-4.476562 10-10 10zm0 0" data-original="#000000" class="active-path" data-old_color="#000000" fill="#FFFFFF"/><path d="m134.09375 140c-5.523438 0-10-4.476562-10-10v-13.8125c0-5.523438 4.476562-10 10-10s10 4.476562 10 10v13.8125c0 5.523438-4.476562 10-10 10zm0 0" data-original="#000000" class="active-path" data-old_color="#000000" fill="#FFFFFF"/><path d="m174.09375 100h-13.8125c-5.519531 0-10-4.476562-10-10s4.480469-10 10-10h13.8125c5.523438 0 10 4.476562 10 10s-4.476562 10-10 10zm0 0" data-original="#000000" class="active-path" data-old_color="#000000" fill="#FFFFFF"/><path d="m107.90625 100h-13.8125c-5.523438 0-10-4.476562-10-10s4.476562-10 10-10h13.8125c5.523438 0 10 4.476562 10 10s-4.476562 10-10 10zm0 0" data-original="#000000" class="active-path" data-old_color="#000000" fill="#FFFFFF"/><path d="m171.78125 405.621094c-5.519531 0-10-4.476563-10-10v-13.808594c0-5.523438 4.480469-10 10-10 5.523438 0 10 4.476562 10 10v13.808594c0 5.523437-4.476562 10-10 10zm0 0" data-original="#000000" class="active-path" data-old_color="#000000" fill="#FFFFFF"/><path d="m171.78125 471.8125c-5.519531 0-10-4.476562-10-10v-13.8125c0-5.523438 4.480469-10 10-10 5.523438 0 10 4.476562 10 10v13.8125c0 5.523438-4.476562 10-10 10zm0 0" data-original="#000000" class="active-path" data-old_color="#000000" fill="#FFFFFF"/><path d="m211.78125 431.8125h-13.808594c-5.523437 0-10-4.476562-10-10s4.476563-10 10-10h13.808594c5.523438 0 10 4.476562 10 10s-4.476562 10-10 10zm0 0" data-original="#000000" class="active-path" data-old_color="#000000" fill="#FFFFFF"/><path d="m145.59375 431.8125h-13.8125c-5.519531 0-10-4.476562-10-10s4.480469-10 10-10h13.8125c5.523438 0 10 4.476562 10 10s-4.476562 10-10 10zm0 0" data-original="#000000" class="active-path" data-old_color="#000000" fill="#FFFFFF"/><path d="m30 511.933594c-16.542969 0-30-13.457032-30-30 0-16.542969 13.457031-30 30-30s30 13.457031 30 30c0 16.542968-13.457031 30-30 30zm0-40c-5.515625 0-10 4.484375-10 10 0 5.511718 4.484375 10 10 10s10-4.488282 10-10c0-5.515625-4.484375-10-10-10zm0 0" data-original="#000000" class="active-path" data-old_color="#000000" fill="#FFFFFF"/><path d="m468 266.128906c-16.542969 0-30-13.460937-30-30 0-16.542968 13.457031-30 30-30s30 13.457032 30 30c0 16.539063-13.457031 30-30 30zm0-40c-5.515625 0-10 4.484375-10 10 0 5.511719 4.484375 10 10 10s10-4.488281 10-10c0-5.515625-4.484375-10-10-10zm0 0" data-original="#000000" class="active-path" data-old_color="#000000" fill="#FFFFFF"/></g> </svg>
