<?xml version="1.0"?>
<svg xmlns="http://www.w3.org/2000/svg" xmlns:xlink="http://www.w3.org/1999/xlink" version="1.1" id="Capa_1" x="0px" y="0px" viewBox="0 0 512 512" style="enable-background:new 0 0 512 512;" xml:space="preserve" width="512px" height="512px"><g><g>
	<g>
		<path d="M509.663,328.69l-41.324-61.6l34.307-65.767c2.547-4.883,1.945-10.797-1.531-15.068    c-3.478-4.271-9.146-6.058-14.444-4.553l-71.355,20.266l-51.947-52.949c-3.856-3.932-9.663-5.188-14.803-3.201    c-5.137,1.987-8.589,6.827-8.795,12.331l-2.776,74.124l-66.409,33.042c-4.931,2.453-7.92,7.591-7.617,13.09    c0.303,5.499,3.84,10.277,9.009,12.173l69.639,25.548l10.902,73.368c0.809,5.447,4.771,9.879,10.093,11.29    c1.173,0.311,2.36,0.462,3.537,0.462c4.161,0,8.174-1.891,10.826-5.268l45.815-58.335l73.149,12.303    c5.435,0.914,10.869-1.485,13.856-6.111C512.782,339.209,512.73,333.265,509.663,328.69z M420.887,322.112    c-2.711-0.454-5.447,0.605-7.143,2.764l-46.807,59.597l-11.139-74.957c-0.404-2.715-2.259-4.993-4.836-5.938l-71.146-26.101    l67.847-33.757c2.458-1.223,4.051-3.691,4.154-6.434l2.836-75.728l53.072,54.095c1.922,1.958,4.76,2.711,7.402,1.962    l72.899-20.705l-35.049,67.191c-1.27,2.434-1.108,5.367,0.421,7.646l42.218,62.934L420.887,322.112z" data-original="#000000" class="active-path" data-old_color="#000000" fill="#380B4C"/>
	</g>
</g><g>
	<g>
		<path d="M324.322,336.62c-1.182-3.969-5.354-6.236-9.328-5.051c-13.354,3.97-27.172,7.49-41.07,10.462    c-63.982,13.681-126.415,15.317-175.797,4.61c-23.536-5.104-42.69-12.71-56.93-22.609c-13.971-9.713-22.456-21.186-25.217-34.099    c-3.172-14.832,1.272-30.897,13.208-47.748c12.012-16.959,31.49-34.118,56.329-49.623c3.514-2.193,4.584-6.82,2.391-10.333    c-2.194-3.515-6.821-4.584-10.334-2.391C21.239,215.004-6.557,256.275,1.312,293.071c6.93,32.408,40.183,56.64,93.635,68.232    c22.54,4.888,47.626,7.318,74.257,7.318c34.12,0,70.777-3.991,107.857-11.92c14.28-3.053,28.48-6.671,42.209-10.753    C323.24,344.767,325.501,340.591,324.322,336.62z" data-original="#000000" class="active-path" data-old_color="#000000" fill="#380B4C"/>
	</g>
</g><g>
	<g>
		<path d="M130.366,160.646c-1.726-3.766-6.173-5.422-9.942-3.696c-4.259,1.95-8.496,3.976-12.594,6.02    c-3.706,1.849-5.212,6.353-3.362,10.059c1.312,2.632,3.962,4.153,6.716,4.153c1.125,0,2.268-0.254,3.343-0.791    c3.948-1.97,8.033-3.922,12.143-5.804C130.436,168.863,132.091,164.412,130.366,160.646z" data-original="#000000" class="active-path" data-old_color="#000000" fill="#380B4C"/>
	</g>
</g><g>
	<g>
		<path d="M359.954,117.421c-0.46-4.116-4.155-7.08-8.286-6.621c-2.821,0.315-5.737,0.667-8.667,1.047    c-4.108,0.532-7.007,4.293-6.475,8.401c0.489,3.783,3.715,6.539,7.428,6.539c0.321,0,0.646-0.021,0.973-0.063    c2.844-0.368,5.673-0.71,8.407-1.016C357.45,125.248,360.415,121.538,359.954,117.421z" data-original="#000000" class="active-path" data-old_color="#000000" fill="#380B4C"/>
	</g>
</g><g>
	<g>
		<path d="M319.232,123.045c-0.777-4.069-4.707-6.731-8.773-5.961c-21.06,4.02-42.651,9.327-64.175,15.776    c-58.276,17.461-110.847,41.64-148.031,68.085c-39.356,27.991-57.264,55.982-50.422,78.815    c6.001,20.031,29.49,32.784,67.93,36.882c8.782,0.937,18.259,1.398,28.306,1.398c29.957,0,64.949-4.114,101.4-12.049    c4.047-0.881,6.613-4.876,5.732-8.924c-0.88-4.047-4.87-6.613-8.924-5.732c-47.148,10.264-91.512,13.954-124.925,10.392    c-31.037-3.31-51.139-12.885-55.149-26.272c-4.711-15.724,12.016-39.007,44.747-62.285c35.881-25.52,86.894-48.938,143.64-65.939    c21.036-6.302,42.126-11.487,62.683-15.411C317.339,131.042,320.008,127.114,319.232,123.045z" data-original="#000000" class="active-path" data-old_color="#000000" fill="#380B4C"/>
	</g>
</g></g> </svg>
