<?xml version="1.0"?>
<svg xmlns="http://www.w3.org/2000/svg" xmlns:xlink="http://www.w3.org/1999/xlink" version="1.1" id="Layer_1" x="0px" y="0px" viewBox="0 0 512 512" style="enable-background:new 0 0 512 512;" xml:space="preserve" width="512px" height="512px"><g><g>
	<g>
		<path d="M493.559,18.481c-8.424-8.423-23.558-18.463-47.82-18.463c-30.994,0-72.711,17.452-123.992,51.87    c-11.353,7.62-23.14,16.057-35.07,25.094c-10.036-1.727-20.287-2.647-30.677-2.647C155.831,74.336,74.336,155.83,74.336,256    c0,10.386,0.918,20.634,2.645,30.665c-15.568,20.53-29.117,40.297-40.251,58.78c-16.432,27.277-27.47,51.493-32.805,71.977    c-10.519,40.382,2.087,63.672,14.517,76.097c8.424,8.423,23.559,18.463,47.822,18.463c30.995,0,72.712-17.452,123.993-51.87    c11.456-7.689,23.16-16.066,35.03-25.053c10.132,1.726,20.447,2.607,30.715,2.607c100.169,0,181.664-81.494,181.664-181.664    c0-10.262-0.879-20.568-2.603-30.692c15.427-20.347,28.977-40.106,40.209-58.752c16.431-27.273,27.469-51.49,32.805-71.977    C518.594,54.195,505.987,30.907,493.559,18.481z M256,421.148c-4.082,0-8.174-0.157-12.255-0.459    c30.695-24.527,62.201-52.836,93.164-83.793c30.891-30.885,59.273-62.492,83.782-93.137c0.302,4.076,0.458,8.163,0.458,12.241    C421.149,347.063,347.063,421.148,256,421.148z M492.094,90.415c-4.937,18.952-15.357,41.702-30.97,67.617    c-11.384,18.897-25.218,38.986-41.037,59.698c-0.252,0.287-0.486,0.59-0.695,0.908c-26.558,34.677-58.656,71.082-94.159,106.578    c-48.589,48.58-98.446,90.483-144.182,121.18c-48.511,32.56-87.131,49.068-114.789,49.068c-18.609,0-29.927-7.41-36.144-13.626    c-9.376-9.375-18.759-27.439-10.211-60.255c4.936-18.949,15.356-41.699,30.97-67.619c8.826-14.649,19.235-30.161,31.011-46.252    c14.804,49.642,50.483,91.693,99.051,113.759c1.108,0.504,2.268,0.742,3.411,0.742c3.139,0,6.14-1.8,7.523-4.844    c1.886-4.152,0.05-9.047-4.102-10.933c-58.874-26.749-96.917-85.799-96.917-150.438c0-91.063,74.086-165.149,165.149-165.149    c64.644,0,123.695,38.045,150.441,96.925c1.886,4.152,6.781,5.989,10.934,4.103c4.152-1.886,5.988-6.781,4.103-10.934    c-22.062-48.566-64.106-84.245-113.742-99.053c7.881-5.759,15.65-11.211,23.217-16.29c48.511-32.56,87.131-49.068,114.788-49.068    c18.609,0,29.927,7.41,36.145,13.626C491.259,39.535,500.642,57.597,492.094,90.415z" data-original="#000000" class="active-path" data-old_color="#000000" fill="#380B4C"/>
	</g>
</g><g>
	<g>
		<path d="M316.694,266.859l-3.713-1.207c0.531-3.141,0.821-6.363,0.821-9.654c0-3.409-0.314-6.744-0.882-9.992l2.672-0.869    c4.337-1.409,6.711-6.068,5.301-10.406c-1.409-4.338-6.068-6.713-10.405-5.301l-2.725,0.885    c-2.995-6.011-7.006-11.425-11.806-16.026l1.765-2.43c2.681-3.689,1.862-8.853-1.828-11.534c-3.689-2.68-8.854-1.863-11.534,1.828    l-1.829,2.517c-5.778-2.999-12.121-5.049-18.826-5.946v-3.281c0-4.56-3.697-8.257-8.257-8.257c-4.56,0-8.257,3.697-8.257,8.257    v3.423c-6.609,1.015-12.851,3.157-18.528,6.216l-2.127-2.929c-2.68-3.689-7.845-4.506-11.534-1.828    c-3.689,2.681-4.507,7.845-1.828,11.534l2.216,3.05c-4.597,4.544-8.436,9.851-11.313,15.712l-3.669-1.192    c-4.34-1.411-8.996,0.963-10.405,5.301c-1.409,4.337,0.963,8.996,5.301,10.406l3.713,1.207c-0.531,3.141-0.821,6.363-0.821,9.654    c0,3.291,0.291,6.511,0.821,9.654l-3.713,1.207c-4.337,1.409-6.711,6.068-5.301,10.406c1.134,3.489,4.371,5.708,7.851,5.708    c0.846,0,1.705-0.131,2.553-0.406l3.669-1.192c2.877,5.863,6.716,11.168,11.313,15.712l-2.216,3.05    c-2.681,3.689-1.862,8.853,1.828,11.534c1.465,1.065,3.164,1.578,4.847,1.578c2.553,0,5.071-1.18,6.687-3.404l2.127-2.929    c5.677,3.06,11.918,5.202,18.528,6.216v3.423c0,4.56,3.697,8.257,8.257,8.257c4.56,0,8.257-3.697,8.257-8.257v-3.281    c6.706-0.898,13.048-2.947,18.826-5.946l1.829,2.517c1.616,2.224,4.134,3.404,6.687,3.404c1.682,0,3.381-0.513,4.847-1.578    c3.689-2.681,4.507-7.845,1.828-11.534l-1.765-2.43c4.883-4.68,8.953-10.198,11.963-16.333l3.668,1.192    c0.849,0.275,1.708,0.406,2.553,0.406c3.481,0,6.718-2.219,7.851-5.708C323.404,272.926,321.03,268.268,316.694,266.859z     M256,297.287c-22.766,0-41.287-18.521-41.287-41.287c0-22.766,18.521-41.287,41.287-41.287c22.766,0,41.287,18.521,41.287,41.287    C297.287,278.766,278.765,297.287,256,297.287z" data-original="#000000" class="active-path" data-old_color="#000000" fill="#380B4C"/>
	</g>
</g><g>
	<g>
		<path d="M256,30.296c-4.56,0-8.257,3.697-8.257,8.257v11.01c0,4.56,3.697,8.257,8.257,8.257c4.56,0,8.257-3.697,8.257-8.257    v-11.01C264.258,33.993,260.561,30.296,256,30.296z" data-original="#000000" class="active-path" data-old_color="#000000" fill="#380B4C"/>
	</g>
</g><g>
	<g>
		<path d="M200.06,57.116l-3.402-10.47c-1.409-4.337-6.068-6.714-10.404-5.301c-4.337,1.409-6.712,6.068-5.301,10.404l3.402,10.469    c1.134,3.489,4.371,5.709,7.851,5.709c0.846,0,1.705-0.131,2.553-0.406C199.095,66.111,201.47,61.453,200.06,57.116z" data-original="#000000" class="active-path" data-old_color="#000000" fill="#380B4C"/>
	</g>
</g><g>
	<g>
		<path d="M141.341,84.135l-6.471-8.907c-2.681-3.689-7.845-4.506-11.534-1.828c-3.689,2.681-4.508,7.845-1.828,11.534l6.471,8.908    c1.616,2.224,4.134,3.404,6.687,3.404c1.682,0,3.381-0.513,4.847-1.578C143.202,92.988,144.02,87.824,141.341,84.135z" data-original="#000000" class="active-path" data-old_color="#000000" fill="#380B4C"/>
	</g>
</g><g>
	<g>
		<path d="M93.843,127.978l-8.907-6.471c-3.691-2.682-8.854-1.863-11.534,1.828c-2.681,3.688-1.862,8.852,1.828,11.533l8.907,6.471    c1.465,1.065,3.164,1.578,4.847,1.578c2.553,0,5.071-1.18,6.687-3.404C98.351,135.823,97.532,130.659,93.843,127.978z" data-original="#000000" class="active-path" data-old_color="#000000" fill="#380B4C"/>
	</g>
</g><g>
	<g>
		<path d="M62.219,184.354l-10.47-3.402c-4.337-1.41-8.996,0.963-10.404,5.301c-1.41,4.338,0.963,8.996,5.301,10.405l10.47,3.402    c0.848,0.275,1.708,0.406,2.553,0.406c3.481,0,6.718-2.219,7.851-5.709C68.929,190.421,66.556,185.763,62.219,184.354z" data-original="#000000" class="active-path" data-old_color="#000000" fill="#380B4C"/>
	</g>
</g><g>
	<g>
		<path d="M49.564,247.742h-11.01c-4.56,0-8.257,3.697-8.257,8.257s3.697,8.257,8.257,8.257h11.01c4.56,0,8.257-3.697,8.257-8.257    S54.124,247.742,49.564,247.742z" data-original="#000000" class="active-path" data-old_color="#000000" fill="#380B4C"/>
	</g>
</g><g>
	<g>
		<path d="M95.67,372.486c-2.681-3.688-7.845-4.507-11.534-1.827l-8.907,6.471c-3.689,2.681-4.508,7.845-1.828,11.534    c1.616,2.224,4.134,3.404,6.687,3.404c1.682,0,3.381-0.513,4.847-1.578l8.907-6.471C97.532,381.339,98.35,376.175,95.67,372.486z" data-original="#000000" class="active-path" data-old_color="#000000" fill="#380B4C"/>
	</g>
</g><g>
	<g>
		<path d="M139.513,416.329c-3.691-2.682-8.854-1.863-11.534,1.828l-6.471,8.907c-2.681,3.689-1.862,8.854,1.828,11.534    c1.465,1.065,3.164,1.578,4.847,1.578c2.553,0,5.071-1.18,6.687-3.404l6.471-8.907    C144.02,424.174,143.202,419.009,139.513,416.329z" data-original="#000000" class="active-path" data-old_color="#000000" fill="#380B4C"/>
	</g>
</g><g>
	<g>
		<path d="M256,454.178c-4.56,0-8.257,3.697-8.257,8.257v11.01c0,4.56,3.697,8.257,8.257,8.257c4.56,0,8.257-3.697,8.257-8.257    v-11.01C264.258,457.875,260.561,454.178,256,454.178z" data-original="#000000" class="active-path" data-old_color="#000000" fill="#380B4C"/>
	</g>
</g><g>
	<g>
		<path d="M331.047,460.251l-3.402-10.472c-1.409-4.337-6.068-6.713-10.404-5.301c-4.337,1.409-6.712,6.068-5.301,10.404    l3.402,10.47c1.134,3.489,4.371,5.709,7.851,5.709c0.846,0,1.705-0.131,2.553-0.406    C330.083,469.246,332.458,464.588,331.047,460.251z" data-original="#000000" class="active-path" data-old_color="#000000" fill="#380B4C"/>
	</g>
</g><g>
	<g>
		<path d="M390.491,427.062l-6.471-8.906c-2.681-3.689-7.844-4.506-11.534-1.828c-3.689,2.681-4.507,7.845-1.828,11.534l6.471,8.907    c1.616,2.224,4.134,3.404,6.687,3.404c1.682,0,3.381-0.513,4.847-1.578C392.353,435.915,393.171,430.751,390.491,427.062z" data-original="#000000" class="active-path" data-old_color="#000000" fill="#380B4C"/>
	</g>
</g><g>
	<g>
		<path d="M436.771,377.13l-8.907-6.471c-3.69-2.68-8.854-1.863-11.534,1.828c-2.681,3.689-1.862,8.853,1.828,11.534l8.907,6.471    c1.465,1.065,3.164,1.578,4.847,1.578c2.553,0,5.071-1.18,6.687-3.404C441.279,384.974,440.461,379.811,436.771,377.13z" data-original="#000000" class="active-path" data-old_color="#000000" fill="#380B4C"/>
	</g>
</g><g>
	<g>
		<path d="M465.355,315.341l-10.47-3.402c-4.339-1.413-8.996,0.964-10.404,5.301c-1.409,4.337,0.964,8.995,5.301,10.404l10.47,3.402    c0.848,0.275,1.708,0.406,2.553,0.406c3.48,0,6.718-2.219,7.851-5.709C472.066,321.407,469.692,316.749,465.355,315.341z" data-original="#000000" class="active-path" data-old_color="#000000" fill="#380B4C"/>
	</g>
</g><g>
	<g>
		<path d="M473.446,247.742h-11.01c-4.56,0-8.257,3.697-8.257,8.257s3.697,8.257,8.257,8.257h11.01c4.56,0,8.257-3.697,8.257-8.257    S478.007,247.742,473.446,247.742z" data-original="#000000" class="active-path" data-old_color="#000000" fill="#380B4C"/>
	</g>
</g><g>
	<g>
		<path d="M438.598,123.333c-2.681-3.688-7.843-4.506-11.534-1.827l-8.907,6.471c-3.689,2.681-4.507,7.845-1.828,11.534    c1.616,2.224,4.133,3.404,6.687,3.404c1.682,0,3.381-0.513,4.847-1.578l8.907-6.471    C440.459,132.186,441.277,127.023,438.598,123.333z" data-original="#000000" class="active-path" data-old_color="#000000" fill="#380B4C"/>
	</g>
</g><g>
	<g>
		<path d="M388.664,73.401c-3.691-2.682-8.854-1.862-11.534,1.828l-6.471,8.907c-2.681,3.689-1.862,8.854,1.828,11.534    c1.465,1.065,3.164,1.578,4.847,1.578c2.553,0,5.071-1.18,6.687-3.404l6.471-8.907C393.172,81.246,392.354,76.082,388.664,73.401z    " data-original="#000000" class="active-path" data-old_color="#000000" fill="#380B4C"/>
	</g>
</g></g> </svg>
