<?xml version="1.0"?>
<svg xmlns="http://www.w3.org/2000/svg" id="Layer_5" enable-background="new 0 0 64 64" height="512px" viewBox="0 0 64 64" width="512px" class=""><g><path d="m42.492 36.729-2.138-1.282c-2.069-1.242-3.354-3.512-3.354-5.926v-2.521h-2.198c-2.11 0-4.077-.945-5.396-2.593l-1.625-2.031-.684-.734-.781.625c-2.542 2.032-6.093 2.033-8.691-.047l-.894-.715-1.285 2.141c-1.241 2.069-3.51 3.354-5.925 3.354h-2.521v2.521c0 2.413-1.285 4.683-3.354 5.925l-2.142 1.284.83 1.038c1.998 2.498 2.027 6.01.071 8.542l-.901 1.17 1.984 1.121c2.166 1.223 3.512 3.528 3.512 6.016v2.383h2.697c2.814 0 5.323 1.682 6.39 4.278l.543 1.35 1.052-.851c2.503-2.023 6.146-2.035 8.692.002l.894.717 1.286-2.143c1.241-2.068 3.51-3.353 5.925-3.353h2.521v-2.521c0-2.413 1.285-4.683 3.354-5.925l1.16-.696.935-.647-.715-.894c-2.034-2.541-2.034-6.091 0-8.632zm-3.167 10.109c-2.668 1.602-4.325 4.529-4.325 7.641v.521h-.521c-3.112 0-6.04 1.658-7.64 4.326l-.143.238c-1.424-.872-3.047-1.308-4.67-1.308-1.589 0-3.179.418-4.58 1.254-1.568-2.772-4.501-4.51-7.749-4.51h-.697v-.383c0-3.208-1.735-6.181-4.528-7.758l-.008-.004c1.86-2.924 1.852-6.646-.012-9.56l.223-.133c2.668-1.602 4.325-4.529 4.325-7.641v-.521h.521c3.112 0 6.04-1.658 7.64-4.326l.14-.232c2.908 1.816 6.572 1.799 9.51-.078l1.033 1.292c1.7 2.125 4.236 3.344 6.958 3.344h.198v.521c0 3.111 1.657 6.039 4.325 7.64l.232.14c-1.793 2.871-1.8 6.479.005 9.395z" data-original="#000000" class="active-path" data-old_color="#000000" fill="#380B4C"/><path d="m22 28c-7.72 0-14 6.28-14 14s6.28 14 14 14 14-6.28 14-14-6.28-14-14-14zm0 26c-6.617 0-12-5.383-12-12s5.383-12 12-12 12 5.383 12 12-5.383 12-12 12z" data-original="#000000" class="active-path" data-old_color="#000000" fill="#380B4C"/><path d="m22 50v2c.77 0 1.537-.088 2.279-.261l-.455-1.947c-.593.138-1.207.208-1.824.208z" data-original="#000000" class="active-path" data-old_color="#000000" fill="#380B4C"/><path d="m25.616 49.138.906 1.783c3.379-1.715 5.478-5.134 5.478-8.921h-2c0 3.03-1.68 5.765-4.384 7.138z" data-original="#000000" class="active-path" data-old_color="#000000" fill="#380B4C"/><path d="m1.757 20.243c.406.406 1.046.757 2.042.757.893 0 2.071-.282 3.624-1.058.247-.124.499-.261.753-.403.889.295 1.837.461 2.824.461 4.963 0 9-4.038 9-9 0-.988-.166-1.937-.462-2.827 1.507-2.686 2.013-5.108.705-6.416-1.204-1.202-3.475-.938-6.409.708-.892-.298-1.843-.465-2.834-.465-4.963 0-9 4.038-9 9 0 .991.167 1.941.464 2.834-1.645 2.935-1.91 5.206-.707 6.409zm16.243-9.243c0 3.86-3.141 7-7 7-.143 0-.283-.013-.424-.021 1.328-.971 2.679-2.128 3.977-3.426 1.264-1.264 2.433-2.625 3.425-3.983.009.143.022.285.022.43zm.829-7.829c.32.32.234 1.316-.397 2.762-.634-.927-1.436-1.729-2.363-2.364 1.578-.688 2.498-.661 2.76-.398zm-7.829.829c2.788 0 5.194 1.643 6.319 4.008-.94 1.502-2.304 3.254-4.18 5.13-1.694 1.694-3.471 3.134-5.136 4.178-2.362-1.125-4.003-3.53-4.003-6.316 0-3.86 3.141-7 7-7zm-5.069 14.431c-1.504.654-2.475.684-2.76.398-.263-.263-.291-1.182.398-2.76.634.926 1.436 1.728 2.362 2.362z" data-original="#000000" class="active-path" data-old_color="#000000" fill="#380B4C"/><path d="m11 8v-2c-2.757 0-5 2.243-5 5h2c0-1.654 1.346-3 3-3z" data-original="#000000" class="active-path" data-old_color="#000000" fill="#380B4C"/><path d="m48 31c8.271 0 15-6.729 15-15s-6.729-15-15-15-15 6.729-15 15 6.729 15 15 15zm13-15c0 .338-.025.669-.051 1h-8.949c-.552 0-1-.449-1-1s.448-1 1-1h3c1.654 0 3-1.346 3-3s-1.346-3-3-3h-1c-.552 0-1-.449-1-1s.448-1 1-1h3.359c2.249 2.338 3.641 5.507 3.641 9zm-13-13c2.535 0 4.895.74 6.896 2h-.896c-1.654 0-3 1.346-3 3s1.346 3 3 3h1c.552 0 1 .449 1 1s-.448 1-1 1h-3c-1.654 0-3 1.346-3 3s1.346 3 3 3h8.637c-1.36 5.724-6.503 10-12.637 10-2.535 0-4.895-.74-6.896-2h4.896c1.654 0 3-1.346 3-3s-1.346-3-3-3h-5c-.552 0-1-.449-1-1s.448-1 1-1h1c1.654 0 3-1.346 3-3s-1.346-3-3-3h-6.637c1.36-5.724 6.503-10 12.637-10zm-12.949 12h6.949c.552 0 1 .449 1 1s-.448 1-1 1h-1c-1.654 0-3 1.346-3 3s1.346 3 3 3h5c.552 0 1 .449 1 1s-.448 1-1 1h-7.359c-2.249-2.338-3.641-5.507-3.641-9 0-.338.025-.669.051-1z" data-original="#000000" class="active-path" data-old_color="#000000" fill="#380B4C"/><path d="m42 6h2v2h-2z" data-original="#000000" class="active-path" data-old_color="#000000" fill="#380B4C"/><path d="m47 10h2v2h-2z" data-original="#000000" class="active-path" data-old_color="#000000" fill="#380B4C"/><path d="m53 22h2v2h-2z" data-original="#000000" class="active-path" data-old_color="#000000" fill="#380B4C"/><path d="m54 45c-4.963 0-9 4.038-9 9s4.037 9 9 9 9-4.038 9-9-4.037-9-9-9zm0 16c-3.859 0-7-3.14-7-7s3.141-7 7-7 7 3.14 7 7-3.141 7-7 7z" data-original="#000000" class="active-path" data-old_color="#000000" fill="#380B4C"/><path d="m56 49c-1.654 0-3 1.346-3 3h2c0-.551.448-1 1-1s1 .449 1 1-.448 1-1 1v2c1.654 0 3-1.346 3-3s-1.346-3-3-3z" data-original="#000000" class="active-path" data-old_color="#000000" fill="#380B4C"/><path d="m52 57h2v2h-2z" data-original="#000000" class="active-path" data-old_color="#000000" fill="#380B4C"/><path d="m49 52h2v2h-2z" data-original="#000000" class="active-path" data-old_color="#000000" fill="#380B4C"/></g> </svg>
