<?xml version="1.0"?>
<svg xmlns="http://www.w3.org/2000/svg" height="512px" viewBox="0 0 64 64" width="512px"><g><g id="outline"><path d="m11 47a3 3 0 0 1 -3-3 1 1 0 0 0 -2 0 3 3 0 0 1 -3 3 1 1 0 0 0 0 2 3 3 0 0 1 3 3 1 1 0 0 0 2 0 3 3 0 0 1 3-3 1 1 0 0 0 0-2zm-4 2.031a4.988 4.988 0 0 0 -1.031-1.031 4.988 4.988 0 0 0 1.031-1.031 4.988 4.988 0 0 0 1.031 1.031 4.988 4.988 0 0 0 -1.031 1.031z" data-original="#000000" class="active-path" data-old_color="#000000" fill="#380B4C"/><path d="m61 15a3 3 0 0 1 -3-3 1 1 0 0 0 -2 0 3 3 0 0 1 -3 3 1 1 0 0 0 0 2 3 3 0 0 1 3 3 1 1 0 0 0 2 0 3 3 0 0 1 3-3 1 1 0 0 0 0-2zm-4 2.031a4.988 4.988 0 0 0 -1.031-1.031 4.988 4.988 0 0 0 1.031-1.031 4.988 4.988 0 0 0 1.031 1.031 4.988 4.988 0 0 0 -1.031 1.031z" data-original="#000000" class="active-path" data-old_color="#000000" fill="#380B4C"/><path d="m4 37h2v2h-2z" data-original="#000000" class="active-path" data-old_color="#000000" fill="#380B4C"/><path d="m58 35h2v2h-2z" data-original="#000000" class="active-path" data-old_color="#000000" fill="#380B4C"/><path d="m49 8h2v2h-2z" data-original="#000000" class="active-path" data-old_color="#000000" fill="#380B4C"/><path d="m35 58h2v2h-2z" data-original="#000000" class="active-path" data-old_color="#000000" fill="#380B4C"/><path d="m41 42a3 3 0 1 0 3-3 3 3 0 0 0 -3 3zm4 0a1 1 0 1 1 -1-1 1 1 0 0 1 1 1z" data-original="#000000" class="active-path" data-old_color="#000000" fill="#380B4C"/><path d="m36 34a4 4 0 1 0 4-4 4 4 0 0 0 -4 4zm4-2a2 2 0 1 1 -2 2 2 2 0 0 1 2-2z" data-original="#000000" class="active-path" data-old_color="#000000" fill="#380B4C"/><path d="m36 19a3 3 0 1 0 -3-3 3 3 0 0 0 3 3zm0-4a1 1 0 1 1 -1 1 1 1 0 0 1 1-1z" data-original="#000000" class="active-path" data-old_color="#000000" fill="#380B4C"/><path d="m56 32a24.027 24.027 0 0 0 -24-24 23.65 23.65 0 0 0 -9.216 1.851c-5.851-4.242-15.703-10.346-19.491-6.558s3.058 14.573 6.551 19.514a23.6 23.6 0 0 0 -1.844 9.193 24.027 24.027 0 0 0 24 24 23.594 23.594 0 0 0 9.194-1.845c3.921 2.774 11.525 7.662 16.393 7.661a4.238 4.238 0 0 0 3.12-1.109c3.007-3.007.307-10.991-6.547-19.526a23.639 23.639 0 0 0 1.84-9.181zm-2.682-5.441a5.4 5.4 0 0 0 -3.1-.405 23.711 23.711 0 0 1 -5.094-.146c-3.688-.461-4.8-1.548-5.143-2.154a1.611 1.611 0 0 1 -.2-.675l.253.05c3.4.7 3.531.7 6.932 0l1.23-.249a7.2 7.2 0 0 1 4.154.671 21.742 21.742 0 0 1 .968 2.908zm-30.541-14.517c.1-.044.186-.1.283-.14a21.551 21.551 0 0 1 4.7-1.488c-.04 2.466.219 5.354 1.41 7.141 1.713 2.569.879 6.13.883 6.13a10.446 10.446 0 0 0 -.441 4.02c-1.165-.465-2.612-1.654-2.612-4.705 0-.186-.039-4.562-3.445-6.832-.784-.523-1.055-1.985-.778-4.126zm-.332 5.79c2.505 1.668 2.555 5.136 2.555 5.168 0 5.537 3.925 7 6 7a1 1 0 0 0 .895-1.447c-.664-1.327-.186-3.509.075-4.311.045-.18 1.082-4.467-1.138-7.8-.78-1.17-1.148-3.405-1.065-6.332a22.332 22.332 0 0 1 2.233-.11 22.009 22.009 0 0 1 19.115 11.13 7.789 7.789 0 0 0 -3.311-.11l-1.238.251c-3.066.625-3.066.625-6.132 0l-1.234-.251a.994.994 0 0 0 -1.091.533 3.661 3.661 0 0 0 .1 3.219c.907 1.7 3.152 2.781 6.671 3.22a25.725 25.725 0 0 0 5.475.158c1.552-.1 1.959-.111 3.486 1.22a21.963 21.963 0 0 1 .159 2.63 21.657 21.657 0 0 1 -1.909 8.944 20.042 20.042 0 0 1 -1.718 3.148 21.6 21.6 0 0 1 -5.273 5.552 160.374 160.374 0 0 1 -16.393-14.351 160.4 160.4 0 0 1 -14.351-16.393 21.74 21.74 0 0 1 5.509-5.249c.262-.175.546-.331.82-.5-.07 2.273.515 3.849 1.76 4.681zm33.782 38.394c-.812-.049-3.549-1.056-9.459-5.342a23.539 23.539 0 0 0 4.43-4.527c3.613 5.224 5.014 8.816 5.029 9.869zm-43.11-38.993c-4.275-5.895-5.288-8.633-5.342-9.453 1.01.038 4.254 1.378 9.8 5.072a23.671 23.671 0 0 0 -4.458 4.381zm-3.117 14.767c0-.263.011-.524.02-.785a10.509 10.509 0 0 0 2.38 2.585c2.574 1.93 2.775 3.225 2.7 4.6a18.57 18.57 0 0 1 -4.972-4.066 22.2 22.2 0 0 1 -.128-2.334zm13.628 20.341a11.832 11.832 0 0 1 -.628-3.341c0-.626.048-1.174.09-1.656.127-1.452.15-2.551-.814-3.708a2.708 2.708 0 0 1 .585.15 4.215 4.215 0 0 1 2.211 2.585 12.676 12.676 0 0 1 .8 4.308 13.508 13.508 0 0 0 .311 2.534 21.971 21.971 0 0 1 -2.555-.872zm8.372 1.659a21.986 21.986 0 0 1 -3.484-.279 6.9 6.9 0 0 1 -.65-3.157 14.51 14.51 0 0 0 -.937-4.935 6.1 6.1 0 0 0 -3.357-3.713 5.4 5.4 0 0 0 -4.019.189 1 1 0 0 0 -.108 1.727c1.837 1.225 1.795 1.715 1.653 3.337-.046.524-.1 1.117-.1 1.831a10.955 10.955 0 0 0 .255 2.187 22.088 22.088 0 0 1 -10.466-13.36 22.5 22.5 0 0 0 4.8 3.086.984.984 0 0 0 .413.087 1 1 0 0 0 1-1c0-.3.026-.6.051-.909.149-1.806.333-4.053-3.451-6.891a10.738 10.738 0 0 1 -3.183-4.461 21.375 21.375 0 0 1 .827-3.012 138.048 138.048 0 0 0 13.049 14.98 138.077 138.077 0 0 0 14.98 13.049 21.686 21.686 0 0 1 -7.273 1.244zm27.293 5.293c-1.509 1.507-7.593-.065-17.393-7.087a133.125 133.125 0 0 1 -16.193-13.913 133.175 133.175 0 0 1 -13.914-16.193c-7.02-9.8-8.593-15.884-7.086-17.393 1.436-1.436 6.483-.613 16.006 6.126-.473.252-.926.523-1.373.8-7.263-4.927-11.658-6.728-13.047-5.34-.6.6-2.192 2.191 6 13.2a161.324 161.324 0 0 0 15 17.211 160.987 160.987 0 0 0 17.207 14.996c7.21 5.367 10.382 6.537 11.881 6.537a1.645 1.645 0 0 0 1.324-.532c2.13-2.131-3.4-10.416-5.3-13.113.286-.46.56-.922.806-1.388 6.599 8.496 7.589 14.579 6.082 16.089z" data-original="#000000" class="active-path" data-old_color="#000000" fill="#380B4C"/><path d="m19 19h2v2h-2z" data-original="#000000" class="active-path" data-old_color="#000000" fill="#380B4C"/><path d="m48 31h2v2h-2z" data-original="#000000" class="active-path" data-old_color="#000000" fill="#380B4C"/></g></g> </svg>
