<?xml version="1.0"?>
<svg xmlns="http://www.w3.org/2000/svg" xmlns:xlink="http://www.w3.org/1999/xlink" version="1.1" id="Layer_1" x="0px" y="0px" viewBox="0 0 511.684 511.684" style="enable-background:new 0 0 511.684 511.684;" xml:space="preserve" width="512px" height="512px"><g><g>
	<g>
		<g>
			<path d="M44.22,238.839c0.512,0,1.033-0.043,1.553-0.137c4.634-0.853,7.706-5.308,6.844-9.941     c-0.939-5.094-1.417-10.334-1.417-15.59c0-47.053,38.289-85.333,85.333-85.333c23.569,0,45.5,9.404,61.773,26.47     c3.251,3.405,8.644,3.533,12.075,0.282c3.405-3.251,3.533-8.653,0.282-12.058c-19.524-20.48-45.85-31.753-74.129-31.753     c-56.465,0-102.4,45.935-102.4,102.391c0,6.289,0.58,12.578,1.698,18.688C36.591,235.972,40.183,238.839,44.22,238.839z" data-original="#000000" class="active-path" data-old_color="#000000" fill="#380B4C"/>
			<path d="M381.244,120.704c-3.951,2.569-5.069,7.851-2.492,11.802c9.02,13.841,13.781,29.935,13.781,46.541     c0,4.71,3.814,8.533,8.533,8.533s8.533-3.823,8.533-8.533c0-19.917-5.726-39.236-16.546-55.851     C390.485,119.236,385.203,118.127,381.244,120.704z" data-original="#000000" class="active-path" data-old_color="#000000" fill="#380B4C"/>
			<path d="M196.096,114.867c3.908,2.645,9.216,1.587,11.836-2.321c22.281-33.169,59.273-52.975,98.953-52.975     c65.877,0,119.467,53.598,119.467,119.475c0,10.82-1.442,21.538-4.292,31.855c-1.254,4.548,1.408,9.242,5.948,10.496     c0.768,0.213,1.527,0.316,2.287,0.316c3.746,0,7.177-2.483,8.218-6.263c3.26-11.802,4.907-24.047,4.907-36.403     c0-75.29-61.252-136.542-136.533-136.542c-45.372,0-87.663,22.63-113.118,60.527C191.147,106.94,192.188,112.247,196.096,114.867     z" data-original="#000000" class="active-path" data-old_color="#000000" fill="#380B4C"/>
			<path d="M93.551,366.771H68.267c-28.228,0-51.2-22.963-51.2-51.2c0-28.228,22.972-51.191,51.2-51.191     c4.719,0,8.533-3.823,8.533-8.533c0-4.719-3.814-8.533-8.533-8.533C30.626,247.313,0,277.931,0,315.571     c0,37.649,30.626,68.267,68.267,68.267h25.284c4.719,0,8.533-3.814,8.533-8.533C102.084,370.594,98.27,366.771,93.551,366.771z" data-original="#000000" class="active-path" data-old_color="#000000" fill="#380B4C"/>
			<path d="M458.462,211.703c22.639,15.991,36.156,42.061,36.156,69.743c0,21.854-8.26,42.65-23.253,58.539     c-3.234,3.43-3.081,8.832,0.35,12.066c1.647,1.553,3.755,2.321,5.854,2.321c2.27,0,4.523-0.896,6.212-2.68     c17.997-19.072,27.904-44.023,27.904-70.246c0-33.212-16.213-64.495-43.375-83.686c-3.866-2.714-9.173-1.801-11.887,2.048     C453.692,203.657,454.613,208.981,458.462,211.703z" data-original="#000000" class="active-path" data-old_color="#000000" fill="#380B4C"/>
			<path d="M375.151,400.905H161.818c-4.719,0-8.533,3.823-8.533,8.533c0,4.719,3.814,8.533,8.533,8.533h213.333     c9.412,0,17.067,7.654,17.067,17.075c0,9.412-7.654,17.067-17.067,17.067c-4.565,0-8.858-1.783-12.083-5.009     c-3.337-3.337-8.73-3.337-12.066-0.009c-3.337,3.337-3.337,8.738,0,12.075c6.451,6.451,15.027,10.01,24.149,10.01     c18.825,0,34.133-15.317,34.133-34.133C409.284,416.222,393.975,400.905,375.151,400.905z" data-original="#000000" class="active-path" data-old_color="#000000" fill="#380B4C"/>
			<path d="M460.484,366.771h-42.667c-4.719,0-8.533,3.823-8.533,8.533c0,4.719,3.814,8.533,8.533,8.533h42.667     c18.825,0,34.133,15.317,34.133,34.133c0,18.825-15.309,34.142-34.133,34.142c-9.242,0-17.894-3.635-24.363-10.24     c-3.319-3.371-8.721-3.413-12.066-0.111c-3.371,3.294-3.422,8.704-0.119,12.066c9.711,9.899,22.69,15.351,36.548,15.351     c28.237,0,51.2-22.972,51.2-51.208C511.684,389.743,488.721,366.771,460.484,366.771z" data-original="#000000" class="active-path" data-old_color="#000000" fill="#380B4C"/>
			<path d="M409.284,324.105c0-32.93-26.803-59.725-59.733-59.725s-59.733,26.795-59.733,59.725c0,4.719,3.814,8.533,8.533,8.533     s8.533-3.814,8.533-8.533c0-23.518,19.14-42.658,42.667-42.658c23.526,0,42.667,19.14,42.667,42.658     c0,23.526-19.14,42.667-42.667,42.667H127.684c-4.719,0-8.533,3.823-8.533,8.533c0,4.719,3.814,8.533,8.533,8.533h221.867     C382.481,383.838,409.284,357.043,409.284,324.105z" data-original="#000000" class="active-path" data-old_color="#000000" fill="#380B4C"/>
			<path d="M97.502,157.175c-12.638,8.823-22.016,21.777-26.402,36.489c-1.348,4.523,1.229,9.276,5.743,10.624     c0.811,0.239,1.638,0.35,2.432,0.35c3.686,0,7.074-2.389,8.175-6.093c3.294-11.034,10.325-20.753,19.823-27.366     c3.866-2.697,4.804-8.021,2.116-11.887C106.692,155.435,101.385,154.47,97.502,157.175z" data-original="#000000" class="active-path" data-old_color="#000000" fill="#380B4C"/>
		</g>
	</g>
</g></g> </svg>
