<?xml version="1.0"?>
<svg xmlns="http://www.w3.org/2000/svg" xmlns:xlink="http://www.w3.org/1999/xlink" version="1.1" id="Capa_1" x="0px" y="0px" viewBox="0 0 464 464" style="enable-background:new 0 0 464 464;" xml:space="preserve" width="512px" height="512px"><g><g>
	<g>
		<path d="M291.566,48.16C189.42,21.967,85.381,83.539,59.187,185.685s35.379,206.186,137.525,232.379    c15.554,3.965,31.541,5.975,47.592,5.984c87.123-0.075,163.146-59.116,184.787-143.509    C455.285,178.393,393.713,74.353,291.566,48.16z M244.026,408.088c-97.255,0.1-176.177-78.66-176.277-175.915    c-0.1-97.255,78.66-176.177,175.915-176.277c14.713,0.01,29.367,1.854,43.624,5.488c45.29,11.379,84.147,40.401,107.912,80.6    c16.162,27.178,24.708,58.206,24.741,89.827C420.041,329.066,341.281,407.988,244.026,408.088z" data-original="#000000" class="active-path" data-old_color="#000000" fill="#380B4C"/>
	</g>
</g><g>
	<g>
		<path d="M266.464,263.096c-11.944-20.065-37.889-26.654-57.96-14.72c-14.152,8.424-19.416,23.68-24.064,37.152    c-2.158,9.391-6.758,18.046-13.336,25.088c-29.728,23.76-73.52,24-74.064,24l-0.048,16h0.088c3.08,0,50.184-0.456,84.056-27.512    c9.112-8.807,15.518-20.035,18.464-32.36c4.112-11.928,8-23.192,17.112-28.616c12.47-7.405,28.581-3.31,36,9.152    c4.988,8.41,2.229,19.271-6.168,24.28c-5.357,3.179-12.276,1.426-15.472-3.92c-1.818-3.074-0.81-7.04,2.256-8.872    c1.353-0.8,3.097-0.356,3.904,0.992l13.752-8.176c-5.332-8.936-16.888-11.874-25.84-6.568c-10.647,6.359-14.142,20.133-7.816,30.8    c7.721,12.929,24.446,17.176,37.4,9.496C270.729,299.789,275.984,279.099,266.464,263.096z" data-original="#000000" class="active-path" data-old_color="#000000" fill="#380B4C"/>
	</g>
</g><g>
	<g>
		<path d="M423.096,204.736c-13.809,5.553-28.484,8.642-43.36,9.128c-11.645,0.468-23.176,2.472-34.296,5.96    c-26.688,9.264-39.072,19.768-50.96,43.2c-3.184,6.666-5.692,13.634-7.488,20.8c-4.08,14.44-7.304,25.824-24.992,36    c-9.873,5.719-21.332,8.09-32.664,6.76c-9.113-0.687-18.277,0.157-27.112,2.496c-22.768,6.624-78.192,31.8-80.544,32.872    l6.632,14.56c0.56-0.256,56.712-25.76,78.352-32.072c7.221-1.861,14.705-2.491,22.136-1.864    c14.301,1.424,28.688-1.674,41.136-8.856c17.077-9.532,28.973-26.227,32.408-45.48c1.537-6.172,3.681-12.177,6.4-17.928    c9.944-19.56,19.328-27.48,41.944-35.336c9.842-3.025,20.038-4.749,30.328-5.128c16.602-0.626,32.968-4.145,48.36-10.4    L423.096,204.736z" data-original="#000000" class="active-path" data-old_color="#000000" fill="#380B4C"/>
	</g>
</g><g>
	<g>
		<path d="M383.08,116.128c-6.728,22.872-55.112,60.584-81.6,67.928c-9.225,2.291-18.796,2.847-28.224,1.64    c-21.493-2.353-43.22,1.244-62.808,10.4c-31.08,13.288-46.784,34.808-59.4,52.096c-5.663,8.893-12.703,16.829-20.856,23.512    c-20.648,14.376-54.304,14.584-54.648,14.584v16c1.728,0,39.016-0.216,63.816-17.488c9.651-7.652,17.976-16.842,24.64-27.2    c12-16.504,25.688-35.2,52.728-46.8c17.265-8.133,36.453-11.299,55.416-9.144c11.239,1.34,22.628,0.603,33.6-2.176    c31.632-8.776,84.232-50.128,92.688-78.824L383.08,116.128z" data-original="#000000" class="active-path" data-old_color="#000000" fill="#380B4C"/>
	</g>
</g><g>
	<g>
		<path d="M414.4,160.952c-15.985,5.888-31.497,12.989-46.4,21.24l7.784,13.96c14.122-7.804,28.809-14.54,43.936-20.152    L414.4,160.952z" data-original="#000000" class="active-path" data-old_color="#000000" fill="#380B4C"/>
	</g>
</g><g>
	<g>
		<path d="M324,61.928c-21.853,14.686-42.162,31.548-60.616,50.328c-19.48,19.847-41.088,37.486-64.432,52.6    c-22.866,15.833-47.409,29.094-73.184,39.544c-24.61,9.996-48.135,22.479-70.208,37.256l8.76,13.384    c21.264-14.268,43.944-26.303,67.68-35.912c26.706-10.859,52.15-24.596,75.88-40.968c24.17-15.689,46.558-33.965,66.768-54.504    c17.755-18.134,37.324-34.397,58.4-48.536L324,61.928z" data-original="#000000" class="active-path" data-old_color="#000000" fill="#380B4C"/>
	</g>
</g><g>
	<g>
		<path d="M425.384,249.44c-21.715,12.043-41.814,26.793-59.816,43.896c-17.133,16.334-36.295,30.396-57.016,41.84    c-21.146,12.499-43.704,22.436-67.2,29.6c-24.517,7.53-48.063,17.919-70.152,30.952l8,13.872    c21.145-12.501,43.704-22.438,67.2-29.6c24.517-7.533,48.063-17.925,70.152-30.96c21.719-12.041,41.821-26.791,59.824-43.896    c17.13-16.331,36.29-30.39,57.008-41.832L425.384,249.44z" data-original="#000000" class="active-path" data-old_color="#000000" fill="#380B4C"/>
	</g>
</g><g>
	<g>
		<path d="M252.208,41.6c-14.143,10.796-26.995,23.184-38.304,36.92c-13.462,16.349-29.185,30.696-46.696,42.608    c-17.041,12.578-35.79,22.658-55.68,29.936c-18.391,6.746-35.861,15.777-52,26.88l8.944,13.256    c15.154-10.451,31.573-18.934,48.864-25.248c21.092-7.761,40.984-18.458,59.088-31.776c18.563-12.667,35.248-27.889,49.56-45.216    c10.614-12.92,22.695-24.561,36-34.688L252.208,41.6z" data-original="#000000" class="active-path" data-old_color="#000000" fill="#380B4C"/>
	</g>
</g><g>
	<g>
		<path d="M44,376v-24H28v24c0,13.255-10.745,24-24,24v16c13.255,0,24,10.745,24,24v24h16v-24c0-13.255,10.745-24,24-24v-16    C54.745,400,44,389.255,44,376z M36,416c-2.28-3.027-4.973-5.72-8-8c3.027-2.28,5.72-4.973,8-8c2.28,3.027,4.973,5.72,8,8    C40.973,410.28,38.28,412.973,36,416z" data-original="#000000" class="active-path" data-old_color="#000000" fill="#380B4C"/>
	</g>
</g><g>
	<g>
		<rect x="444" y="16" width="16" height="16" data-original="#000000" class="active-path" data-old_color="#000000" fill="#380B4C"/>
	</g>
</g><g>
	<g>
		<rect x="412" y="16" width="16" height="16" data-original="#000000" class="active-path" data-old_color="#000000" fill="#380B4C"/>
	</g>
</g><g>
	<g>
		<rect x="428" width="16" height="16" data-original="#000000" class="active-path" data-old_color="#000000" fill="#380B4C"/>
	</g>
</g><g>
	<g>
		<rect x="428" y="32" width="16" height="16" data-original="#000000" class="active-path" data-old_color="#000000" fill="#380B4C"/>
	</g>
</g><g>
	<g>
		<circle cx="436" cy="424" r="8" data-original="#000000" class="active-path" data-old_color="#000000" fill="#380B4C"/>
	</g>
</g></g> </svg>
